<svg width="66" height="8" viewBox="0 0 66 8" fill="none" xmlns="http://www.w3.org/2000/svg">
<path d="M65.3536 4.35355C65.5488 4.15829 65.5488 3.84171 65.3536 3.64645L62.1716 0.464466C61.9763 0.269204 61.6597 0.269204 61.4645 0.464466C61.2692 0.659728 61.2692 0.976311 61.4645 1.17157L64.2929 4L61.4645 6.82843C61.2692 7.02369 61.2692 7.34027 61.4645 7.53553C61.6597 7.7308 61.9763 7.7308 62.1716 7.53553L65.3536 4.35355ZM0.5 4.5H1.47727V3.5H0.5V4.5ZM5.38636 4.5H7.34091V3.5H5.38636V4.5ZM11.25 4.5H13.2045V3.5H11.25V4.5ZM17.1136 4.5H19.0682V3.5H17.1136V4.5ZM22.9773 4.5H24.9318V3.5H22.9773V4.5ZM28.8409 4.5H30.7955V3.5H28.8409V4.5ZM34.7045 4.5H36.6591V3.5H34.7045V4.5ZM40.5682 4.5H42.5227V3.5H40.5682V4.5ZM46.4318 4.5H48.3864V3.5H46.4318V4.5ZM52.2955 4.5H54.25V3.5H52.2955V4.5ZM58.1591 4.5H60.1136V3.5H58.1591V4.5ZM64.0227 4.5H65V3.5H64.0227V4.5Z" fill="#4DA6FF"/>
</svg>
