<svg width="50" height="62" viewBox="0 0 50 62" fill="none" xmlns="http://www.w3.org/2000/svg">
<path d="M49 56.0043C49 58.7657 46.7614 61 44 61H6.00011C3.2387 61 1.00013 58.7654 1.00012 56.004C1.00009 43.932 1.00003 17.1198 1.00001 5.99131C1 3.22988 3.23858 1.00003 6.00001 1.00003L44 1C46.7614 1 49 3.22995 49 5.99137C49 17.1211 49 43.9375 49 56.0043Z" fill="#000C28" stroke="#4DA6FF" stroke-width="2" stroke-miterlimit="10"/>
<path d="M49 13H1V7C1 3.64 3.2 1 6 1H44C46.8 1 49 3.64 49 7V13Z" fill="#4DA6FF"/>
<path d="M4 15C5.10457 15 6 14.1046 6 13C6 11.8954 5.10457 11 4 11C2.89543 11 2 11.8954 2 13C2 14.1046 2.89543 15 4 15Z" fill="#000C28"/>
<path d="M9.99976 15C11.1043 15 11.9998 14.1046 11.9998 13C11.9998 11.8954 11.1043 11 9.99976 11C8.89519 11 7.99976 11.8954 7.99976 13C7.99976 14.1046 8.89519 15 9.99976 15Z" fill="#000C28"/>
<path d="M16 15C17.1046 15 18 14.1046 18 13C18 11.8954 17.1046 11 16 11C14.8954 11 14 11.8954 14 13C14 14.1046 14.8954 15 16 15Z" fill="#000C28"/>
<path d="M22 15C23.1046 15 24 14.1046 24 13C24 11.8954 23.1046 11 22 11C20.8954 11 20 11.8954 20 13C20 14.1046 20.8954 15 22 15Z" fill="#000C28"/>
<path d="M28 15C29.1046 15 30 14.1046 30 13C30 11.8954 29.1046 11 28 11C26.8954 11 26 11.8954 26 13C26 14.1046 26.8954 15 28 15Z" fill="#000C28"/>
<path d="M34.0002 15C35.1048 15 36.0002 14.1046 36.0002 13C36.0002 11.8954 35.1048 11 34.0002 11C32.8957 11 32.0002 11.8954 32.0002 13C32.0002 14.1046 32.8957 15 34.0002 15Z" fill="#000C28"/>
<path d="M40.0002 15C41.1048 15 42.0002 14.1046 42.0002 13C42.0002 11.8954 41.1048 11 40.0002 11C38.8957 11 38.0002 11.8954 38.0002 13C38.0002 14.1046 38.8957 15 40.0002 15Z" fill="#000C28"/>
<path d="M46.0002 15C47.1048 15 48.0002 14.1046 48.0002 13C48.0002 11.8954 47.1048 11 46.0002 11C44.8957 11 44.0002 11.8954 44.0002 13C44.0002 14.1046 44.8957 15 46.0002 15Z" fill="#000C28"/>
<circle cx="24" cy="36" r="12" fill="#4DA6FF"/>
<path d="M16 33.5L23.5 41L38.5 26" stroke="#000C28" stroke-width="4"/>
</svg>
