<svg width="147" height="104" viewBox="0 0 147 104" fill="none" xmlns="http://www.w3.org/2000/svg">
<g clip-path="url(#clip0_149_5126)">
<mask id="path-1-inside-1_149_5126" fill="white">
<path d="M10.0521 38.9741L7.49731 40.0338C3.5174 41.6494 2.59562 46.7876 5.72916 49.5859L51.064 90.7388C55.6224 94.7076 62.174 95.5832 67.5907 92.9019L138.17 57.8129C142.098 55.9018 142.672 50.5203 139.243 47.774"/>
</mask>
<path d="M7.49731 40.0338L7.87346 40.9604L7.88045 40.9575L7.49731 40.0338ZM5.72916 49.5859L6.40131 48.8455L6.39525 48.8401L5.72916 49.5859ZM51.064 90.7388L50.3919 91.4793L50.3996 91.4862L50.4074 91.493L51.064 90.7388ZM67.5907 92.9019L68.0343 93.7981L68.0359 93.7973L67.5907 92.9019ZM138.17 57.8129L137.732 56.9136L137.725 56.9174L138.17 57.8129ZM9.66895 38.0504L7.11416 39.1101L7.88045 40.9575L10.4352 39.8977L9.66895 38.0504ZM7.12117 39.1072C2.47758 40.9923 1.35979 47.0246 5.06307 50.3318L6.39525 48.8401C3.83145 46.5505 4.55721 42.3066 7.87345 40.9604L7.12117 39.1072ZM5.05703 50.3264L50.3919 91.4793L51.7362 89.9984L6.40129 48.8455L5.05703 50.3264ZM50.4074 91.493C55.2672 95.7242 62.2522 96.6603 68.0343 93.7981L67.1471 92.0057C62.0959 94.5061 55.9777 93.691 51.7207 89.9846L50.4074 91.493ZM68.0359 93.7973L138.615 58.7083L137.725 56.9174L67.1455 92.0064L68.0359 93.7973ZM138.607 58.7121C143.206 56.4745 143.861 50.1913 139.868 46.9935L138.618 48.5545C141.483 50.8493 140.989 55.329 137.732 56.9136L138.607 58.7121Z" fill="#1A77FF" mask="url(#path-1-inside-1_149_5126)"/>
<path d="M8.7938 46.8116L51.2268 85.3284C55.82 89.4941 62.3715 90.3697 67.8867 87.671L135.673 54.5975C139.7 52.6691 140.257 47.1891 136.729 44.4602L97.8402 13.9497C93.0037 10.1315 86.5332 9.14002 80.7516 11.4795L10.2025 39.2522C7.0742 40.5146 6.3727 44.5984 8.7938 46.8116Z" fill="url(#paint0_linear_149_5126)" fill-opacity="0.1" stroke="#1A77FF" stroke-width="2" stroke-miterlimit="10"/>
<path d="M84.6521 39.9345L134.458 47.7038L84.5303 40.9714L84.6521 39.9345Z" fill="#1A77FF"/>
<path d="M61.463 84.6404L68.0144 45.2037L68.9702 45.4413L61.463 84.6404Z" fill="#1A77FF"/>
<path opacity="0.5" d="M10.0976 43.8401C10.0976 43.8401 50.4961 49.5112 78.1744 48.6924C78.1744 48.6924 86.5681 49.6494 87.3455 41.3889C88.0185 34.2638 87.9867 13.3517 87.9867 13.3517C87.9867 13.3517 87.8225 27.3935 85.8978 37.7856C85.8978 37.7856 85.7289 44.3141 78.2851 44.7128C70.7254 45.0303 44.333 46.2316 10.0976 43.8401Z" fill="#000A19" fill-opacity="0.6"/>
<path d="M7.47376 42.7796C9.7155 43.3997 11.9863 43.6086 14.2744 43.9159C16.5452 44.1248 18.9144 44.3163 21.1678 44.4267C25.7905 44.7285 30.3784 44.8334 35.0474 44.8225C44.287 44.818 53.5903 44.5992 62.7778 44.2992C67.4295 44.1898 71.9653 43.9993 76.5996 43.7914L78.3085 43.6931C78.8183 43.7048 79.3107 43.618 79.7857 43.4327C80.7532 43.1605 81.7033 42.7899 82.6012 42.1239C83.4007 41.4752 84.1655 40.6295 84.716 39.7201C85.2664 38.8107 85.3708 37.6754 85.5738 36.5226C86.2869 31.929 86.8031 27.3701 87.2035 22.7301C87.6038 18.0901 87.9057 13.4674 87.9121 8.89686C88.0161 11.214 87.9231 13.5659 87.8127 15.8193C87.7197 18.1712 87.6093 20.4246 87.5163 22.7765C87.3129 27.3817 87.011 32.0044 86.4137 36.6791C86.3093 37.8145 86.1237 39.0657 85.608 40.1721C85.0923 41.2785 84.4781 42.4022 83.5164 43.2826C82.5546 44.1629 81.4597 44.8637 80.3126 45.2691C79.7391 45.4717 79.0497 45.5933 78.4589 45.6975C77.8506 45.7032 77.2597 45.8074 76.6515 45.8131C72.0172 46.021 67.3829 46.2289 62.7138 46.2398C53.4916 46.3428 44.1362 46.2662 34.943 45.9579C30.3377 45.7545 25.715 45.4526 21.075 45.0523C18.8043 44.8434 16.4177 44.5534 14.1295 44.2461C11.9225 43.8229 9.63438 43.5156 7.47376 42.7796Z" fill="#1A77FF"/>
</g>
<defs>
<linearGradient id="paint0_linear_149_5126" x1="55.2846" y1="23.6873" x2="85.4865" y2="79.7952" gradientUnits="userSpaceOnUse">
<stop stop-color="#00D7FB"/>
<stop offset="1" stop-color="#0033AD"/>
</linearGradient>
<clipPath id="clip0_149_5126">
<rect width="134.5" height="80.3" fill="white" transform="translate(0.0498047 24.2878) rotate(-10)"/>
</clipPath>
</defs>
</svg>
