<svg width="420" height="116" viewBox="0 0 420 116" fill="none" xmlns="http://www.w3.org/2000/svg">
<g clip-path="url(#clip0_149_5055)">
<path d="M419.2 12.3C376 54.6 321.9 88.7 267.5 115.8H0C354.4 44.9 407.8 0 407.8 0L419.2 12.3Z" fill="#000C28"/>
<g opacity="0.3">
<path d="M206.7 83.6C214 81.8 221.2 80 228.5 78C235.7 76.1 243 74.1 250.2 72C264.6 67.9 279 63.5 293.2 58.9C307.4 54.2 321.6 49.2 335.5 43.7C339 42.3 342.4 40.9 345.9 39.5C347.6 38.8 349.4 38.1 351.1 37.3L356.2 35L361.3 32.7C362.2 32.3 363 32 363.9 31.6L366.4 30.4L376.5 25.5L366.5 30.6L364 31.9C363.2 32.3 362.3 32.7 361.5 33.1L356.4 35.5L351.3 37.9C349.6 38.7 347.9 39.4 346.1 40.1C342.6 41.6 339.2 43 335.7 44.5C321.8 50.1 307.6 55.1 293.4 59.9C279.1 64.5 264.8 68.9 250.3 72.8C235.9 76.8 221.4 80.4 206.7 83.6Z" fill="#5773DD"/>
</g>
<path d="M270.2 114.6L273.7 112.8L270.2 114.6Z" fill="#00D7FB"/>
<path d="M277.3 111L280.8 109.1L280.9 109.2L277.3 111Z" fill="#00D7FB"/>
<path d="M284.4 107.2L287.9 105.4L288 105.5L284.4 107.3V107.2Z" fill="#00D7FB"/>
<path d="M291.4 103.5L294.9 101.6L295 101.7L291.5 103.6L291.4 103.5Z" fill="#00D7FB"/>
<path d="M298.4 99.6L301.9 97.7L302 97.9L298.5 99.8L298.4 99.6Z" fill="#00D7FB"/>
<path d="M305.4 95.7L308.9 93.7L309 94L305.5 95.9L305.4 95.7Z" fill="#00D7FB"/>
<path d="M312.3 91.7L315.8 89.7L315.9 90L312.5 92L312.3 91.7Z" fill="#00D7FB"/>
<path d="M319.2 87.7L322.7 85.6L322.8 85.9L319.4 88L319.2 87.7Z" fill="#00D7FB"/>
<path d="M326.1 83.4999L329.5 81.3999L329.7 81.7999L326.3 83.8999L326.1 83.4999Z" fill="#00D7FB"/>
<path d="M332.9 79.3L336.3 77.2L336.5 77.6L333.1 79.7L332.9 79.3Z" fill="#00D7FB"/>
<path d="M339.6 74.9999L343 72.8999L343.3 73.2999L339.9 75.3999L339.6 74.9999Z" fill="#00D7FB"/>
<path d="M346.3 70.6999L349.6 68.3999L350 68.8999L346.6 71.0999L346.3 70.6999Z" fill="#00D7FB"/>
<path d="M353 66.1999L356.3 63.8999L356.6 64.3999L353.3 66.6999L353 66.1999Z" fill="#00D7FB"/>
<path d="M359.5 61.5999L362.8 59.2999L363.2 59.8999L359.9 62.1999L359.5 61.5999Z" fill="#00D7FB"/>
<path d="M366 57L369.3 54.6L369.7 55.2L366.4 57.5L366 57Z" fill="#00D7FB"/>
<path d="M372.5 52.2999L375.7 49.7999L376.1 50.3999L372.9 52.7999L372.5 52.2999Z" fill="#00D7FB"/>
<path d="M378.8 47.3999L382 44.8999L382.5 45.5999L379.3 47.9999L378.8 47.3999Z" fill="#00D7FB"/>
<path d="M385.1 42.4999L388.2 39.8999L388.7 40.5999L385.6 43.0999L385.1 42.4999Z" fill="#00D7FB"/>
<path d="M391.3 37.3999L394.3 34.7999L394.9 35.4999L391.8 37.9999L391.3 37.3999Z" fill="#00D7FB"/>
<path d="M397.4 32.2L400.4 29.5L401 30.2L398 32.9L397.4 32.2Z" fill="#00D7FB"/>
<path d="M403.3 26.9L406.3 24.2L406.9 24.9L404 27.6L403.3 26.9Z" fill="#00D7FB"/>
<path d="M174.8 77.5L178.6 76.5L174.8 77.5Z" fill="#1A77FF"/>
<path d="M182.5 75.5L186.4 74.5V74.6L182.5 75.5Z" fill="#1A77FF"/>
<path d="M190.3 73.6L194.2 72.6V72.7L190.3 73.7V73.6Z" fill="#1A77FF"/>
<path d="M198 71.7L201.9 70.7V70.8L198.1 71.8L198 71.7Z" fill="#1A77FF"/>
<path d="M205.8 69.7999L209.7 68.7999V68.8999L205.8 69.8999V69.7999Z" fill="#1A77FF"/>
<path d="M213.6 67.8L217.4 66.9L217.5 67L213.6 68V67.8Z" fill="#1A77FF"/>
<path d="M221.3 65.9L225.2 64.9V65.1L221.4 66.1L221.3 65.9Z" fill="#1A77FF"/>
<path d="M229.1 63.9L232.9 62.9L233 63.2L229.1 64.1V63.9Z" fill="#1A77FF"/>
<path d="M236.8 61.9L240.7 60.9V61.2L236.9 62.2L236.8 61.9Z" fill="#1A77FF"/>
<path d="M244.5 59.8999L248.4 58.7999L248.5 59.1999L244.6 60.1999L244.5 59.8999Z" fill="#1A77FF"/>
<path d="M252.3 57.7999L256.1 56.7L256.2 57.0999L252.3 58.0999V57.7999Z" fill="#1A77FF"/>
<path d="M260 55.7L263.8 54.6L263.9 55L260.1 56L260 55.7Z" fill="#1A77FF"/>
<path d="M267.7 53.5L271.5 52.4L271.6 52.8L267.8 53.9L267.7 53.5Z" fill="#1A77FF"/>
<path d="M275.3 51.2999L279.2 50.2L279.3 50.5999L275.5 51.7L275.3 51.2999Z" fill="#1A77FF"/>
<path d="M283 49.1L286.8 47.9L287 48.4L283.1 49.5L283 49.1Z" fill="#1A77FF"/>
<path d="M290.7 46.7L294.5 45.6L294.6 46.1L290.8 47.2L290.7 46.7Z" fill="#1A77FF"/>
<path d="M298.3 44.4L302.1 43.2L302.3 43.7L298.5 44.9L298.3 44.4Z" fill="#1A77FF"/>
<path d="M305.9 42L309.7 40.7L309.9 41.2999L306.1 42.5L305.9 42Z" fill="#1A77FF"/>
<path d="M313.5 39.5L317.3 38.2L317.5 38.7999L313.7 40L313.5 39.5Z" fill="#1A77FF"/>
<path d="M321.1 36.9L324.9 35.6L325.1 36.2L321.3 37.5L321.1 36.9Z" fill="#1A77FF"/>
<path d="M328.7 34.3L332.4 33L332.7 33.6L328.9 34.9L328.7 34.3Z" fill="#1A77FF"/>
<path d="M336.2 31.6L339.9 30.2L340.2 30.9L336.4 32.2999L336.2 31.6Z" fill="#1A77FF"/>
<path d="M343.7 28.8L347.4 27.4L347.7 28.1L343.9 29.5L343.7 28.8Z" fill="#1A77FF"/>
<path d="M351.2 26L354.9 24.5L355.2 25.3L351.4 26.7L351.2 26Z" fill="#1A77FF"/>
<path d="M358.6 23L362.3 21.5L362.6 22.3L358.9 23.8L358.6 23Z" fill="#1A77FF"/>
<path d="M366 20L369.7 18.5L370 19.3L366.3 20.8L366 20Z" fill="#1A77FF"/>
<path d="M373.4 16.8999L377 15.2999L377.4 16.0999L373.7 17.6999L373.4 16.8999Z" fill="#1A77FF"/>
<path d="M380.7 13.7L384.3 12L384.7 12.9L381 14.5L380.7 13.7Z" fill="#1A77FF"/>
<path d="M387.9 10.3L391.5 8.59998L392 9.49998L388.3 11.2L387.9 10.3Z" fill="#1A77FF"/>
<path d="M395.1 6.89998L398.7 5.09998L399.2 5.99998L395.6 7.79998L395.1 6.89998Z" fill="#1A77FF"/>
</g>
<defs>
<clipPath id="clip0_149_5055">
<rect width="419.2" height="115.8" fill="white"/>
</clipPath>
</defs>
</svg>
