<svg width="179" height="167" viewBox="0 0 179 167" fill="none" xmlns="http://www.w3.org/2000/svg">
<g clip-path="url(#clip0_146_5148)">
<path opacity="0.5" d="M146.7 62.6C145.5 61.3 143 58.9 139.1 56.9C133.8 54.2 124.8 51.5 111.7 54.3L109.6 55.5L106.3 55.3H106.2C105.9 55.3 78.5001 59 59.5001 82.1L53.0001 76.9L52.9001 76.8L20.1001 76H20.0001L11.3001 81L11.0001 81.2L9.30009 82.2C8.70009 82.6 8.20009 83.2 8.00009 83.9C7.80009 84.6 8.00009 85.4 8.40009 86L20.1001 103.9H20.0001L20.2001 104.1L20.3001 104.3H20.4001L21.9001 105.7L35.9001 97.8C35.5001 99.8 36.7001 103.7 38.7001 108.3L37.1001 109.9C37.1001 109.9 37.1001 109.9 37.1001 110V110.1C38.4001 115.3 36.0001 117 36.0001 117C36.0001 116.9 36.0001 117 36.0001 117.1C36.0001 117.2 36.1001 117.3 36.1001 117.3C36.0001 117.8 36.4001 119 37.1001 120.6C28.3001 123.9 24.8001 134.3 24.7001 134.4L24.6001 134.7L24.9001 134.8C25.0001 134.8 33.9001 136.6 40.9001 132.5C41.6001 132.1 42.3001 131.6 43.0001 131.1C44.3001 132.9 45.3001 134.1 45.9001 134.3C45.9001 134.4 45.9001 134.5 46.0001 134.5C46.1001 134.6 46.2001 134.6 46.3001 134.5C46.3001 134.5 46.9001 134.2 47.9001 134.3C48.5001 134.9 49.4001 135.3 50.2001 135.1H50.3001C51.0001 135.5 51.8001 136.1 52.7001 136.9C52.7001 136.9 52.7001 136.9 52.8001 136.9C52.8001 136.9 52.8001 136.9 52.9001 136.9H53.0001L55.0001 136C55.6001 136.8 56.2001 137.6 56.9001 138.3L42.9001 146.4L43.5001 147.2L42.9001 146.6L52.3001 165.1L51.9001 164.2L52.3001 165C52.6001 165.7 53.2001 166.2 53.9001 166.4C54.6001 166.6 55.4001 166.5 56.0001 166.2L66.1001 160.4L83.7001 132.8L87.4001 131.1C97.4001 129.7 106 126.2 112.9 122.2C126.7 114.2 134.1 104.1 134.2 104L135.6 100.9L137.6 99.7L137.7 99.6C153 81.9 149.3 68.3 147.9 64.7L146.7 62.6Z" fill="#000A19"/>
<path d="M61.5001 69L54.5001 63.7001L22.1001 62.3L11.5001 68.3C10.3001 69 9.90014 70.5001 10.7001 71.7001L22.6001 89.8L40.7001 79.5L48.2001 84.6L52.4001 82" fill="#000C28"/>
<path d="M61.5001 69L54.3001 63.9L54.4001 64L22.0001 62.6H22.1001L14.0001 67.2L12.0001 68.3C11.6001 68.5 11.4001 68.7 11.1001 68.9C10.9001 69.2 10.7001 69.5 10.6001 69.8C10.5001 70.1 10.5001 70.5 10.6001 70.8C10.7001 71.1 10.9001 71.4 11.1001 71.8L12.4001 73.8L22.7001 89.6L22.3001 89.5L40.4001 79.2L40.5001 79.1L40.6001 79.2L48.1001 84.3H47.8001L52.0001 81.7L52.3001 82.2L48.1001 84.8L48.0001 84.9L47.9001 84.8L40.4001 79.7H40.7001L22.7001 90L22.5001 90.1L22.4001 90L12.0001 74.2L10.7001 72.2C10.5001 71.9 10.2001 71.5 10.1001 71.1C10.0001 70.7 10.0001 70.2 10.1001 69.8C10.2001 69.4 10.4001 69 10.7001 68.6C10.8001 68.4 11.0001 68.3 11.2001 68.2C11.4001 68.1 11.6001 68 11.7001 67.9L13.8001 66.7L22.0001 62H22.1001H22.2001L54.6001 63.4H54.7001L54.8001 63.5L61.5001 69Z" fill="#4DA6FF"/>
<path d="M65.5719 128.834C67.6285 127.647 63.3635 116.41 56.0457 103.735C48.728 91.0608 41.1285 81.7488 39.0719 82.9362C37.0153 84.1236 41.2804 95.3608 48.5981 108.035C55.9159 120.71 63.5153 130.022 65.5719 128.834Z" fill="#000C28"/>
<path d="M65.7999 129.2C62.6999 131 53.4999 117.7 48.0999 108.3C42.6999 98.9 35.6999 84.3 38.7999 82.5C41.8999 80.7 51.0999 94 56.4999 103.4C61.8999 112.8 68.8999 127.4 65.7999 129.2ZM39.2999 83.4C37.9999 84.2 41.0999 94 48.9999 107.8C56.8999 121.6 63.8999 129.1 65.2999 128.3C66.5999 127.5 63.4999 117.7 55.5999 103.9C47.6999 90.1 40.6999 82.6 39.2999 83.4Z" fill="#4DA6FF"/>
<path d="M85.9002 118L68.0002 146.1L57.9002 151.9C56.7002 152.6 55.1002 152.1 54.5002 150.8L47.2002 135.1L65.2002 123.4" fill="#000C28"/>
<path d="M68.2001 146.3L58.1001 152.1C57.5001 152.5 56.7001 152.6 56.0001 152.3C55.3001 152.1 54.7001 151.6 54.4001 150.9L46.9001 135L65.1001 123.2L65.4001 123.6L47.6001 135.2L54.8001 150.7C55.1001 151.2 55.5001 151.7 56.1001 151.8C56.7001 152 57.3001 151.9 57.8001 151.6L67.8001 145.8L85.7001 117.8L86.2001 118.1L68.2001 146.3Z" fill="#4DA6FF"/>
<path d="M65.3 123.5L73.6 123.2C74.4 122.2 73.1 117.7 73.1 117.7L76.8001 120.3C77.9001 121.1 79.3001 121.2 80.4001 120.7L89.4001 116.5C119.6 112.3 135.9 89.6999 135.9 89.6999L137.4 86.4999L139.5 85.2999C153.4 68.4999 151 54.3999 149.6 50.8999C149.4 50.2999 149 49.7999 148.6 49.2999C146.1 46.3999 135.4 36.1999 113.8 40.8999L111.7 41.9999L108.3 41.7999C108.3 41.7999 80.9 45.1999 61.8 68.5999L53.6 74.1999C52.6 74.8999 52 76.0999 52.1 77.3999L52.5 81.9999C52.5 81.9999 49.2 78.4999 48 78.7999L43.3 85.2999C43.3 85.2999 49 91.1999 56.1 103.6C63.2 116 65.3 123.5 65.3 123.5Z" fill="#000C28"/>
<path d="M115 108C108.1 112 99.5 115.5 89.5 116.9L80.6 121.1C79.3 121.7 77.7 121.5 76.4 120.6L74 118.9C74.4 120.5 74.7 122.7 74 123.5L73.8 123.7L64.9 124L64.8 123.6C64.8 123.5 62.6 115.9 55.6 103.8C48.6 91.7 42.9 85.7 42.8 85.7L42.5 85.4L47.6 78.4H47.8C48.8 78.2 50.6 79.6 51.8 80.7L51.6 77.6C51.5 76.1 52.2 74.7 53.4 73.9L61.5 68.3C80.5 45 108 41.4 108.3 41.3H108.4L111.7 41.5L113.8 40.3C135.4 35.6 146.3 45.7 149.1 48.9C149.6 49.4 149.9 50 150.2 50.6C150.3 50.8 156.2 65.9 140 85.5L139.9 85.6L137.9 86.8L136.5 89.9C136.2 90 128.8 100.1 115 108ZM72.2 116.3L77.1 119.7C78 120.4 79.2 120.5 80.2 120.1L89.3 115.8C118.3 111.8 134.6 90.3 135.4 89.2L136.9 85.9L139.1 84.6C154.8 65.6 149.1 51 149.1 50.8C148.9 50.3 148.6 49.8 148.2 49.4C145.5 46.4 135 36.7 114 41.3L111.8 42.6L108.3 42.4C107 42.5 80.5 46.4 62.2 68.9L62.1 69L53.9 74.6C53 75.2 52.5 76.3 52.6 77.3L53.1 83.4L52.1 82.3C50.8 80.9 49 79.4 48.3 79.3L44 85.2C45.3 86.6 50.5 92.6 56.6 103.2C62.8 113.9 65.2 121.1 65.7 122.8L73.3 122.5C73.5 121.8 73.2 119.5 72.6 117.6L72.2 116.3Z" fill="#4DA6FF"/>
<path opacity="0.2" d="M124.2 68.5C118.5 73.1 103.6 83.8 82 90.2C86 96.8 89.4 103.8 91.3 111.2C101.1 108.8 118.8 103.2 132.4 91C130.9 83 128.5 75.2 124.2 68.5Z" fill="#4DA6FF"/>
<path opacity="0.2" d="M137.3 86.3L139.4 85.1C153.3 68.3 150.9 54.2 149.5 50.7C149.3 50.1 148.9 49.6 148.5 49.1C146 46.2 135.3 36 113.7 40.7L111.7 42C111.7 42 118 46.4 127.3 62.5C136.6 78.6 137.3 86.3 137.3 86.3Z" fill="#4DA6FF"/>
<path opacity="0.5" d="M111.9 42.5C111.9 42.5 118 46.3 127.3 62.5C136.6 78.6001 137 86 137 86L139.2 84.7001C138 79.6001 135.6 71.9 129.4 61.3C122.7 49.7 117.3 44.3 114 41.3L111.9 42.5Z" fill="#4DA6FF"/>
<path d="M47.9002 78.7999C47.9002 78.7999 52.5002 79.3999 63.7002 98.2999C75.9002 118.8 73.5002 123.1 73.5002 123.1L65.2002 123.4C65.2002 123.4 60.0002 105.8 43.2002 85.1999L47.9002 78.7999Z" fill="#000A19"/>
<path d="M73.9001 123.7L64.9001 124L64.8001 123.6C64.7001 123.4 59.5001 105.9 42.9001 85.5999L42.6001 85.2999L47.7001 78.2H48.0001C48.5001 78.3 53.2001 79.2999 64.2001 98C76.2001 118.2 74.3001 122.9 74.0001 123.4L73.9001 123.7ZM65.7001 122.9L73.2001 122.6C73.4001 121.4 73.5001 115.7 63.4001 98.5999C54.1001 82.8999 49.4001 79.9 48.2001 79.4L44.0001 85.2C52.5001 95.8 58.0001 105.5 61.1001 111.9C63.9001 117.6 65.3001 121.7 65.7001 122.9Z" fill="#4DA6FF"/>
<path d="M53.2002 74.7C53.5002 74.5 53.8002 74.6 54.0002 74.6C54.3002 74.7 54.5002 74.8 54.8002 74.9C55.3002 75.2 55.8002 75.5 56.2002 75.9C57.1002 76.7 57.9002 77.5 58.7002 78.3C60.2002 80 61.7002 81.8 63.0002 83.7C65.7002 87.4 68.2002 91.3 70.5002 95.3C72.8002 99.3 74.9002 103.4 76.8002 107.6C77.7002 109.7 78.6002 111.9 79.3002 114.1C79.7002 115.2 80.0002 116.3 80.2002 117.5C80.3002 118.1 80.4002 118.6 80.4002 119.2C80.4002 119.5 80.4002 119.8 80.3002 120.1C80.2002 120.4 80.1002 120.7 79.8002 120.8C80.1002 120.6 80.2002 120.4 80.2002 120.1C80.3002 119.8 80.3002 119.5 80.3002 119.2C80.3002 118.6 80.2002 118.1 80.1002 117.5C79.8002 116.4 79.5002 115.3 79.1002 114.2C78.3002 112 77.4002 109.9 76.5002 107.8C74.6002 103.6 72.4002 99.6 70.1002 95.6C67.8002 91.6 65.4002 87.7 62.7002 83.9C61.4002 82 60.0002 80.2 58.5002 78.4C57.8002 77.5 57.0002 76.7 56.1002 75.9C55.7002 75.5 55.2002 75.1 54.7002 74.8C54.5002 74.7 54.2002 74.5 53.9002 74.4C53.8002 74.6 53.4002 74.5 53.2002 74.7Z" fill="#4DA6FF"/>
<path d="M52.1001 76.4C53.1001 76.8 54.0001 77.5 54.7001 78.3C55.5001 79.1 56.2001 79.8 56.9001 80.7C58.3001 82.4 59.6001 84.1 60.9001 85.9C63.4001 89.4 65.7001 93.2 67.9001 96.9C70.0001 100.7 72.1001 104.5 73.9001 108.5C74.8001 110.5 75.6001 112.5 76.4001 114.5C76.7001 115.5 77.1001 116.6 77.4001 117.6C77.7001 118.7 77.9001 119.7 77.9001 120.8C77.8001 119.7 77.6001 118.7 77.3001 117.6C77.0001 116.6 76.6001 115.5 76.2001 114.5C75.4001 112.5 74.5001 110.5 73.6001 108.5C72.7001 106.5 71.7001 104.6 70.7001 102.7C69.7001 100.8 68.6001 98.9 67.5001 97C65.3001 93.2 63.1001 89.5 60.6001 86C59.4001 84.2 58.1001 82.5 56.7001 80.8C56.0001 80 55.3001 79.1 54.6001 78.4L54.0001 77.8L53.4001 77.3C53.2001 77.1 53.0001 77 52.8001 76.8C52.6001 76.7 52.4001 76.6 52.1001 76.4Z" fill="#4DA6FF"/>
<path d="M55.2002 73.1999C55.5002 72.9999 55.8002 73.0999 56.1002 73.1999C56.4002 73.2999 56.6002 73.3999 56.9002 73.5999C57.4002 73.8999 57.9002 74.2999 58.3002 74.5999C59.2002 75.3999 60.0002 76.1999 60.8002 77.0999C62.3002 78.7999 63.8002 80.6999 65.1002 82.5999C67.8002 86.3999 70.3002 90.2999 72.6002 94.2999C74.9002 98.2999 77.1002 102.5 79.0002 106.7C79.9002 108.8 80.8002 111 81.6002 113.2C82.0002 114.3 82.3002 115.4 82.5002 116.6C82.6002 117.2 82.7002 117.8 82.7002 118.3C82.7002 118.6 82.7002 118.9 82.6002 119.2C82.5002 119.5 82.4002 119.8 82.1002 119.9C82.4002 119.7 82.5002 119.4 82.5002 119.2C82.6002 118.9 82.6002 118.6 82.5002 118.3C82.5002 117.7 82.4002 117.2 82.2002 116.6C81.9002 115.5 81.6002 114.4 81.2002 113.3C80.4002 111.1 79.5002 109 78.5002 106.9C76.5002 102.7 74.3002 98.5999 72.0002 94.5999C69.7002 90.5999 67.2002 86.5999 64.6002 82.7999C63.3002 80.8999 61.9002 78.9999 60.4002 77.2999C59.7002 76.3999 58.9002 75.5999 58.0002 74.7999C57.6002 74.3999 57.1002 73.9999 56.6002 73.6999C56.4002 73.4999 56.1002 73.3999 55.8002 73.2999C55.8002 73.0999 55.4002 72.9999 55.2002 73.1999Z" fill="#4DA6FF"/>
<path d="M57 71.9C57.3 71.7 57.6 71.8 57.9 71.9C58.2 72 58.4 72.1 58.7 72.3C59.2 72.6 59.7 73 60.1 73.4C61 74.2 61.8 75 62.6 75.9C64.2 77.7 65.6 79.5 67 81.4C69.8 85.2 72.2 89.2 74.6 93.2C76.9 97.3 79.1 101.4 81 105.7C81.9 107.8 82.8 110 83.6 112.2C84 113.3 84.3 114.4 84.5 115.6C84.6 116.2 84.7 116.8 84.7 117.4C84.7 117.7 84.7 118 84.6 118.3C84.5 118.6 84.4 118.9 84.1 119C84.4 118.8 84.5 118.5 84.5 118.3C84.6 118 84.6 117.7 84.5 117.4C84.5 116.8 84.4 116.2 84.2 115.7C83.9 114.6 83.6 113.5 83.2 112.4C82.4 110.2 81.5 108.1 80.5 105.9C78.5 101.7 76.3 97.5 74 93.5C71.7 89.4 69.2 85.5 66.5 81.7C65.2 79.8 63.8 77.9 62.3 76.1C61.5 75.2 60.8 74.3 59.9 73.5C59.5 73.1 59 72.7 58.5 72.4C58.3 72.2 58 72.1 57.7 72C57.6 71.8 57.3 71.7 57 71.9Z" fill="#4DA6FF"/>
<path d="M61.8 68.6C62.1 68.4 62.4001 68.5 62.7001 68.6C63.0001 68.7 63.2 68.8 63.5 69C64 69.3 64.5001 69.7 64.9001 70.1C65.8001 70.9 66.6001 71.8 67.4001 72.7C69.0001 74.5 70.4 76.4 71.8 78.3C73.2 80.2 74.6001 82.2 75.9001 84.2C77.2001 86.2 78.4 88.2 79.6 90.3C82 94.4 84.2 98.6 86.1 103C87.1 105.2 88 107.4 88.7 109.6C89.1 110.7 89.4 111.9 89.6 113C89.7 113.6 89.8001 114.2 89.8001 114.8C89.8001 115.1 89.8 115.4 89.7 115.7C89.6 116 89.5 116.3 89.2 116.4C89.5 116.2 89.6 115.9 89.6 115.6C89.7 115.3 89.6 115 89.6 114.7C89.6 114.1 89.4001 113.5 89.3001 113C89.0001 111.8 88.7 110.7 88.2 109.6C87.4 107.4 86.4001 105.2 85.4001 103C83.4001 98.7 81.2001 94.5 78.8001 90.4C77.6001 88.3 76.4 86.3 75.2 84.3C74 82.3 72.7 80.3 71.3 78.3C69.9 76.4 68.6 74.4 67 72.6C66.2 71.7 65.4 70.8 64.6 70C64.2 69.6 63.7001 69.2 63.2001 68.9C62.9001 68.7 62.7001 68.6 62.4001 68.5C62.4001 68.5 62.1 68.4 61.8 68.6Z" fill="#4DA6FF"/>
<path d="M108.3 41.8C109.4 42.2 110.3 43 111.1 43.8C111.9 44.6 112.8 45.5 113.5 46.3C115 48.1 116.5 49.9 117.8 51.8C120.5 55.6 123 59.6 125.4 63.6C127.8 67.6 130 71.8 131.8 76.1C132.7 78.3 133.6 80.4001 134.3 82.7001C134.6 83.8 135 84.9 135.2 86.1C135.5 87.2 135.7 88.4 135.8 89.6C135.6 88.4 135.4 87.3 135.1 86.2001C134.8 85.1001 134.4 84 134.1 82.9001C133.4 80.7001 132.5 78.5 131.5 76.4001C129.6 72.1001 127.4 68 125 64C122.6 60 120.2 56 117.5 52.2C116.2 50.3 114.8 48.4 113.3 46.6C112.6 45.7 111.8 44.8 111 44L110.4 43.4C110.2 43.2 110 43 109.7 42.8C109.3 42.3 108.8 42 108.3 41.8Z" fill="#4DA6FF"/>
<path d="M134.5 43.3C136.3 45 137.9 47 139.4 49C140.9 51 142.3 53.1 143.5 55.3C144.7 57.5 145.8 59.8 146.7 62.1C147.6 64.5 148.4 66.8 149 69.3L147.9 69.5C147.5 67.1 146.7 64.7 145.9 62.4C145.1 60.1 144.1 57.8 142.9 55.6C140.7 51.2 137.9 47 134.5 43.3Z" fill="#4DA6FF"/>
<path d="M130 57.4C131.4 59.2 132.7 61.2 133.8 63.2C134.9 65.2 136 67.3 137 69.3C138 71.4 138.9 73.5 139.8 75.6C140.2 76.7 140.7 77.7 141.1 78.8C141.3 79.3 141.5 79.9 141.7 80.5C141.8 80.8 141.9 81.1 141.9 81.4C141.9 81.5 142 81.7 142 81.8C142 81.9 142 82 142 82C142 82.1 142 82.1 142 82.3L140.9 82.2V82.1C140.9 82 140.9 82 140.9 81.9C140.9 81.8 140.9 81.6 140.8 81.5C140.7 81.2 140.7 81 140.6 80.7C140.5 80.2 140.3 79.6 140.1 79.1C139.8 78 139.4 76.9 139 75.8C138.2 73.6 137.4 71.5 136.5 69.4C135.6 67.3 134.6 65.2 133.5 63.2C132.5 61.3 131.3 59.3 130 57.4Z" fill="#4DA6FF"/>
<path d="M132.8 56.4C134.1 58 135.2 59.8 136.3 61.6C137.4 63.4 138.4 65.3 139.3 67.2C140.2 69.1 141.1 71 141.9 72.9C142.7 74.8 143.6 76.8 144.3 78.8L143.3 79.1C142.7 77.1 142 75.1 141.3 73.2C140.6 71.2 139.8 69.3 139 67.4C138.2 65.5 137.2 63.6 136.2 61.8C135.1 59.9 134.1 58.1 132.8 56.4Z" fill="#4DA6FF"/>
<path d="M136.5 56.3C137.6 57.7 138.5 59.2 139.4 60.8C140.3 62.3 141.1 63.9 141.9 65.5C142.7 67.1 143.4 68.7 144.1 70.4L146.2 75.3L145.2 75.7001C144.7 74 144.2 72.3001 143.6 70.6C143 68.9001 142.3 67.3001 141.6 65.7001C140.9 64.1001 140.1 62.5 139.3 60.9C138.4 59.3 137.5 57.7 136.5 56.3Z" fill="#4DA6FF"/>
<path d="M139.6 55.9C140.5 57.1 141.3 58.5 142 59.8C142.7 61.1 143.4 62.5 144.1 63.9C144.7 65.3 145.4 66.7 145.9 68.1C146.2 68.8 146.5 69.5 146.7 70.2C146.8 70.6 147 70.9 147.2 71.2L147.7 72.2L146.7 72.5L146.5 71.4C146.4 71 146.4 70.6 146.2 70.3C145.9 69.6 145.7 68.9 145.4 68.1C144.9 66.7 144.3 65.3 143.7 63.9C143.1 62.5 142.5 61.1 141.8 59.8C141.2 58.5 140.5 57.2 139.6 55.9Z" fill="#4DA6FF"/>
<path d="M98.7619 70.3773C105.816 69.9065 111.194 64.4321 110.775 58.1499C110.355 51.8677 104.297 47.1566 97.2435 47.6274C90.1898 48.0982 84.8116 53.5726 85.2309 59.8548C85.6502 66.137 91.7082 70.8481 98.7619 70.3773Z" fill="#4DA6FF"/>
<path d="M48.2001 120.2C47.6001 120.6 44.9001 117.1 42.2001 112.5C39.5001 107.9 37.6001 103.4 38.3001 103C38.9001 102.6 41.9001 106.5 44.6001 111.1C47.2001 115.8 48.8001 119.8 48.2001 120.2Z" fill="#4DA6FF"/>
<path d="M98.9359 67.5485C105.583 66.8615 110.507 61.8067 109.934 56.2582C109.36 50.7097 103.507 46.7686 96.8594 47.4556C90.2121 48.1426 85.2883 53.1974 85.8618 58.7459C86.4352 64.2944 92.2887 68.2355 98.9359 67.5485Z" fill="#000C28"/>
<path d="M102.8 67.7C99.8001 68.8 96.6001 68.9 93.6001 68C92.1001 67.6 90.7001 66.8 89.5001 65.9C88.3001 65 87.2001 63.8 86.5001 62.4C85.8001 61 85.4001 59.5 85.5001 58C85.5001 56.5 86.0001 55 86.7001 53.7C88.2001 51.1 90.7001 49.3 93.4001 48.3C96.1001 47.3 99.2001 47.1 102 47.8C103.4 48.1 104.8 48.7 106.1 49.5C107.4 50.3 108.5 51.4 109.3 52.7C110.1 54 110.7 55.5 110.7 57.1C110.8 58.7 110.4 60.3 109.7 61.7C109 63.1 108 64.4 106.8 65.4C105.7 66.4 104.3 67.2 102.8 67.7ZM102.1 65.7C104.6 64.8 106.9 63.1 108.2 60.8C109.6 58.5 109.7 55.6 108.5 53.1C107.9 51.9 107 50.8 105.8 49.9C104.7 49 103.4 48.4 102 48C99.2001 47.2 96.2001 47.3 93.4001 48.2C92.0001 48.7 90.7001 49.4 89.6001 50.4C88.5001 51.3 87.6001 52.5 86.9001 53.8C86.3001 55.1 86.0001 56.5 86.0001 57.9C86.1001 59.3 86.5001 60.6 87.3001 61.8C88.8001 64.1 91.3001 65.6 94.0001 66.2C96.7001 66.9 99.5001 66.6 102.1 65.7Z" fill="#000C28"/>
<path d="M102.2 65.6C99.6 66.5 96.8 66.6 94.1 66C91.5 65.3 89 63.8 87.6 61.4C86.9 60.2 86.5 58.9 86.5 57.5C86.5 56.1 86.9 54.8 87.6 53.7C89 51.4 91.3 49.8 93.7 48.9C96.2 48 98.9 47.8 101.5 48.4C102.8 48.7 104.1 49.1 105.2 49.8C106.3 50.5 107.4 51.4 108.1 52.6C108.8 53.7 109.3 55.1 109.3 56.5C109.4 57.9 109 59.3 108.3 60.5C107.6 61.7 106.7 62.8 105.6 63.6C104.7 64.5 103.5 65.2 102.2 65.6ZM101.8 64.6C104.2 63.8 106.4 62.2 107.7 60.1C108.3 59 108.7 57.8 108.7 56.6C108.7 55.4 108.4 54.1 107.7 53C106.4 50.8 104 49.3 101.5 48.7C99 48 96.3 48.1 93.8 49C92.6 49.5 91.4 50.1 90.3 50.9C89.3 51.7 88.4 52.7 87.7 53.9C87.1 55 86.7 56.3 86.8 57.6C86.8 58.9 87.3 60.1 88 61.2C89.4 63.3 91.8 64.6 94.3 65.2C96.8 65.7 99.4 65.5 101.8 64.6Z" fill="#4DA6FF"/>
<path d="M91.1001 54.5C91.7001 53.5 92.6001 52.6 93.6001 52C94.6001 51.4 95.8001 51 97.0001 50.8C99.4001 50.4 101.9 50.9 103.9 52.4C104.9 53.1 105.6 54.2 106.1 55.3C106.5 56.4 106.6 57.7 106.2 58.9C105.8 60.1 105.2 61.1 104.3 61.9C103.4 62.7 102.3 63.3 101.2 63.6C102.3 63.1 103.3 62.5 104.1 61.7C104.9 60.9 105.5 59.9 105.8 58.8C106.1 57.7 106 56.5 105.6 55.5C105.2 54.5 104.5 53.5 103.6 52.9C102.7 52.2 101.6 51.7 100.5 51.5C99.3001 51 98.1001 51 97.0001 51.1C94.7001 51.4 92.5001 52.5 91.1001 54.5Z" fill="#4DA6FF"/>
<path d="M42.5002 92.8L39.5002 95.9001C39.5002 95.9001 42.6002 96.7 48.8002 107.5C48.8002 107.5 55.5002 118.6 55.0002 122.8L58.8002 121.1C58.8002 121.1 57.8002 115.3 52.3002 105.7C46.8002 96.1 42.5002 92.8 42.5002 92.8Z" fill="#000A19"/>
<path d="M59.0002 121.3L55.1002 123C55.0002 123 54.9002 123 54.8002 123C54.7002 122.9 54.7002 122.9 54.7002 122.8C55.1002 118.7 48.6002 107.8 48.5002 107.7C42.4002 97.1 39.4002 96.2 39.4002 96.2C39.3002 96.2 39.2002 96.1 39.2002 96C39.2002 95.9 39.2002 95.8 39.3002 95.7L42.3002 92.6C42.4002 92.5 42.5002 92.5 42.7002 92.6C42.9002 92.7 47.0002 96 52.6002 105.6C58.1002 115.2 59.2002 121 59.2002 121.1C59.1002 121.1 59.1002 121.2 59.0002 121.3ZM55.3002 122.3L58.5002 120.9C58.3002 119.8 56.9002 114.3 52.0002 105.8C47.2002 97.4 43.3002 93.9 42.5002 93.2L40.0002 95.8C41.0002 96.4 44.0002 98.6 49.1002 107.3C49.3002 107.7 55.3002 117.8 55.3002 122.3Z" fill="#4DA6FF"/>
<path d="M48.2001 120.2C48.2001 120.2 51 118.8 55 122.7C55 122.7 55.2001 118.6 49.2001 108.1C43.2001 97.5999 39.5 95.7999 39.5 95.7999C40.9 101.3 38.3 103 38.3 103C38.3 103 40.5 104 44.6 111.1C48.7 118.2 48.2001 120.2 48.2001 120.2Z" fill="#000A19"/>
<path d="M55.2001 123C55.1001 123.1 55.0001 123 54.9001 123C51.0001 119.3 48.4001 120.5 48.4001 120.5C48.3001 120.5 48.2001 120.5 48.1001 120.5C48.0001 120.4 48.0001 120.3 48.0001 120.2C48.0001 120.2 48.3001 118.2 44.4001 111.4C40.4001 104.5 38.3001 103.4 38.2001 103.4C38.1001 103.4 38.1001 103.3 38.1001 103.2C38.1001 103.1 38.1001 103 38.2001 103C38.2001 103 40.6001 101.3 39.3001 96.1C39.3001 96 39.3001 95.9 39.4001 95.8C39.5001 95.7 39.6001 95.7 39.7001 95.8C39.9001 95.9 43.5001 97.8 49.5001 108.2C55.5001 118.6 55.4001 122.8 55.3001 122.9C55.3001 122.9 55.2001 122.9 55.2001 123ZM48.5001 119.8C49.4001 119.6 51.7001 119.3 54.7001 122.1C54.5001 120.6 53.6001 116.3 49.0001 108.3C44.4001 100.3 41.1001 97.4 39.9001 96.4C40.7001 100.5 39.4001 102.3 38.7001 103C39.5001 103.6 41.5001 105.4 44.8001 111C47.9001 116.4 48.4001 118.9 48.5001 119.8Z" fill="#4DA6FF"/>
<path d="M46.5002 115.3C39.5002 123.1 27.0002 120.5 27.0002 120.5C27.0002 120.5 31.0002 108.4 41.2002 106.2C41.2002 106.2 43.0002 108.4 44.5002 111.2C46.0002 114 46.5002 115.3 46.5002 115.3Z" fill="#000C28"/>
<path d="M43.0002 118.4C36.0002 122.5 27.1002 120.7 27.0002 120.7L26.7002 120.6L26.8002 120.3C26.8002 120.2 31.0002 108.1 41.2002 105.9H41.4002L41.5002 106C41.5002 106 43.3002 108.2 44.8002 111C46.3002 113.8 46.8002 115.1 46.8002 115.1L46.9002 115.3L46.8002 115.4C45.6002 116.7 44.3002 117.7 43.0002 118.4ZM27.4002 120.3C29.3002 120.6 39.9002 122 46.2002 115.3C46.0002 114.9 45.5002 113.6 44.3002 111.4C43.1002 109 41.6002 107.1 41.2002 106.6C32.2002 108.5 28.1002 118.4 27.4002 120.3Z" fill="#4DA6FF"/>
<path d="M45.1001 112.2C41.1001 116.4 34.1001 116.4 34.1001 116.4C34.1001 116.4 37.8001 110.2 43.2001 109C43.2001 109 43.8001 109.8 44.4001 110.8C45.0001 111.8 45.1001 112.2 45.1001 112.2Z" fill="#4DA6FF"/>
<path d="M53.0001 86.3L48.2001 91.3L47.9001 90.9001L53.0001 86.3Z" fill="#4DA6FF"/>
<path d="M51.9001 96.8L57.4001 92.9L52.2001 97.2L51.9001 96.8Z" fill="#4DA6FF"/>
<path d="M55.9001 103.4L62.2001 100.2L56.2001 103.9L55.9001 103.4Z" fill="#4DA6FF"/>
<path d="M62.6001 116.8L70.0001 115.5L62.8001 117.4L62.6001 116.8Z" fill="#4DA6FF"/>
<path d="M49.1 82L44.9 87.1L44.5 86.8L49.1 82Z" fill="#4DA6FF"/>
<path d="M22.6001 89.8L24.1001 91.2L42.3001 80.9L40.7001 79.5L22.6001 89.8Z" fill="#000C28"/>
<path d="M42.7001 81L24.1001 91.5L22.1001 89.7L40.7001 79.1L42.7001 81ZM24.2001 90.9L41.9001 80.9L40.7001 79.9L23.0001 89.9L24.2001 90.9Z" fill="#4DA6FF"/>
<path d="M64.6001 121.2L71.5001 120.7L64.7001 121.7L64.6001 121.2Z" fill="#4DA6FF"/>
<path d="M59.5999 124.4L45.3999 132.6L47.2999 135.1L61.1999 126L59.5999 124.4Z" fill="#000C28"/>
<path d="M47.2 135.5L45 132.5L59.7 124L61.6 126L47.2 135.5ZM45.8 132.7L47.3 134.7L60.7 125.9L59.5 124.7L45.8 132.7Z" fill="#4DA6FF"/>
<path d="M58.8002 151.3L52.7002 137.8L59.3002 151L58.8002 151.3Z" fill="#4DA6FF"/>
<path d="M13.4001 66.9L23.6001 83.2L12.9001 67.2L13.4001 66.9Z" fill="#4DA6FF"/>
<path d="M149.9 61C149.9 60.7001 149.1 56.6 146.2 51.5C143.2 46.3 139.7 43.3 139.7 43.3C143.2 44.8 146 46.5 147.6 48.6L154.7 45.9L149.1 50.6C151.6 55.5 150 60.7001 149.9 61Z" fill="#4DA6FF"/>
<path d="M80.7002 97.6L62.6002 110.6L49.0002 118.1L47.3002 115.7C46.6002 114.8 46.9002 113.5 47.9002 112.9L81.6002 94.3" fill="#000C28"/>
<path d="M80.7001 97.6L76.2001 101L71.7001 104.3C68.7001 106.5 65.7001 108.7 62.7001 110.9L55.9001 114.7L49.1001 118.4L48.9001 118.5L48.7001 118.3L47.1001 116C46.8001 115.6 46.6001 115.1 46.6001 114.5C46.6001 114 46.9001 113.5 47.2001 113.1C47.4001 112.9 47.6001 112.8 47.8001 112.6L48.4001 112.3L49.6001 111.6L52.1001 110.3L62.0001 105L71.8001 99.7L81.6001 94.4L71.9001 99.9L62.2001 105.3L52.5001 110.7L50.0001 112.1L48.8001 112.8L48.2001 113.1C48.0001 113.2 47.8001 113.3 47.7001 113.5C47.1001 114.1 47.1001 115.1 47.6001 115.7L49.2001 118L48.8001 117.9L55.6001 114.1L62.4001 110.4C65.4001 108.2 68.5001 106.1 71.5001 104L76.1001 100.8L80.7001 97.6Z" fill="#4DA6FF"/>
<path d="M83.1 96.9L81.5 99L64.2 113.6L53.2 120.5C52 121.2 50.5 120.8 49.8 119.7L49 118.1L62.6 110.6L80.7 97.6" fill="#000C28"/>
<path d="M83.3001 97.1L81.7001 99.2L73.0001 106.6L64.4001 113.9L56.5001 118.8L54.5001 120L53.5001 120.6C53.2001 120.8 52.7001 121 52.3001 121.1C51.4001 121.2 50.5001 120.9 50.0001 120.3C49.9001 120.1 49.7001 120 49.6001 119.8L49.3001 119.3L48.7001 118.3L48.6001 118L48.8001 117.9L62.5001 110.5L71.6001 104L80.7001 97.6L71.7001 104.2L62.7001 110.8L49.1001 118.3L49.2001 117.9L49.8001 118.9L50.1001 119.4C50.2001 119.6 50.3001 119.7 50.4001 119.8C50.9001 120.3 51.6001 120.6 52.3001 120.5C52.6001 120.5 52.9001 120.3 53.3001 120.1L54.3001 119.5L56.3001 118.3L64.2001 113.3L72.8001 106L81.4001 98.7L83.0001 96.6L83.3001 97.1Z" fill="#4DA6FF"/>
<path d="M45 132.7L54.4 151.1L47.3 135.1L45 132.7Z" fill="#4DA6FF"/>
</g>
<defs>
<clipPath id="clip0_146_5148">
<rect width="146.7" height="127.5" fill="white" transform="translate(8 39)"/>
</clipPath>
</defs>
</svg>
