<svg width="32" height="32" viewBox="0 0 32 32" fill="none" xmlns="http://www.w3.org/2000/svg">
<g clip-path="url(#clip0_1870_2710)">
<path d="M15.9995 32C7.19951 32 -0.000488281 24.8 -0.000488281 16C-0.000488281 7.2 7.19951 0 15.9995 0C24.7995 0 31.9995 7.2 31.9995 16C31.9995 24.8 24.7995 32 15.9995 32Z" fill="#F0B90B"/>
<path d="M8.79971 11.8L10.8997 10.5L8.79971 9.30005L6.69971 10.5V13L8.79971 14.2V11.8Z" fill="white"/>
<path d="M8.79971 16L6.69971 14.8V21.5L12.3997 24.8V22.3L8.79971 20.2V16Z" fill="white"/>
<path d="M13.8999 10.5L15.9999 11.8L18.0999 10.5L15.9999 9.30005L13.8999 10.5Z" fill="white"/>
<path d="M23.1996 11.8V14.2L25.2996 13V10.5L23.1996 9.30005L21.0996 10.5L23.1996 11.8Z" fill="white"/>
<path d="M13.8999 23.2002V25.7002L15.9999 26.9002L18.0999 25.7002V23.2002L15.9999 24.5002L13.8999 23.2002Z" fill="white"/>
<path d="M10.2998 19.4001L12.3998 20.6001V18.1001L10.2998 16.9001V19.4001Z" fill="white"/>
<path d="M23.1996 16V20.2L19.5996 22.3V24.8L25.2996 21.5V14.8L23.1996 16Z" fill="white"/>
<path d="M21.6996 16.9001L19.5996 18.1001V20.6001L21.6996 19.4001V16.9001Z" fill="white"/>
<path d="M21.6998 12.6001L19.5998 11.4001L15.9998 13.5001L12.3998 11.4001L10.2998 12.6001V15.1001L13.8998 17.2001V21.5001L15.9998 22.7001L18.0998 21.5001V17.2001L21.6998 15.1001V12.6001Z" fill="white"/>
<path d="M15.9998 7.5001L19.5998 9.7001L21.6998 8.4001L15.9998 5.1001L10.2998 8.4001L12.3998 9.7001L15.9998 7.5001Z" fill="white"/>
</g>
<defs>
<clipPath id="clip0_1870_2710">
<rect width="32" height="32" fill="white" transform="translate(-0.000488281)"/>
</clipPath>
</defs>
</svg>
