<svg width="24" height="24" viewBox="0 0 24 24" fill="none" xmlns="http://www.w3.org/2000/svg">
<rect x="0.5" y="0.5" width="23" height="23" rx="3.5" fill="#00D7FB" stroke="#300A6E"/>
<path d="M24 3.75999V7.51999H23.24C22.84 7.51999 22.48 7.19999 22.48 6.75999C22.48 6.35999 22.16 5.99999 21.72 5.99999H20.24C19.84 5.99999 19.48 6.31999 19.48 6.75999C19.48 7.15999 19.16 7.51999 18.72 7.51999H17.24C16.84 7.51999 16.48 7.19999 16.48 6.75999C16.48 6.35999 16.16 5.99999 15.72 5.99999H14.24C13.84 5.99999 13.48 6.31999 13.48 6.75999C13.48 7.15999 13.16 7.51999 12.72 7.51999H11.24C10.84 7.51999 10.48 7.19999 10.48 6.75999C10.48 6.35999 10.16 5.99999 9.72 5.99999H8.24C7.84 5.99999 7.48 6.31999 7.48 6.75999C7.48 7.15999 7.16 7.51999 6.72 7.51999H5.24C4.84 7.51999 4.48 7.19999 4.48 6.75999C4.48 6.35999 4.16 5.99999 3.72 5.99999H2.24C1.84 5.99999 1.48 6.31999 1.48 6.75999C1.48 7.15999 1.16 7.51999 0.72 7.51999H0V3.75999C0 1.67999 1.68 -1.09673e-05 3.76 -1.09673e-05H20.24C22.32 -1.09673e-05 24 1.67999 24 3.75999Z" fill="#300A6E"/>
<path d="M7.25 12.9986H5.75C5.3375 12.9986 5 12.6611 5 12.2486V10.7486C5 10.3361 5.3375 9.9986 5.75 9.9986H7.25C7.6625 9.9986 8 10.3361 8 10.7486V12.2486C8 12.6611 7.6625 12.9986 7.25 12.9986Z" fill="#300A6E"/>
<path d="M12.7209 12.9986H11.2209C10.8084 12.9986 10.4709 12.6611 10.4709 12.2486V10.7486C10.4709 10.3361 10.8084 9.9986 11.2209 9.9986H12.7209C13.1334 9.9986 13.4709 10.3361 13.4709 10.7486V12.2486C13.4709 12.6611 13.1334 12.9986 12.7209 12.9986Z" fill="#300A6E"/>
<path d="M18.7209 12.9986H17.2209C16.8084 12.9986 16.4709 12.6611 16.4709 12.2486V10.7486C16.4709 10.3361 16.8084 9.9986 17.2209 9.9986H18.7209C19.1334 9.9986 19.4709 10.3361 19.4709 10.7486V12.2486C19.4709 12.6611 19.1334 12.9986 18.7209 12.9986Z" fill="#300A6E"/>
<path d="M7.25 18.9986H5.75C5.3375 18.9986 5 18.6611 5 18.2486V16.7486C5 16.3361 5.3375 15.9986 5.75 15.9986H7.25C7.6625 15.9986 8 16.3361 8 16.7486V18.2486C8 18.6611 7.6625 18.9986 7.25 18.9986Z" fill="#300A6E"/>
<path d="M12.7209 18.9986H11.2209C10.8084 18.9986 10.4709 18.6611 10.4709 18.2486V16.7486C10.4709 16.3361 10.8084 15.9986 11.2209 15.9986H12.7209C13.1334 15.9986 13.4709 16.3361 13.4709 16.7486V18.2486C13.4709 18.6611 13.1334 18.9986 12.7209 18.9986Z" fill="#300A6E"/>
<path d="M18.7209 18.9986H17.2209C16.8084 18.9986 16.4709 18.6611 16.4709 18.2486V16.7486C16.4709 16.3361 16.8084 15.9986 17.2209 15.9986H18.7209C19.1334 15.9986 19.4709 16.3361 19.4709 16.7486V18.2486C19.4709 18.6611 19.1334 18.9986 18.7209 18.9986Z" fill="#300A6E"/>
</svg>
