<svg width="32" height="32" viewBox="0 0 32 32" fill="none" xmlns="http://www.w3.org/2000/svg">
<g clip-path="url(#clip0_1870_2735)">
<path d="M15.9995 32C7.19951 32 -0.000488281 24.8 -0.000488281 16C-0.000488281 7.2 7.19951 0 15.9995 0C24.7995 0 31.9995 7.2 31.9995 16C31.9995 24.8 24.7995 32 15.9995 32Z" fill="white"/>
<path d="M10.5994 15.8999C10.4994 16.7999 11.1994 17.5999 12.0994 17.5999H12.1994C13.0994 17.5999 13.7994 16.8999 13.7994 15.9999C13.7994 15.0999 13.0994 14.3999 12.1994 14.3999C11.2994 14.3999 10.5994 15.0999 10.5994 15.8999Z" fill="#0033AD"/>
<path d="M4.59951 15.5C4.29951 15.5 3.99951 15.7 3.99951 16C3.99951 16.3 4.19951 16.5 4.49951 16.6C4.79951 16.6 4.99951 16.4 5.09951 16.1C5.19951 15.8 4.79951 15.5 4.59951 15.5Z" fill="#0033AD"/>
<path d="M10.4994 6.4999C10.7994 6.3999 10.8994 6.0999 10.6994 5.7999C10.5994 5.4999 10.2994 5.3999 9.99936 5.5999C9.69936 5.6999 9.59936 5.9999 9.79936 6.2999C9.89936 6.5999 10.1994 6.6999 10.4994 6.4999Z" fill="#0033AD"/>
<path d="M12.0994 9.39999C12.4994 9.19999 12.6994 8.69999 12.4994 8.29999C12.2994 7.89999 11.7994 7.69999 11.3994 7.89999C10.9994 8.19999 10.7994 8.59999 10.9994 8.99999C11.1994 9.39999 11.6994 9.59999 12.0994 9.39999Z" fill="#0033AD"/>
<path d="M6.59946 11.3999C6.89946 11.5999 7.29946 11.4999 7.49946 11.1999C7.69946 10.8999 7.59946 10.4999 7.29946 10.2999C6.99946 10.0999 6.59946 10.1999 6.39946 10.4999C6.19946 10.6999 6.29946 11.1999 6.59946 11.3999Z" fill="#0033AD"/>
<path d="M7.59971 15.2C7.19971 15.2 6.79971 15.5 6.69971 16C6.69971 16.4 6.99971 16.8 7.49971 16.9C7.89971 16.9 8.29971 16.6 8.39971 16.1C8.39971 15.6 7.99971 15.2 7.59971 15.2Z" fill="#0033AD"/>
<path d="M6.69935 20.6C6.39935 20.8 6.19935 21.2 6.39935 21.5C6.59935 21.9 6.99935 22 7.29935 21.8C7.59935 21.6 7.79935 21.2 7.59935 20.9C7.39935 20.6 6.99935 20.5 6.69935 20.6Z" fill="#0033AD"/>
<path d="M9.79941 13.5C10.1994 13.8 10.7994 13.7 11.0994 13.2C11.3994 12.8 11.2994 12.2 10.7994 11.9C10.3994 11.6 9.79941 11.7 9.49941 12.2C9.29941 12.7 9.39941 13.3 9.79941 13.5Z" fill="#0033AD"/>
<path d="M19.7997 9.2998C20.1997 9.4998 20.6997 9.3998 20.8997 9.0998C21.0997 8.6998 20.9997 8.1998 20.6997 7.9998C20.2997 7.7998 19.7997 7.8998 19.5997 8.1998C19.2997 8.5998 19.3997 9.0998 19.7997 9.2998Z" fill="#0033AD"/>
<path d="M21.3994 6.49987C21.5994 6.69987 21.9994 6.59987 22.0994 6.29987C22.1994 5.99987 22.1994 5.69987 21.8994 5.59987C21.5994 5.49987 21.2994 5.49987 21.1994 5.69987C21.0994 5.99987 21.1994 6.29987 21.3994 6.49987Z" fill="#0033AD"/>
<path d="M19.8995 14.3999C18.9995 14.2999 18.1995 14.9999 18.1995 15.8999C18.0995 16.7999 18.7995 17.5999 19.6995 17.5999H19.7995C20.6995 17.5999 21.3995 16.8999 21.3995 15.9999C21.3995 15.0999 20.7995 14.3999 19.8995 14.3999Z" fill="#0033AD"/>
<path d="M12.5995 13.3999C12.8995 13.8999 13.3995 14.2999 13.9995 14.2999C14.8995 14.2999 15.5995 13.5999 15.5995 12.6999C15.5995 12.4999 15.4995 12.1999 15.3995 11.9999C14.9995 11.1999 13.9995 10.8999 13.1995 11.2999C12.5995 11.6999 12.1995 12.5999 12.5995 13.3999Z" fill="#0033AD"/>
<path d="M25.2994 11.3999C25.5994 11.1999 25.7994 10.7999 25.5994 10.4999C25.3994 10.1999 24.9994 9.99989 24.6994 10.1999C24.3994 10.3999 24.1994 10.7999 24.3994 11.0999C24.5994 11.3999 24.9994 11.4999 25.2994 11.3999Z" fill="#0033AD"/>
<path d="M21.1996 11.9C20.6996 12.1 20.4996 12.7 20.7996 13.2C20.9996 13.7 21.5996 13.9 22.0996 13.6C22.5996 13.4 22.7996 12.8 22.4996 12.3C22.2996 11.8 21.6996 11.6 21.1996 11.9Z" fill="#0033AD"/>
<path d="M15.8993 6.1999C16.2993 6.1999 16.5993 5.8999 16.5993 5.5999C16.5993 5.1999 16.2993 4.8999 15.9993 4.8999C15.5993 4.8999 15.2993 5.1999 15.2993 5.4999C15.2993 5.8999 15.5993 6.1999 15.8993 6.1999Z" fill="#0033AD"/>
<path d="M15.8995 10.4C16.3995 10.4 16.8995 10 16.8995 9.5C16.8995 9 16.4995 8.5 15.9995 8.5C15.4995 8.5 14.9995 8.9 14.9995 9.4C14.9995 9.9 15.3995 10.4 15.8995 10.4Z" fill="#0033AD"/>
<path d="M10.7994 20.1C11.2994 19.9 11.4994 19.3 11.1994 18.8C10.9994 18.3 10.3994 18.1 9.89935 18.4C9.39935 18.6 9.19935 19.2 9.49935 19.7C9.69935 20.2 10.2994 20.4 10.7994 20.1Z" fill="#0033AD"/>
<path d="M16.4996 11.8C15.9996 12.5 16.1996 13.5 16.9996 14C17.6996 14.5 18.6996 14.3 19.1996 13.5C19.6996 12.8 19.4996 11.8 18.6996 11.3C18.3996 11.1 18.0996 11 17.7996 11C17.3996 11.1 16.7996 11.4 16.4996 11.8Z" fill="#0033AD"/>
<path d="M19.3996 18.5998C18.9996 17.7998 17.9996 17.4998 17.1996 17.8998C16.3996 18.2998 16.0996 19.2998 16.4996 20.0998C16.8996 20.8998 17.8996 21.1998 18.6996 20.7998C19.3996 20.2998 19.7996 19.3998 19.3996 18.5998Z" fill="#0033AD"/>
<path d="M22.1997 18.4998C21.7997 18.1998 21.1997 18.2998 20.8997 18.7998C20.5997 19.1998 20.6997 19.7998 21.1997 20.0998C21.5997 20.3998 22.1997 20.2998 22.4997 19.7998C22.6997 19.2998 22.5997 18.6998 22.1997 18.4998Z" fill="#0033AD"/>
<path d="M25.2996 15.9999C25.2996 15.5999 24.9996 15.1999 24.4996 15.0999C24.0996 15.0999 23.6996 15.3999 23.5996 15.8999C23.5996 16.2999 23.8996 16.6999 24.3996 16.7999C24.8996 16.7999 25.1996 16.4999 25.2996 15.9999Z" fill="#0033AD"/>
<path d="M27.4994 15.5C27.1994 15.5 26.9994 15.7 26.8994 16C26.8994 16.3 27.0994 16.5 27.3994 16.6C27.6994 16.6 27.8994 16.4 27.9994 16.1C27.9994 15.7 27.7994 15.5 27.4994 15.5Z" fill="#0033AD"/>
<path d="M25.3996 20.5999C25.0996 20.3999 24.6996 20.4999 24.4996 20.7999C24.2996 21.0999 24.3996 21.4999 24.6996 21.6999C24.9996 21.8999 25.3996 21.7999 25.5996 21.4999C25.7996 21.2999 25.6996 20.7999 25.3996 20.5999Z" fill="#0033AD"/>
<path d="M10.5995 25.4999C10.3995 25.2999 9.99954 25.3999 9.89954 25.5999C9.69954 25.7999 9.79954 26.1999 9.99954 26.2999C10.1995 26.4999 10.5995 26.3999 10.6995 26.1999C10.8995 25.9999 10.7995 25.6999 10.5995 25.4999Z" fill="#0033AD"/>
<path d="M21.4994 25.4998C21.1994 25.5998 21.0994 25.8998 21.2994 26.1998C21.3994 26.4998 21.6994 26.5998 21.9994 26.3998C22.2994 26.1998 22.3994 25.9998 22.1994 25.6998C22.0994 25.3998 21.7994 25.2998 21.4994 25.4998Z" fill="#0033AD"/>
<path d="M15.4995 20.1999C15.9995 19.4999 15.7995 18.4999 14.9995 17.9999C14.2995 17.4999 13.2995 17.6999 12.7995 18.4999C12.2995 19.2999 12.4995 20.1999 13.2995 20.6999C13.5995 20.8999 13.8995 20.9999 14.1995 20.9999C14.5995 20.8999 15.1995 20.5999 15.4995 20.1999Z" fill="#0033AD"/>
<path d="M12.1997 22.7C11.7997 22.5 11.2997 22.6 11.0997 22.9C10.8997 23.3 10.9997 23.8 11.2997 24C11.6997 24.2 12.1997 24.1 12.3997 23.8C12.6997 23.4 12.5997 22.9 12.1997 22.7Z" fill="#0033AD"/>
<path d="M15.9993 25.7998C15.5993 25.7998 15.2993 26.0998 15.2993 26.3998C15.2993 26.7998 15.5993 27.0998 15.8993 27.0998C16.2993 27.0998 16.5993 26.7998 16.5993 26.4998C16.5993 26.0998 16.3993 25.7998 15.9993 25.7998Z" fill="#0033AD"/>
<path d="M15.9995 21.5999C15.4995 21.5999 14.9995 21.9999 14.9995 22.4999C14.9995 22.9999 15.3995 23.4999 15.8995 23.4999C16.3995 23.4999 16.8995 23.0999 16.8995 22.5999C16.8995 22.0999 16.4995 21.5999 15.9995 21.5999Z" fill="#0033AD"/>
<path d="M19.8994 22.5999C19.4994 22.7999 19.2994 23.2999 19.4994 23.6999C19.6994 24.0999 20.1994 24.2999 20.5994 24.0999C20.9994 23.8999 21.1994 23.3999 20.9994 22.9999C20.7994 22.5999 20.2994 22.3999 19.8994 22.5999Z" fill="#0033AD"/>
</g>
<defs>
<clipPath id="clip0_1870_2735">
<rect width="32" height="32" fill="white" transform="translate(-0.000488281)"/>
</clipPath>
</defs>
</svg>
