<svg width="293" height="293" viewBox="0 0 293 293" fill="none" xmlns="http://www.w3.org/2000/svg">
<path d="M280.663 125.339L290.571 123.845" stroke="#274F8A" stroke-miterlimit="10"/>
<path d="M2.8999 169.379L12.8088 167.806" stroke="#274F8A" stroke-miterlimit="10"/>
<path d="M242.6 50.7084L249.678 43.6306" stroke="#274F8A" stroke-miterlimit="10"/>
<path d="M43.7153 249.593L50.8717 242.437" stroke="#274F8A" stroke-miterlimit="10"/>
<path d="M167.891 12.803L169.463 2.73682" stroke="#274F8A" stroke-miterlimit="10"/>
<path d="M123.93 290.408L125.503 280.342" stroke="#274F8A" stroke-miterlimit="10"/>
<path d="M85.1594 25.7789L80.5981 16.8137" stroke="#274F8A" stroke-miterlimit="10"/>
<path d="M212.795 276.332L208.312 267.445" stroke="#274F8A" stroke-miterlimit="10"/>
<path d="M267.529 208.149L276.494 212.71" stroke="#274F8A" stroke-miterlimit="10"/>
<path d="M16.9771 80.5134L25.8636 84.996" stroke="#274F8A" stroke-miterlimit="10"/>
<path d="M256.441 226.315L264.541 232.213" stroke="#274F8A" stroke-miterlimit="10"/>
<path d="M28.9302 61.0105L37.0303 66.9086" stroke="#274F8A" stroke-miterlimit="10"/>
<path d="M282.314 146.573H292.381" stroke="#274F8A" stroke-miterlimit="10"/>
<path d="M1.09131 146.573H11.1575" stroke="#274F8A" stroke-miterlimit="10"/>
<path d="M256.441 66.9086L264.541 61.0105" stroke="#274F8A" stroke-miterlimit="10"/>
<path d="M28.9302 232.213L37.0303 226.315" stroke="#274F8A" stroke-miterlimit="10"/>
<path d="M188.888 16.8135L191.719 8.08423" stroke="#274F8A" stroke-miterlimit="10"/>
<path d="M101.753 285.061L104.82 275.545" stroke="#274F8A" stroke-miterlimit="10"/>
<path d="M188.652 275.545L191.719 285.061" stroke="#274F8A" stroke-miterlimit="10"/>
<path d="M101.753 8.08423L104.82 17.5212" stroke="#274F8A" stroke-miterlimit="10"/>
<path d="M167.891 280.5L169.463 290.409" stroke="#274F8A" stroke-miterlimit="10"/>
<path d="M123.93 2.73682L125.503 12.6457" stroke="#274F8A" stroke-miterlimit="10"/>
<path d="M242.6 242.437L249.678 249.593" stroke="#274F8A" stroke-miterlimit="10"/>
<path d="M43.7153 43.6306L50.8717 50.7084" stroke="#274F8A" stroke-miterlimit="10"/>
<path d="M280.663 167.806L290.571 169.379" stroke="#274F8A" stroke-miterlimit="10"/>
<path d="M2.8999 123.845L12.8088 125.339" stroke="#274F8A" stroke-miterlimit="10"/>
<path d="M267.529 84.996L276.494 80.5134" stroke="#274F8A" stroke-miterlimit="10"/>
<path d="M16.9771 212.71L25.8636 208.149" stroke="#274F8A" stroke-miterlimit="10"/>
<path d="M85.1594 267.445L80.5981 276.332" stroke="#274F8A" stroke-miterlimit="10"/>
<path d="M212.795 16.8137L208.233 25.7789" stroke="#274F8A" stroke-miterlimit="10"/>
<path d="M146.736 292.217C227.173 292.217 292.38 227.01 292.38 146.573C292.38 66.1355 227.173 0.928223 146.736 0.928223C66.2986 0.928223 1.09131 66.1355 1.09131 146.573C1.09131 227.01 66.2986 292.217 146.736 292.217Z" stroke="#274F8A" stroke-miterlimit="10" stroke-dasharray="2 2"/>
<path opacity="0.5" d="M146.736 278.534C219.616 278.534 278.697 219.453 278.697 146.573C278.697 73.6927 219.616 14.6118 146.736 14.6118C73.8558 14.6118 14.7749 73.6927 14.7749 146.573C14.7749 219.453 73.8558 278.534 146.736 278.534Z" stroke="#274F8A" stroke-miterlimit="10"/>
</svg>
