<svg width="32" height="33" viewBox="0 0 32 33" fill="none" xmlns="http://www.w3.org/2000/svg">
<path d="M16 32.0596C24.8366 32.0596 32 24.8961 32 16.0596C32 7.22301 24.8366 0.0595703 16 0.0595703C7.16345 0.0595703 0 7.22301 0 16.0596C0 24.8961 7.16345 32.0596 16 32.0596Z" fill="#00D7FB"/>
<path d="M23 9.75947C21.7 9.15947 20.3 8.75947 18.9 8.45947C18.7 8.75947 18.5 9.15947 18.4 9.55947C16.9 9.35947 15.3 9.35947 13.8 9.55947C13.7 9.25947 13.4 8.75947 13.3 8.45947C11.8 8.65947 10.5 9.15947 9.19999 9.75947C6.59999 13.6595 5.89999 17.3595 6.19999 21.0595C7.89999 22.3595 9.59999 23.0595 11.3 23.5595C11.7 23.0595 12.1 22.4595 12.4 21.8595C11.8 21.6595 11.2 21.3595 10.7 21.0595C10.8 20.9595 11 20.8595 11.1 20.7595C14.4 22.2595 18 22.2595 21.2 20.7595C21.3 20.8595 21.5 20.9595 21.6 21.0595C21.1 21.3595 20.5 21.6595 19.9 21.8595C20.2 22.4595 20.6 23.0595 21 23.5595C22.6 23.0595 24.3 22.2595 26.1 21.0595C26.4 16.8595 25.2 13.0595 23 9.75947ZM12.7 18.8595C11.7 18.8595 10.9 17.9595 10.9 16.8595C10.9 15.7595 11.7 14.8595 12.7 14.8595C13.7 14.8595 14.5 15.7595 14.5 16.8595C14.5 17.9595 13.7 18.8595 12.7 18.8595ZM19.4 18.8595C18.4 18.8595 17.6 17.9595 17.6 16.8595C17.6 15.7595 18.4 14.8595 19.4 14.8595C20.4 14.8595 21.2 15.7595 21.2 16.8595C21.1 17.9595 20.4 18.8595 19.4 18.8595Z" fill="#000C28"/>
</svg>
