<svg width="32" height="32" viewBox="0 0 32 32" fill="none" xmlns="http://www.w3.org/2000/svg">
<path d="M15.9995 32C24.8361 32 31.9995 24.8366 31.9995 16C31.9995 7.16344 24.8361 0 15.9995 0C7.16296 0 -0.000488281 7.16344 -0.000488281 16C-0.000488281 24.8366 7.16296 32 15.9995 32Z" fill="#7A6A2A"/>
<path fill-rule="evenodd" clip-rule="evenodd" d="M25.0995 11.4C24.9995 11.1 24.8995 10.9 24.7995 10.6C23.2995 7.49995 19.9995 5.69995 16.4995 5.69995H8.19951V10.6V14.3H5.99951V17.7H8.19951V21.5V26.4H18.2995C21.3995 26.4 23.7995 23.2999 23.7995 23.2999C27.7995 17.6999 25.0995 11.4 25.0995 11.4ZM18.3995 20C18.3995 20 17.3995 21.4 16.2995 21.4H14.0995V17.7H16.2995V14.3H14.0995V10.6H14.9995C16.7995 10.6 18.3995 11.7 18.9995 13.4V13.5C18.9995 13.4 20.1995 17.1 18.3995 20Z" fill="white" fill-opacity="0.8"/>
</svg>
