<svg width="33" height="33" viewBox="0 0 33 33" fill="none" xmlns="http://www.w3.org/2000/svg">
<path d="M16.7998 32.8C7.9998 32.8 0.799805 25.6 0.799805 16.8C0.799805 8.00005 7.9998 0.800049 16.7998 0.800049C25.5998 0.800049 32.7998 8.00005 32.7998 16.8C32.7998 25.7 25.5998 32.8 16.7998 32.8Z" fill="white"/>
<path d="M23.8997 16.1001L16.7997 12.8L16.5997 12.9L9.69971 16.1001L16.5997 4.60005L16.7997 4.30005L23.8997 16.1001Z" fill="#666666"/>
<path d="M24.1999 18.5L16.7999 28.8L16.5999 28.6L9.3999 18.5L16.5999 22.7L16.7999 22.8L24.1999 18.5Z" fill="#666666"/>
<path d="M23.8997 17.1001L16.7997 21.5L16.5997 21.4L9.69971 17.1001L16.5997 13.8H16.7997L23.8997 17.1001Z" fill="#666666"/>
<path opacity="0.6" d="M24.2001 18.5L16.8001 28.8L16.6001 28.6V22.7L16.8001 22.8L24.2001 18.5Z" fill="#001133"/>
<path opacity="0.6" d="M23.9001 17.1001L16.8001 21.5L16.6001 21.4V13.8H16.8001L23.9001 17.1001Z" fill="#001133"/>
<path opacity="0.6" d="M23.9001 16.1001L16.8001 12.8L16.6001 12.9V4.60005L16.8001 4.30005L23.9001 16.1001Z" fill="#001133"/>
</svg>
