<svg width="29" height="33" viewBox="0 0 29 33" fill="none" xmlns="http://www.w3.org/2000/svg">
<path d="M23.4768 14.6812C23.4768 9.29642 18.7547 4.97842 13.16 5.58802C9.00248 6.04523 5.61487 9.34723 5.05026 13.462C4.58832 16.9672 6.17947 20.1676 8.74584 22.0472C9.31044 22.4536 9.66973 23.114 9.66973 23.8252V26.924C9.66973 29.3116 11.4662 31.3944 13.8786 31.5468C16.4963 31.6992 18.7034 29.6672 18.7034 27.0764V23.7744C18.7034 23.114 19.0627 22.4536 19.6273 22.098C21.9883 20.4216 23.4768 17.7292 23.4768 14.6812Z" fill="#000C28" stroke="#1A77FF" stroke-width="1.016" stroke-miterlimit="10"/>
<path d="M14.3715 29.8704C12.7803 29.8704 11.4458 28.6004 11.4458 26.9748V23.114H17.2971V26.9748C17.2971 28.6004 15.9626 29.8704 14.3715 29.8704Z" fill="#1A77FF"/>
<path d="M14.3164 20.504C17.804 20.504 20.6312 17.7058 20.6312 14.254C20.6312 10.8022 17.804 8.00403 14.3164 8.00403C10.8287 8.00403 8.00146 10.8022 8.00146 14.254C8.00146 17.7058 10.8287 20.504 14.3164 20.504Z" fill="#000C28"/>
<path d="M14.2692 14.5796H14.4232C15.2444 14.5796 15.9117 15.24 15.9117 16.0528V23.5712H12.832V16.0528C12.832 15.24 13.4993 14.5796 14.2692 14.5796Z" fill="#000C28" stroke="#1A77FF" stroke-width="1.016" stroke-miterlimit="10"/>
<path d="M0 14.3764H3.07965" stroke="#1A77FF" stroke-width="1.016" stroke-miterlimit="10"/>
<path d="M25.9204 14.3764H29.0001" stroke="#1A77FF" stroke-width="1.016" stroke-miterlimit="10"/>
<path d="M14.4741 28.702V25.654" stroke="#1A77FF" stroke-width="1.016" stroke-miterlimit="10"/>
<path d="M14.4741 3.04803V3.45707e-05" stroke="#1A77FF" stroke-width="1.016" stroke-miterlimit="10"/>
<path d="M4.26025 24.5364L6.41601 22.352" stroke="#1A77FF" stroke-width="1.016" stroke-miterlimit="10"/>
<path d="M22.584 6.40082L24.7397 4.21642" stroke="#1A77FF" stroke-width="1.016" stroke-miterlimit="10"/>
<path d="M24.7397 24.5364L22.584 22.352" stroke="#1A77FF" stroke-width="1.016" stroke-miterlimit="10"/>
<path d="M6.41601 6.40082L4.26025 4.21642" stroke="#1A77FF" stroke-width="1.016" stroke-miterlimit="10"/>
</svg>
