<svg width="24" height="13" viewBox="0 0 24 13" fill="none" xmlns="http://www.w3.org/2000/svg">
<path d="M0 0.656641V12.4316H3V0.656641H0Z" fill="#300A6E"/>
<path d="M23.1 1.70674C22.5375 0.994238 21.7875 0.619238 20.925 0.619238H7.6125C6.75 0.619238 6 0.994238 5.4 1.70674C4.8 2.45674 4.5 3.31924 4.5 4.29424V12.4692H6.9375V4.29424C6.9375 4.06924 7.0125 3.84424 7.1625 3.69424C7.275 3.58174 7.35 3.50674 7.4625 3.46924H13.0875V12.4317H15.525V3.46924H20.9625C21.15 3.46924 21.3 3.54424 21.4125 3.69424C21.5625 3.84424 21.6375 4.06924 21.6375 4.29424V12.4692H24V4.29424C24 3.31924 23.7 2.45674 23.1 1.70674Z" fill="#300A6E"/>
</svg>
