<svg width="100" height="100" viewBox="0 0 100 100" fill="none" xmlns="http://www.w3.org/2000/svg">
<g clip-path="url(#clip0_193_4062)">
<path d="M2.30311 99.84C2.30311 99.904 2.2551 99.952 2.1911 99.952C2.1271 99.952 2.0791 99.904 2.0791 99.84C2.0791 99.776 2.1271 99.728 2.1911 99.728C2.2391 99.728 2.30311 99.776 2.30311 99.84Z" fill="#5773DD"/>
<path d="M-0.0966797 88.0171C-0.0966797 86.8651 0.831319 85.9371 1.98332 85.9371C3.13531 85.9371 4.06331 86.8651 4.06331 88.0171C4.06331 89.1691 3.13531 90.0811 1.98332 90.0811C0.831319 90.0811 -0.0966797 89.1531 -0.0966797 88.0171Z" fill="#5773DD"/>
<path d="M6.84863 87.7448C6.84863 86.6728 7.71264 85.8088 8.78464 85.8088C9.85663 85.8088 10.7206 86.6728 10.7206 87.7448C10.7206 88.8168 9.85663 89.6808 8.78464 89.6808C7.72864 89.6648 6.84863 88.8008 6.84863 87.7448Z" fill="#5773DD"/>
<path d="M15.5354 85.2C16.5114 85.2 17.2954 85.984 17.2954 86.96C17.2954 87.936 16.5114 88.72 15.5354 88.72C14.5594 88.72 13.7754 87.936 13.7754 86.96C13.7754 85.984 14.5754 85.2 15.5354 85.2Z" fill="#5773DD"/>
<path d="M22.2069 84.1295C23.0552 84.1295 23.7429 84.8172 23.7429 85.6655C23.7429 86.5138 23.0552 87.2015 22.2069 87.2015C21.3586 87.2015 20.6709 86.5138 20.6709 85.6655C20.6709 84.8172 21.3586 84.1295 22.2069 84.1295Z" fill="#5773DD"/>
<path d="M28.7675 82.6257C29.4555 82.6257 30.0155 83.1857 30.0155 83.8737C30.0155 84.5617 29.4555 85.1217 28.7675 85.1217C28.0795 85.1217 27.5195 84.5617 27.5195 83.8737C27.5195 83.1857 28.0795 82.6257 28.7675 82.6257Z" fill="#5773DD"/>
<path d="M35.1683 80.6579C35.6803 80.6579 36.0803 81.0739 36.0803 81.5699C36.0803 82.0659 35.6643 82.4819 35.1683 82.4819C34.6723 82.4819 34.2563 82.0819 34.2563 81.5699C34.2563 81.0739 34.6563 80.6579 35.1683 80.6579Z" fill="#5773DD"/>
<path d="M41.3748 78.3061C41.6628 78.3061 41.8868 78.5301 41.8868 78.8181C41.8868 79.1061 41.6628 79.3301 41.3748 79.3301C41.0868 79.3301 40.8628 79.1061 40.8628 78.8181C40.8628 78.5301 41.1028 78.3061 41.3748 78.3061Z" fill="#5773DD"/>
<path d="M-0.255707 91.5361C0.768291 91.5361 1.58429 92.3521 1.58429 93.3761C1.58429 94.3841 0.768291 95.2161 -0.255707 95.2161C-1.2797 95.2161 -2.0957 94.4001 -2.0957 93.3761C-2.0957 92.3521 -1.2797 91.5361 -0.255707 91.5361Z" fill="#5773DD"/>
<path d="M5.87201 91.6008C6.79101 91.6008 7.536 92.3458 7.536 93.2648C7.536 94.1838 6.79101 94.9288 5.87201 94.9288C4.95301 94.9288 4.20801 94.1838 4.20801 93.2648C4.20801 92.3458 4.95301 91.6008 5.87201 91.6008Z" fill="#5773DD"/>
<path d="M11.9845 91.3289C12.7685 91.3289 13.4085 91.9689 13.4085 92.7529C13.4085 93.5369 12.7685 94.1769 11.9845 94.1769C11.2005 94.1769 10.5605 93.5369 10.5605 92.7529C10.5605 91.9689 11.2005 91.3289 11.9845 91.3289Z" fill="#5773DD"/>
<path d="M18.0651 90.6729C18.7051 90.6729 19.2171 91.1849 19.2171 91.8249C19.2171 92.4649 18.7051 92.9769 18.0651 92.9769C17.4251 92.9769 16.9131 92.4649 16.9131 91.8249C16.9131 91.1849 17.4411 90.6729 18.0651 90.6729Z" fill="#5773DD"/>
<path d="M24.0634 89.6485C24.5274 89.6485 24.8954 90.0325 24.8954 90.4805C24.8954 90.9285 24.5114 91.3125 24.0634 91.3125C23.6154 91.3125 23.2314 90.9445 23.2314 90.4805C23.2314 90.0325 23.5994 89.6485 24.0634 89.6485Z" fill="#5773DD"/>
<path d="M29.9523 88.3371C30.2085 88.3371 30.4163 88.5449 30.4163 88.8011C30.4163 89.0574 30.2085 89.2651 29.9523 89.2651C29.696 89.2651 29.4883 89.0574 29.4883 88.8011C29.4883 88.5449 29.696 88.3371 29.9523 88.3371Z" fill="#5773DD"/>
<path d="M4.88122 82.8977C4.88122 84.0657 3.93722 84.9937 2.76922 84.9937C1.60123 84.9937 0.657227 84.0497 0.657227 82.8977C0.657227 81.7297 1.60123 80.7857 2.76922 80.7857C3.93722 80.7857 4.88122 81.7297 4.88122 82.8977Z" fill="#5773DD"/>
<path d="M18.0477 81.7774C18.0477 82.9294 17.1197 83.8414 15.9677 83.8414C14.8157 83.8414 13.8877 82.9134 13.8877 81.7774C13.8877 80.6254 14.8157 79.6974 15.9677 79.6974C17.1197 79.6974 18.0477 80.6254 18.0477 81.7774Z" fill="#5773DD"/>
<path d="M9.61613 80.433C10.7681 80.433 11.6961 81.361 11.6961 82.497C11.6961 83.649 10.7681 84.577 9.61613 84.577C8.46413 84.577 7.53613 83.649 7.53613 82.497C7.53613 81.361 8.48013 80.433 9.61613 80.433Z" fill="#5773DD"/>
<path d="M22.4642 78.4814C23.5776 78.4814 24.4802 79.384 24.4802 80.4974C24.4802 81.6108 23.5776 82.5134 22.4642 82.5134C21.3508 82.5134 20.4482 81.6108 20.4482 80.4974C20.4482 79.384 21.3508 78.4814 22.4642 78.4814Z" fill="#5773DD"/>
<path d="M28.8315 76.8012C29.9035 76.8012 30.7675 77.6652 30.7675 78.7372C30.7675 79.8092 29.9035 80.6732 28.8315 80.6732C27.7595 80.6732 26.8955 79.8092 26.8955 78.7372C26.8955 77.6652 27.7755 76.8012 28.8315 76.8012Z" fill="#5773DD"/>
<path d="M35.0718 74.7218C36.0638 74.7218 36.8638 75.5218 36.8638 76.5138C36.8638 77.5058 36.0638 78.3058 35.0718 78.3058C34.0798 78.3058 33.2798 77.5058 33.2798 76.5138C33.2798 75.5058 34.0798 74.7218 35.0718 74.7218Z" fill="#5773DD"/>
<path d="M41.1204 72.1943C42.0164 72.1943 42.7364 72.9143 42.7364 73.8103C42.7364 74.7063 42.0164 75.4263 41.1204 75.4263C40.2244 75.4263 39.5044 74.7063 39.5044 73.8103C39.5044 72.9143 40.2404 72.1943 41.1204 72.1943Z" fill="#5773DD"/>
<path d="M46.9436 69.2826C47.7213 69.2826 48.3516 69.913 48.3516 70.6906C48.3516 71.4683 47.7213 72.0986 46.9436 72.0986C46.166 72.0986 45.5356 71.4683 45.5356 70.6906C45.5356 69.913 46.166 69.2826 46.9436 69.2826Z" fill="#5773DD"/>
<path d="M52.5275 65.9701C53.1675 65.9701 53.6635 66.4821 53.6795 67.1221C53.6795 67.762 53.1675 68.274 52.5275 68.274C51.8875 68.274 51.3755 67.762 51.3755 67.1221C51.3755 66.4661 51.8875 65.9701 52.5275 65.9701Z" fill="#5773DD"/>
<path d="M57.8071 62.2908C58.2711 62.2908 58.6551 62.6588 58.6391 63.1228C58.6391 63.5708 58.2551 63.9548 57.8071 63.9548C57.3591 63.9548 56.9751 63.5868 56.9751 63.1228C56.9751 62.6748 57.3431 62.2908 57.8071 62.2908Z" fill="#5773DD"/>
<path d="M62.7838 58.3071C63.0398 58.3071 63.2478 58.5151 63.2478 58.7711C63.2478 59.0271 63.0398 59.2351 62.7838 59.2351C62.5278 59.2351 62.3198 59.0271 62.3198 58.7711C62.3198 58.5151 62.5278 58.3071 62.7838 58.3071Z" fill="#5773DD"/>
<path d="M66.72 46.0203C66.9674 46.0203 67.168 46.2208 67.168 46.4683C67.168 46.7157 66.9674 46.9163 66.72 46.9163C66.4726 46.9163 66.272 46.7157 66.272 46.4683C66.272 46.2208 66.4726 46.0203 66.72 46.0203Z" fill="#5773DD"/>
<path d="M62.4952 50.452C62.9432 50.452 63.3112 50.82 63.3112 51.268C63.3112 51.716 62.9432 52.084 62.4952 52.084C62.0472 52.084 61.6792 51.716 61.6792 51.268C61.6792 50.82 62.0472 50.452 62.4952 50.452Z" fill="#5773DD"/>
<path d="M57.9521 54.6119C58.5601 54.6119 59.0561 55.124 59.0561 55.7159C59.0561 56.3239 58.5601 56.8199 57.9521 56.8199C57.3441 56.8199 56.8481 56.3239 56.8481 55.7159C56.8481 55.108 57.3441 54.6119 57.9521 54.6119Z" fill="#5773DD"/>
<path d="M54.4324 59.8432C54.4324 60.5952 53.8244 61.2032 53.0724 61.2032C52.3204 61.2032 51.7124 60.5952 51.7124 59.8432C51.7124 59.0913 52.3204 58.4833 53.0724 58.4833C53.8244 58.4833 54.4324 59.0913 54.4324 59.8432Z" fill="#5773DD"/>
<path d="M47.8888 62.0188C48.7548 62.0188 49.4568 62.7208 49.4568 63.5868C49.4568 64.4528 48.7548 65.1548 47.8888 65.1548C47.0228 65.1548 46.3208 64.4528 46.3208 63.5868C46.3208 62.7208 47.0228 62.0188 47.8888 62.0188Z" fill="#5773DD"/>
<path d="M44.1916 66.9304C44.1916 67.8904 43.4076 68.6744 42.4476 68.6744C41.4876 68.6744 40.7036 67.8904 40.7036 66.9304C40.7036 65.9704 41.4876 65.1864 42.4476 65.1864C43.4076 65.2024 44.1756 65.9704 44.1916 66.9304Z" fill="#5773DD"/>
<path d="M34.9126 69.8588C34.9126 68.8188 35.7446 67.9868 36.7846 67.9868C37.8086 67.9868 38.6406 68.8348 38.6566 69.8588C38.6566 70.8988 37.8246 71.7308 36.7846 71.7308C35.7446 71.7308 34.9126 70.8828 34.9126 69.8588Z" fill="#5773DD"/>
<path d="M28.9268 72.3538C28.9268 71.2658 29.8068 70.4018 30.8948 70.4018C31.9827 70.4018 32.8628 71.2818 32.8628 72.3538C32.8628 73.4258 31.9827 74.3218 30.8948 74.3218C29.8068 74.3218 28.9268 73.4418 28.9268 72.3538Z" fill="#5773DD"/>
<path d="M22.832 74.4182C22.832 73.3142 23.728 72.4022 24.848 72.4022C25.968 72.4022 26.864 73.2982 26.864 74.4182C26.864 75.5222 25.968 76.4342 24.848 76.4342C23.744 76.4182 22.832 75.5222 22.832 74.4182Z" fill="#5773DD"/>
<path d="M16.6074 76.0018C16.6074 74.8658 17.5194 73.9538 18.6554 73.9538C19.7914 73.9538 20.7034 74.8658 20.7034 76.0018C20.7034 77.1378 19.7914 78.0498 18.6554 78.0498C17.5194 78.0498 16.6074 77.1378 16.6074 76.0018Z" fill="#5773DD"/>
<path d="M6.01599 75.8102C7.13599 75.8102 8.03199 76.7062 8.03199 77.8262C8.03199 78.9302 7.13599 79.8422 6.01599 79.8422C4.89599 79.8422 4 78.9462 4 77.8262C4 76.7222 4.91199 75.8102 6.01599 75.8102Z" fill="#5773DD"/>
<path d="M10.2236 77.1057C10.2236 76.0017 11.1196 75.0897 12.2396 75.0897C13.3596 75.0897 14.2556 75.9857 14.2556 77.1057C14.2556 78.2097 13.3596 79.1217 12.2396 79.1217C11.1356 79.1217 10.2236 78.2097 10.2236 77.1057Z" fill="#5773DD"/>
<path d="M-0.352318 76.0656C0.734576 76.0656 1.61568 76.9467 1.61568 78.0336C1.61568 79.1205 0.734576 80.0016 -0.352318 80.0016C-1.43921 80.0016 -2.32031 79.1205 -2.32031 78.0336C-2.32031 76.9467 -1.43921 76.0656 -0.352318 76.0656Z" fill="#5773DD"/>
<path d="M72.6876 26.9815C72.9085 26.9815 73.0876 27.1606 73.0876 27.3815C73.0876 27.6024 72.9085 27.7815 72.6876 27.7815C72.4667 27.7815 72.2876 27.6024 72.2876 27.3815C72.2876 27.1606 72.4667 26.9815 72.6876 26.9815Z" fill="#5773DD"/>
<path d="M70.6553 32.7414C70.6553 33.1414 70.3353 33.4614 69.9353 33.4614C69.5353 33.4614 69.2153 33.1414 69.2153 32.7414C69.2153 32.3414 69.5353 32.0214 69.9353 32.0214C70.3353 32.0214 70.6553 32.3574 70.6553 32.7414Z" fill="#5773DD"/>
<path d="M65.7915 37.8933C65.7915 37.3333 66.2395 36.9013 66.7835 36.9013C67.3275 36.9013 67.7755 37.3333 67.7755 37.8933C67.7755 38.4533 67.3435 38.8853 66.7835 38.8853C66.2235 38.8853 65.7915 38.4373 65.7915 37.8933Z" fill="#5773DD"/>
<path d="M63.2468 43.9727C62.5748 43.9727 62.0308 43.4287 62.0308 42.7567C62.0308 42.0847 62.5748 41.5407 63.2468 41.5407C63.9188 41.5407 64.4628 42.0847 64.4628 42.7567C64.4628 43.4447 63.9188 43.9727 63.2468 43.9727Z" fill="#5773DD"/>
<path d="M59.3437 48.7239C58.5757 48.7239 57.9517 48.0999 57.9517 47.3319C57.9517 46.5639 58.5757 45.9399 59.3437 45.9399C60.1117 45.9399 60.7356 46.5639 60.7356 47.3319C60.7356 48.0999 60.1117 48.7239 59.3437 48.7239Z" fill="#5773DD"/>
<path d="M53.5513 51.6362C53.5513 50.7882 54.2393 50.1002 55.0873 50.1002C55.9353 50.1002 56.6233 50.7882 56.6233 51.6362C56.6233 52.4842 55.9353 53.1722 55.0873 53.1722C54.2393 53.1722 53.5513 52.4842 53.5513 51.6362Z" fill="#5773DD"/>
<path d="M48.8638 55.5877C48.8638 54.6757 49.6158 53.9237 50.5278 53.9237C51.4398 53.9237 52.1918 54.6597 52.1918 55.5877C52.1918 56.5157 51.4398 57.2517 50.5278 57.2517C49.6158 57.2357 48.8638 56.4997 48.8638 55.5877Z" fill="#5773DD"/>
<path d="M45.6634 57.4267C46.6266 57.4267 47.4074 58.2075 47.4074 59.1707C47.4074 60.1339 46.6266 60.9147 45.6634 60.9147C44.7003 60.9147 43.9194 60.1339 43.9194 59.1707C43.9194 58.2075 44.7003 57.4267 45.6634 57.4267Z" fill="#5773DD"/>
<path d="M40.5601 60.5953C41.5521 60.5953 42.3521 61.3953 42.3521 62.3873C42.3521 63.3793 41.5521 64.1793 40.5601 64.1793C39.5681 64.1793 38.7681 63.3793 38.7681 62.3873C38.7681 61.3953 39.5681 60.5953 40.5601 60.5953Z" fill="#5773DD"/>
<path d="M35.2318 66.9949C34.2398 66.9949 33.4238 66.1789 33.4238 65.1869C33.4238 64.1949 34.2238 63.3789 35.2318 63.3789C36.2238 63.3789 37.0398 64.1789 37.0398 65.1869C37.0398 66.1949 36.2238 66.9949 35.2318 66.9949Z" fill="#5773DD"/>
<path d="M28.1445 67.8429C28.1445 66.8509 28.9445 66.0349 29.9525 66.0349C30.9605 66.0349 31.7605 66.8509 31.7605 67.8429C31.7605 68.8349 30.9445 69.6509 29.9525 69.6509C28.9605 69.6509 28.1445 68.8349 28.1445 67.8429Z" fill="#5773DD"/>
<path d="M23.9834 67.842C24.9731 67.842 25.7754 68.6443 25.7754 69.634C25.7754 70.6237 24.9731 71.426 23.9834 71.426C22.9937 71.426 22.1914 70.6237 22.1914 69.634C22.1914 68.6443 22.9937 67.842 23.9834 67.842Z" fill="#5773DD"/>
<path d="M18.159 69.4581C19.1222 69.4581 19.903 70.2389 19.903 71.202C19.903 72.1652 19.1222 72.946 18.159 72.946C17.1959 72.946 16.415 72.1652 16.415 71.202C16.415 70.2389 17.1959 69.4581 18.159 69.4581Z" fill="#5773DD"/>
<path d="M12.2411 74.0179C11.3292 74.0179 10.5771 73.2819 10.5771 72.3539C10.5771 71.4419 11.3292 70.69 12.2411 70.69C13.1531 70.69 13.9051 71.4259 13.9051 72.3539C13.9051 73.2659 13.1691 74.0179 12.2411 74.0179Z" fill="#5773DD"/>
<path d="M7.77609 73.0581C7.77609 73.9061 7.08809 74.5941 6.24009 74.5941C5.3921 74.5941 4.7041 73.9061 4.7041 73.0581C4.7041 72.2101 5.3921 71.5221 6.24009 71.5221C7.08809 71.5221 7.77609 72.2101 7.77609 73.0581Z" fill="#5773DD"/>
<path d="M1.60115 73.3304C1.60115 74.0984 0.97715 74.7384 0.193152 74.7384C-0.590847 74.7384 -1.21484 74.1144 -1.21484 73.3304C-1.21484 72.5624 -0.590847 71.9224 0.193152 71.9224C0.97715 71.9224 1.60115 72.5624 1.60115 73.3304Z" fill="#5773DD"/>
<path d="M43.9202 85.8249C44.1602 85.8249 44.3682 86.0329 44.3682 86.2729C44.3682 86.5129 44.1602 86.7209 43.9202 86.7209C43.6802 86.7209 43.4722 86.5289 43.4722 86.2729C43.4722 86.0329 43.6802 85.8249 43.9202 85.8249Z" fill="#5773DD"/>
<path d="M49.5196 82.2257C49.9676 82.2257 50.3356 82.5937 50.3356 83.0417C50.3356 83.4897 49.9676 83.8577 49.5196 83.8577C49.0716 83.8577 48.7036 83.4897 48.7036 83.0417C48.7036 82.5937 49.0716 82.2257 49.5196 82.2257Z" fill="#5773DD"/>
<path d="M54.8943 78.3373C55.5183 78.3373 56.0303 78.8493 56.0303 79.4733C56.0303 80.0973 55.5183 80.6093 54.8943 80.6093C54.2703 80.6093 53.7583 80.0973 53.7583 79.4733C53.7583 78.8493 54.2703 78.3373 54.8943 78.3373Z" fill="#5773DD"/>
<path d="M60.0472 74.1303C60.8248 74.1303 61.4552 74.7607 61.4552 75.5383C61.4552 76.3159 60.8248 76.9463 60.0472 76.9463C59.2695 76.9463 58.6392 76.3159 58.6392 75.5383C58.6392 74.7607 59.2695 74.1303 60.0472 74.1303Z" fill="#5773DD"/>
<path d="M64.9278 69.6663C65.838 69.6663 66.5758 70.4041 66.5758 71.3143C66.5758 72.2244 65.838 72.9623 64.9278 72.9623C64.0176 72.9623 63.2798 72.2244 63.2798 71.3143C63.2798 70.4041 64.0176 69.6663 64.9278 69.6663Z" fill="#5773DD"/>
<path d="M69.5348 64.963C70.5588 64.963 71.3748 65.7789 71.3748 66.8029C71.3748 67.8269 70.5428 68.6429 69.5348 68.6429C68.5108 68.6429 67.6948 67.8269 67.6948 66.8029C67.6948 65.7789 68.5268 64.963 69.5348 64.963Z" fill="#5773DD"/>
<path d="M73.8394 59.9873C74.9433 59.9873 75.8393 60.8833 75.8393 61.9873C75.8393 63.0913 74.9433 63.9873 73.8394 63.9873C72.7354 63.9873 71.8394 63.0913 71.8394 61.9873C71.8394 60.8833 72.7354 59.9873 73.8394 59.9873Z" fill="#5773DD"/>
<path d="M77.8232 54.7711C79.0072 54.7711 79.9672 55.7311 79.9672 56.8991C79.9672 58.0671 79.0072 59.0431 77.8232 59.0431C76.6392 59.0431 75.6792 58.0831 75.6792 56.8991C75.6792 55.7151 76.6392 54.7711 77.8232 54.7711Z" fill="#5773DD"/>
<path d="M79.4068 52.4197C78.9428 51.2677 79.5028 49.9717 80.6548 49.5237C81.8067 49.0597 83.1028 49.6197 83.5668 50.7717C84.0308 51.9237 83.4707 53.2197 82.3188 53.6677C81.1668 54.1157 79.8548 53.5557 79.4068 52.4197Z" fill="#5773DD"/>
<path d="M82.8161 44.8204C83.4881 43.7164 84.9281 43.3644 86.0321 44.0364C87.1361 44.7084 87.4881 46.1324 86.8161 47.2364C86.1441 48.3404 84.7041 48.6924 83.6001 48.0204C82.5121 47.3484 82.1601 45.9084 82.8161 44.8204Z" fill="#5773DD"/>
<path d="M85.5666 41.2045C85.0706 39.9885 85.6626 38.5965 86.8786 38.1165C88.0946 37.6205 89.4866 38.1965 89.9826 39.4125C90.4786 40.6285 89.8866 42.0205 88.6706 42.5005C87.4546 42.9965 86.0626 42.4205 85.5666 41.2045Z" fill="#5773DD"/>
<path d="M90.3677 32.0215C91.702 32.0215 92.7837 33.0961 92.7837 34.4215C92.7837 35.747 91.702 36.8215 90.3677 36.8215C89.0334 36.8215 87.9517 35.747 87.9517 34.4215C87.9517 33.0961 89.0334 32.0215 90.3677 32.0215Z" fill="#5773DD"/>
<path d="M90.1753 28.3742C90.1753 27.0462 91.2633 25.9742 92.5913 25.9742C93.9193 25.9742 95.0073 27.0462 95.0073 28.3742C95.0073 29.7022 93.9193 30.7902 92.5913 30.7902C91.2633 30.7742 90.1753 29.7022 90.1753 28.3742Z" fill="#5773DD"/>
<path d="M92.2727 23.11C91.7607 21.894 92.3367 20.502 93.5367 20.006C94.7527 19.494 96.1447 20.07 96.6567 21.27C97.1687 22.486 96.5927 23.878 95.3927 24.374C94.1927 24.886 92.7847 24.326 92.2727 23.11Z" fill="#5773DD"/>
<path d="M93.5845 15.9105C93.5845 14.6305 94.6245 13.5905 95.9205 13.5905C97.2165 13.5905 98.2565 14.6305 98.2565 15.9105C98.2565 17.1905 97.2165 18.2305 95.9205 18.2305C94.6245 18.2305 93.5845 17.1905 93.5845 15.9105Z" fill="#5773DD"/>
<path d="M94.7202 9.54294C94.7202 8.29495 95.7442 7.28695 96.9922 7.28695C98.2402 7.28695 99.2642 8.29495 99.2642 9.54294C99.2642 10.7909 98.2402 11.8149 96.9922 11.8149C95.7442 11.8149 94.7202 10.7909 94.7202 9.54294Z" fill="#5773DD"/>
<path d="M97.68 5.28772C96.48 5.28772 95.52 4.32772 95.52 3.12772C95.52 1.94373 96.48 0.983725 97.68 0.983725C98.88 0.983725 99.84 1.94373 99.84 3.12772C99.84 4.32772 98.88 5.28772 97.68 5.28772Z" fill="#5773DD"/>
<path d="M75.2628 42.9323C75.2628 43.2203 75.0388 43.4443 74.7508 43.4443C74.4628 43.4443 74.2388 43.2203 74.2388 42.9323C74.2388 42.6443 74.4628 42.4203 74.7508 42.4203C75.0388 42.4203 75.2628 42.6443 75.2628 42.9323Z" fill="#5773DD"/>
<path d="M77.9359 36.037C78.4319 36.037 78.8319 36.437 78.8479 36.949C78.8479 37.461 78.4479 37.861 77.9359 37.861C77.4239 37.861 77.0239 37.461 77.0239 36.949C77.0239 36.437 77.4239 36.037 77.9359 36.037Z" fill="#5773DD"/>
<path d="M79.4224 30.7093C79.4224 30.0373 79.9664 29.4773 80.6544 29.4773C81.3264 29.4773 81.8864 30.0373 81.8864 30.7093C81.8864 31.3813 81.3264 31.9413 80.6544 31.9413C79.9824 31.9413 79.4224 31.3813 79.4224 30.7093Z" fill="#5773DD"/>
<path d="M84.4155 24.326C84.4155 25.1579 83.7275 25.8459 82.8955 25.8459C82.0635 25.8459 81.3755 25.1739 81.3755 24.326C81.3755 23.494 82.0635 22.806 82.8955 22.806C83.7435 22.806 84.4155 23.478 84.4155 24.326Z" fill="#5773DD"/>
<path d="M84.656 16.0222C85.632 16.0222 86.416 16.8062 86.416 17.7822C86.416 18.7582 85.616 19.5422 84.656 19.5422C83.68 19.5422 82.896 18.7422 82.896 17.7822C82.896 16.8062 83.696 16.0222 84.656 16.0222Z" fill="#5773DD"/>
<path d="M85.9355 9.19064C87.0075 9.19064 87.8715 10.0546 87.8715 11.1266C87.8715 12.1986 87.0075 13.0626 85.9355 13.0626C84.8635 13.0626 83.9995 12.1986 83.9995 11.1266C83.9995 10.0546 84.8635 9.19064 85.9355 9.19064Z" fill="#5773DD"/>
<path d="M88.1903 2.9193C88.9903 3.7353 88.9903 5.0473 88.1743 5.8473C87.3583 6.6473 86.0463 6.6473 85.2303 5.8313C84.4303 5.0153 84.4303 3.7033 85.2463 2.9033C86.0623 2.1033 87.3903 2.10331 88.1903 2.9193Z" fill="#5773DD"/>
<path d="M70.7192 56.0511C70.7192 55.7951 70.9432 55.5871 71.1832 55.5871C71.4392 55.5871 71.6472 55.7951 71.6472 56.0511C71.6472 56.3071 71.4232 56.5151 71.1832 56.5151C70.9272 56.5151 70.7192 56.3071 70.7192 56.0511Z" fill="#5773DD"/>
<path d="M74.9126 52.0037C74.4646 52.0037 74.0806 51.6357 74.0806 51.1717C74.0806 50.7237 74.4486 50.3397 74.9126 50.3397C75.3606 50.3397 75.7446 50.7077 75.7446 51.1717C75.7446 51.6197 75.3606 52.0037 74.9126 52.0037Z" fill="#5773DD"/>
<path d="M78.3039 47.22C77.6639 47.22 77.1519 46.708 77.1519 46.068C77.1519 45.428 77.6639 44.916 78.3039 44.916C78.9439 44.916 79.4399 45.428 79.4559 46.068C79.4559 46.708 78.9439 47.22 78.3039 47.22Z" fill="#5773DD"/>
<path d="M81.3591 39.3323C82.1455 39.3323 82.7831 39.9698 82.7831 40.7563C82.7831 41.5428 82.1455 42.1803 81.3591 42.1803C80.5726 42.1803 79.9351 41.5428 79.9351 40.7563C79.9351 39.9698 80.5726 39.3323 81.3591 39.3323Z" fill="#5773DD"/>
<path d="M84.0489 36.8856C83.1369 36.8856 82.4009 36.1496 82.4009 35.2376C82.4009 34.3256 83.1369 33.5896 84.0489 33.5896C84.9609 33.5896 85.6969 34.3256 85.6969 35.2376C85.6969 36.1496 84.9609 36.8856 84.0489 36.8856Z" fill="#5773DD"/>
<path d="M86.3844 31.4141C85.3604 31.4141 84.5444 30.5981 84.5444 29.5741C84.5444 28.5661 85.3604 27.7341 86.3844 27.7341C87.4084 27.7341 88.2244 28.5501 88.2244 29.5741C88.2244 30.5981 87.4084 31.4141 86.3844 31.4141Z" fill="#5773DD"/>
<path d="M88.3345 25.7656C87.2305 25.7656 86.3345 24.8696 86.3345 23.7656C86.3345 22.6616 87.2305 21.7656 88.3345 21.7656C89.4385 21.7656 90.3345 22.6616 90.3345 23.7656C90.3345 24.8856 89.4385 25.7656 88.3345 25.7656Z" fill="#5773DD"/>
<path d="M89.9039 15.7342C91.0791 15.7342 92.0319 16.687 92.0319 17.8622C92.0319 19.0375 91.0791 19.9902 89.9039 19.9902C88.7286 19.9902 87.7759 19.0375 87.7759 17.8622C87.7759 16.687 88.7286 15.7342 89.9039 15.7342Z" fill="#5773DD"/>
<path d="M91.0878 14.0707C89.8558 14.0707 88.8638 13.0787 88.8638 11.8627C88.8638 10.6467 89.8558 9.63869 91.0878 9.63869C92.3198 9.63869 93.3117 10.6307 93.3117 11.8627C93.3117 13.0787 92.3198 14.0707 91.0878 14.0707Z" fill="#5773DD"/>
<path d="M91.8715 8.07178C90.6075 8.07178 89.5835 7.04777 89.5835 5.78377C89.5835 4.51978 90.6075 3.51179 91.8715 3.51179C93.1355 3.51179 94.1595 4.53578 94.1595 5.78377C94.1595 7.04777 93.1355 8.07178 91.8715 8.07178Z" fill="#5773DD"/>
<path d="M89.9204 -0.312363C89.9204 -1.59236 90.9604 -2.64835 92.2564 -2.64835C93.5524 -2.64835 94.5924 -1.60836 94.5924 -0.312363C94.5924 0.967635 93.5524 2.00763 92.2564 2.00763C90.9604 2.02363 89.9204 0.967635 89.9204 -0.312363Z" fill="#5773DD"/>
<path d="M79.6627 17.9906C79.4067 17.9906 79.1987 17.7826 79.1987 17.5266C79.1987 17.2706 79.4067 17.0626 79.6627 17.0626C79.9347 17.0626 80.1427 17.2546 80.1267 17.5266C80.1267 17.7826 79.9027 17.9906 79.6627 17.9906Z" fill="#5773DD"/>
<path d="M80.064 11.0307C80.064 10.5827 80.432 10.1987 80.896 10.1987C81.36 10.1987 81.728 10.5667 81.728 11.0307C81.728 11.4787 81.344 11.8627 80.896 11.8627C80.448 11.8467 80.064 11.4787 80.064 11.0307Z" fill="#5773DD"/>
<path d="M80.4946 4.47179C80.4946 3.8478 81.0066 3.33579 81.6306 3.33579C82.2546 3.33579 82.7666 3.8478 82.7666 4.47179C82.7666 5.09579 82.2546 5.60779 81.6306 5.60779C81.0066 5.60779 80.4946 5.09579 80.4946 4.47179Z" fill="#5773DD"/>
<path d="M77.8077 0.792449C78.2557 0.792449 78.6237 1.16044 78.6237 1.60844C78.6237 2.05644 78.2557 2.42444 77.8077 2.42444C77.3597 2.42444 76.9917 2.05644 76.9917 1.60844C76.9917 1.16044 77.3597 0.792449 77.8077 0.792449Z" fill="#5773DD"/>
<path d="M77.4557 7.49534C77.7117 7.49534 77.9197 7.70335 77.9197 7.95935C77.9197 8.21535 77.6957 8.42334 77.4557 8.42334C77.1997 8.42334 76.9917 8.19935 76.9917 7.95935C76.9917 7.70335 77.2157 7.49534 77.4557 7.49534Z" fill="#5773DD"/>
</g>
<defs>
<clipPath id="clip0_193_4062">
<rect width="200" height="200" fill="white" transform="matrix(1 0 0 -1 -100 100)"/>
</clipPath>
</defs>
</svg>
