<svg width="202" height="8" viewBox="0 0 202 8" fill="none" xmlns="http://www.w3.org/2000/svg">
<path d="M201.354 4.35355C201.549 4.15829 201.549 3.84171 201.354 3.64645L198.172 0.464466C197.976 0.269204 197.66 0.269204 197.464 0.464466C197.269 0.659728 197.269 0.976311 197.464 1.17157L200.293 4L197.464 6.82843C197.269 7.02369 197.269 7.34027 197.464 7.53553C197.66 7.7308 197.976 7.7308 198.172 7.53553L201.354 4.35355ZM0 4.5H1.005V3.5H0V4.5ZM3.015 4.5H5.025V3.5H3.015V4.5ZM7.035 4.5H9.045V3.5H7.035V4.5ZM11.055 4.5H13.065V3.5H11.055V4.5ZM15.075 4.5H17.085V3.5H15.075V4.5ZM19.095 4.5H21.105V3.5H19.095V4.5ZM23.115 4.5H25.125V3.5H23.115V4.5ZM27.135 4.5H29.145V3.5H27.135V4.5ZM31.155 4.5H33.165V3.5H31.155V4.5ZM35.175 4.5H37.185V3.5H35.175V4.5ZM39.195 4.5H41.205V3.5H39.195V4.5ZM43.215 4.5H45.225V3.5H43.215V4.5ZM47.235 4.5H49.245V3.5H47.235V4.5ZM51.255 4.5H53.265V3.5H51.255V4.5ZM55.275 4.5H57.285V3.5H55.275V4.5ZM59.295 4.5H61.305V3.5H59.295V4.5ZM63.315 4.5H65.325V3.5H63.315V4.5ZM67.335 4.5H69.345V3.5H67.335V4.5ZM71.355 4.5H73.365V3.5H71.355V4.5ZM75.375 4.5H77.385V3.5H75.375V4.5ZM79.395 4.5H81.405V3.5H79.395V4.5ZM83.415 4.5H85.425V3.5H83.415V4.5ZM87.435 4.5H89.445V3.5H87.435V4.5ZM91.455 4.5H93.465V3.5H91.455V4.5ZM95.475 4.5H97.485V3.5H95.475V4.5ZM99.495 4.5H101.505V3.5H99.495V4.5ZM103.515 4.5H105.525V3.5H103.515V4.5ZM107.535 4.5H109.545V3.5H107.535V4.5ZM111.555 4.5H113.565V3.5H111.555V4.5ZM115.575 4.5H117.585V3.5H115.575V4.5ZM119.595 4.5H121.605V3.5H119.595V4.5ZM123.615 4.5H125.625V3.5H123.615V4.5ZM127.635 4.5H129.645V3.5H127.635V4.5ZM131.655 4.5H133.665V3.5H131.655V4.5ZM135.675 4.5H137.685V3.5H135.675V4.5ZM139.695 4.5H141.705V3.5H139.695V4.5ZM143.715 4.5H145.725V3.5H143.715V4.5ZM147.735 4.5H149.745V3.5H147.735V4.5ZM151.755 4.5H153.765V3.5H151.755V4.5ZM155.775 4.5H157.785V3.5H155.775V4.5ZM159.795 4.5H161.805V3.5H159.795V4.5ZM163.815 4.5H165.825V3.5H163.815V4.5ZM167.835 4.5H169.845V3.5H167.835V4.5ZM171.855 4.5H173.865V3.5H171.855V4.5ZM175.875 4.5H177.885V3.5H175.875V4.5ZM179.895 4.5H181.905V3.5H179.895V4.5ZM183.915 4.5H185.925V3.5H183.915V4.5ZM187.935 4.5H189.945V3.5H187.935V4.5ZM191.955 4.5H193.965V3.5H191.955V4.5ZM195.975 4.5H197.985V3.5H195.975V4.5ZM199.995 4.5H201V3.5H199.995V4.5Z" fill="#4171B9"/>
</svg>
