<svg width="41" height="37" viewBox="0 0 41 37" fill="none" xmlns="http://www.w3.org/2000/svg">
<g clip-path="url(#clip0_1172_2086)">
<path d="M37.4768 36.9771H3.176C1.39744 36.9771 0 35.5796 0 33.8011V9.66345C0 7.88489 1.39744 6.48745 3.176 6.48745H37.4768C39.2554 6.48745 40.6528 7.88489 40.6528 9.66345V33.8011C40.6528 35.5796 39.2554 36.9771 37.4768 36.9771Z" fill="#1A77FF"/>
<path d="M37.4768 36.9771H3.176C1.39744 36.9771 0 35.5796 0 33.8011V9.66345C0 7.88489 1.39744 6.48745 3.176 6.48745H37.4768C39.2554 6.48745 40.6528 7.88489 40.6528 9.66345V33.8011C40.6528 35.5796 39.2554 36.9771 37.4768 36.9771Z" fill="#1A77FF"/>
<path opacity="0.2" d="M40.3987 8.39305L38.112 10.4257V33.1659C38.112 33.8646 37.5403 34.4363 36.8416 34.4363H3.8112C3.11248 34.4363 2.5408 33.8646 2.5408 33.1659V10.3622L0.25408 8.39305C0.0635198 8.77417 0 9.21881 0 9.66345V33.8011C0 35.5796 1.39744 36.9771 3.176 36.9771H37.4768C39.2554 36.9771 40.6528 35.5796 40.6528 33.8011V9.66345C40.6528 9.21881 40.5893 8.83769 40.3987 8.39305Z" fill="#000C28"/>
<path opacity="0.4" d="M40.3987 8.39302L27.8853 19.382L24.2647 22.558L23.1848 23.4473C22.7402 23.8284 22.1685 24.146 21.5968 24.3365C21.1522 24.4636 20.7711 24.5271 20.3264 24.5271C19.6277 24.5271 18.9925 24.3365 18.3573 24.0189C17.9762 23.8284 17.7221 23.6378 17.4045 23.3837L13.2757 19.7631L8.89283 15.9519L7.55891 14.745L0.317627 8.39302C0.825787 7.24966 1.90563 6.48742 3.23955 6.48742H37.5403C38.8107 6.48742 39.8906 7.31318 40.3987 8.39302Z" fill="#00D7FB"/>
<path d="M36.5875 8.32946L31.1883 13.0299L29.2192 14.745L26.1702 17.4763L24.4552 19.0008C24.1376 19.0008 23.8835 18.9373 23.5659 18.8738C23.1848 18.8103 22.8037 18.6832 22.4861 18.4927C22.232 18.3656 22.0414 18.2386 21.8509 18.048C21.5333 18.2386 21.2792 18.4291 20.9616 18.5562C20.2629 18.8103 19.5006 19.0008 18.6749 19.0008C19.5006 19.3184 20.4534 19.4455 21.4062 19.4455C21.7873 19.4455 22.1685 19.4455 22.4861 19.3819L24.2011 19.2549L22.5496 20.6523C22.232 20.6523 21.7873 20.6523 21.4062 20.6523C20.2629 20.6523 19.183 20.4618 18.1667 20.1442C17.7221 20.0171 17.2774 19.7631 16.8963 19.5725L16.8328 19.509L17.3409 18.8103C17.1504 18.7467 16.9598 18.6832 16.7693 18.6197C16.1976 18.3656 15.6894 17.9845 15.3718 17.6034L15.0542 17.921L14.9907 17.8575L10.6078 14.0463L9.2739 12.8394L4.12878 8.39298H36.5875V8.32946Z" fill="#000C28"/>
<path d="M31.0613 8.32953C31.0613 8.26601 31.0613 8.26601 31.0613 8.20249C30.9978 7.88489 30.8708 7.56729 30.7437 7.24969C30.5532 6.74153 30.2991 6.23337 29.9815 5.78873L29.918 5.66169C29.4098 4.89945 28.8381 4.20073 28.1394 3.62905C27.5042 3.05737 26.742 2.54921 25.9162 2.16809C25.154 1.78697 24.2647 1.46937 23.4389 1.27881C22.6132 1.08825 21.6604 0.961208 20.7076 0.961208C19.6277 0.961208 18.5479 1.08825 17.5316 1.40585C16.5153 1.65993 15.626 2.10457 14.7367 2.61273C13.9109 3.12089 13.0852 3.75609 12.3865 4.45481C12.0053 4.83593 11.6877 5.21705 11.3066 5.72521C11.0525 6.04281 10.7985 6.42393 10.6079 6.74153C10.5444 6.86857 10.4809 6.99561 10.3538 7.12265C10.1633 7.50377 9.9727 7.88489 9.78214 8.26601C9.6551 8.64713 9.46454 9.02825 9.40102 9.47289C9.14694 10.4257 9.0199 11.442 9.0199 12.3948C9.0199 12.5218 9.0199 12.6489 9.0199 12.7124L10.3538 13.9193L14.7367 17.7305L14.8002 17.794L19.0561 21.4782C19.1831 21.6052 19.3101 21.6687 19.4372 21.7322C19.7548 21.9228 20.0089 21.9863 20.3265 21.9863C20.517 21.9863 20.7076 21.9863 20.8981 21.9228C21.1522 21.7958 21.4063 21.6687 21.5969 21.4782L22.6132 20.5889L26.2338 17.4129L29.3463 14.6815L31.3154 12.9665C31.4425 12.3313 31.506 11.6961 31.506 11.0609C31.4425 10.1716 31.3154 9.21881 31.0613 8.32953Z" fill="#000C28"/>
<path d="M29.7909 8.58354C29.7909 8.52003 29.7274 8.39299 29.7274 8.32946C29.6638 8.13891 29.6003 7.94834 29.5368 7.75778C29.3462 7.31314 29.1557 6.8685 28.9016 6.48738C28.9016 6.48738 28.9016 6.42387 28.8381 6.42387C28.3934 5.78866 27.8853 5.15346 27.3136 4.6453C26.7419 4.13714 26.1067 3.6925 25.408 3.31138C24.7093 2.93026 23.947 2.67618 23.1848 2.48562C22.4226 2.29506 21.5968 2.23154 20.771 2.23154C19.8182 2.23154 18.8654 2.35859 17.9762 2.61267C17.0869 2.86674 16.2611 3.24786 15.4989 3.6925C14.7366 4.13714 14.0379 4.70882 13.4027 5.34402C13.0851 5.72514 12.7675 6.10626 12.4499 6.48738C12.1958 6.80498 12.0053 7.12258 11.8147 7.44018C11.7512 7.56722 11.6877 7.63074 11.6242 7.75778C11.4971 7.94834 11.4336 8.13891 11.3066 8.32946C11.0525 8.83763 10.9254 9.34579 10.7349 9.85394C10.4808 10.6797 10.3538 11.569 10.3538 12.4583C10.3538 12.9664 10.3538 13.4746 10.4173 13.9827L14.8002 17.7939C14.419 17.2858 14.0379 16.6506 13.7838 16.0154C13.3392 14.9991 13.1486 13.7922 13.1486 12.4583C13.1486 11.3784 13.3392 10.3621 13.7203 9.4093C13.8474 9.02818 14.0379 8.64707 14.2285 8.32946C14.3555 8.13891 14.4826 7.94834 14.6096 7.75778C14.8002 7.5037 14.9907 7.1861 15.2448 6.99554C15.3718 6.80499 15.5624 6.67794 15.753 6.48738C16.3246 5.97922 16.8963 5.5981 17.595 5.2805C18.4843 4.89938 19.5006 4.6453 20.5805 4.6453C21.5968 4.6453 22.4861 4.77234 23.3118 5.08994C24.1376 5.34402 24.8363 5.78866 25.408 6.29682L25.535 6.42387C25.9162 6.80499 26.2338 7.1861 26.4243 7.69427C26.5514 7.88482 26.6149 8.07539 26.6784 8.26595C26.996 9.09171 27.123 9.98098 27.123 11.0608C27.123 11.696 27.0595 12.2042 26.9325 12.7759C26.8054 13.284 26.6784 13.7287 26.4878 14.1098C26.5514 14.5544 26.2973 14.872 26.0432 15.0626C25.7891 15.3167 25.4715 15.3802 25.2174 15.3802C24.8998 15.3802 24.6458 15.3167 24.4552 15.1261C24.2011 14.9991 24.1376 14.6815 24.1376 14.3003C24.1376 13.9827 24.2011 13.6016 24.3282 13.0935L25.535 8.39298V8.32946C25.281 8.20243 25.0269 8.1389 24.8363 8.07538C24.5822 8.01186 24.3282 7.94834 24.0741 7.88482C24.0106 7.88482 23.947 7.88482 23.947 7.88482C23.7565 7.8213 23.5024 7.8213 23.2483 7.75778C22.9307 7.75778 22.6131 7.69427 22.232 7.69427C21.6603 7.69427 21.1522 7.75778 20.644 7.8213C20.4534 7.8213 20.2629 7.88482 20.0723 7.94835C19.6277 8.07539 19.183 8.20242 18.8019 8.39298C18.6114 8.4565 18.4843 8.58355 18.2938 8.64707C17.7856 8.96467 17.341 9.28226 16.9598 9.7269C16.5787 10.108 16.2611 10.5527 16.007 11.0608C15.753 11.5055 15.5624 12.0136 15.4354 12.5218C15.4354 12.9029 15.3718 13.4111 15.3718 13.9192C15.3718 14.4909 15.4354 14.9991 15.5624 15.4437C15.6894 15.8883 15.88 16.333 16.1976 16.6506C16.4517 16.9682 16.8328 17.2223 17.2139 17.4128C17.6586 17.6034 18.1032 17.7304 18.6749 17.7304C19.3101 17.7304 19.8818 17.6034 20.4534 17.3493C21.0251 17.0952 21.5333 16.7141 22.0414 16.1424C22.1685 16.46 22.2955 16.7141 22.4861 16.9047C22.6766 17.0952 22.8672 17.2858 23.1213 17.4128C23.3118 17.5399 23.5659 17.6034 23.82 17.6669C24.0741 17.7304 24.3282 17.7304 24.5822 17.7304C25.1539 17.7304 25.6621 17.6669 26.1702 17.4763L29.2827 14.745C29.4733 14.4274 29.6003 14.0463 29.7274 13.6651C29.9814 12.8394 30.172 12.0136 30.172 11.1243C30.172 10.2351 30.045 9.4093 29.7909 8.58354ZM21.2792 13.4746C21.2157 13.8557 21.0886 14.1098 20.9616 14.3639C20.8346 14.5544 20.7075 14.745 20.517 14.9355C20.3899 15.0626 20.1994 15.1261 20.0088 15.1896C19.8182 15.2531 19.6277 15.2531 19.4371 15.2531C19.1195 15.2531 18.8019 15.1261 18.6114 14.872C18.4208 14.6179 18.2938 14.2368 18.2938 13.7287C18.2938 13.2205 18.3573 12.7123 18.5478 12.2677C18.7384 11.8231 18.929 11.3784 19.2466 11.0608C19.5642 10.7432 19.8818 10.4256 20.2629 10.2351C20.771 10.108 21.1522 9.98099 21.5968 9.98099C21.7874 9.98099 21.9779 9.98098 22.232 10.0445L21.2792 13.4746Z" fill="#00D7FB"/>
</g>
<defs>
<clipPath id="clip0_1172_2086">
<rect width="40.6528" height="36.0158" fill="white" transform="matrix(1 0 0 -1 0 36.9771)"/>
</clipPath>
</defs>
</svg>
