<svg width="32" height="33" viewBox="0 0 32 33" fill="none" xmlns="http://www.w3.org/2000/svg">
<path d="M16 32.0593C7.2 32.0593 0 24.8593 0 16.0593C0 7.25933 7.2 0.0593262 16 0.0593262C24.8 0.0593262 32 7.25933 32 16.0593C32 24.8593 24.9 32.0593 16 32.0593Z" fill="#0F204E"/>
<path d="M11.9 10.7593C14.8 10.7593 17.2 13.1593 17.2 16.0593C17.2 18.9593 14.8 21.3593 11.9 21.3593C8.99998 21.3593 6.59998 18.9593 6.59998 16.0593C6.59998 13.1593 8.99998 10.7593 11.9 10.7593ZM20.4 11.0593C21.9 11.0593 23 13.2593 23 16.0593C23 18.8593 21.8 21.0593 20.4 21.0593C19 21.0593 17.8 18.8593 17.8 16.0593C17.8 13.2593 18.9 11.0593 20.4 11.0593ZM24.5 11.5593C25 11.5593 25.4 13.5593 25.4 16.0593C25.4 18.5593 25 20.5593 24.5 20.5593C24 20.5593 23.6 18.5593 23.6 16.0593C23.6 13.5593 24 11.5593 24.5 11.5593Z" fill="#00D7FB"/>
</svg>
