<svg width="48" height="49" viewBox="0 0 48 49" fill="none" xmlns="http://www.w3.org/2000/svg">
<path d="M24 47.1879C11.4024 47.1879 1 36.805 1 24.24C1 11.6751 11.4024 1.29211 24 1.29211C36.5976 1.29211 47 11.6751 47 24.24C47 36.8107 36.8006 47.1879 24 47.1879Z" fill="#000C28" stroke="#4DA6FF" stroke-width="2"/>
<path d="M25.464 25.7647C25.464 26.266 25.4107 26.7487 25.304 27.2127C25.2027 27.6713 25.0533 28.1033 24.856 28.5087C24.664 28.914 24.424 29.29 24.136 29.6367C23.8533 29.9833 23.5307 30.29 23.168 30.5567L26.12 33.7807H23.896C23.576 33.7807 23.2853 33.7407 23.024 33.6607C22.7627 33.586 22.5307 33.4313 22.328 33.1967L20.88 31.5727C20.6453 31.6207 20.4053 31.658 20.16 31.6847C19.92 31.7113 19.672 31.7247 19.416 31.7247C18.5093 31.7247 17.6827 31.5727 16.936 31.2687C16.1893 30.9647 15.5493 30.546 15.016 30.0127C14.488 29.474 14.0773 28.842 13.784 28.1167C13.496 27.3913 13.352 26.6073 13.352 25.7647C13.352 24.922 13.496 24.138 13.784 23.4127C14.0773 22.6873 14.488 22.058 15.016 21.5247C15.5493 20.9913 16.1893 20.5727 16.936 20.2687C17.6827 19.9647 18.5093 19.8127 19.416 19.8127C20.3227 19.8127 21.1467 19.9673 21.888 20.2767C22.6347 20.5807 23.272 20.9993 23.8 21.5327C24.328 22.066 24.736 22.6953 25.024 23.4207C25.3173 24.146 25.464 24.9273 25.464 25.7647ZM22.696 25.7647C22.696 25.1887 22.6213 24.6713 22.472 24.2127C22.3227 23.7487 22.1067 23.3567 21.824 23.0367C21.5467 22.7167 21.2053 22.4713 20.8 22.3007C20.3947 22.13 19.9333 22.0447 19.416 22.0447C18.8933 22.0447 18.4267 22.13 18.016 22.3007C17.6107 22.4713 17.2667 22.7167 16.984 23.0367C16.7067 23.3567 16.4933 23.7487 16.344 24.2127C16.1947 24.6713 16.12 25.1887 16.12 25.7647C16.12 26.346 16.1947 26.8687 16.344 27.3327C16.4933 27.7913 16.7067 28.1807 16.984 28.5007C17.2667 28.8207 17.6107 29.066 18.016 29.2367C18.4267 29.402 18.8933 29.4847 19.416 29.4847C19.9333 29.4847 20.3947 29.402 20.8 29.2367C21.2053 29.066 21.5467 28.8207 21.824 28.5007C22.1067 28.1807 22.3227 27.7913 22.472 27.3327C22.6213 26.8687 22.696 26.346 22.696 25.7647ZM30.6129 19.8127C31.1889 19.8127 31.7062 19.898 32.1649 20.0687C32.6289 20.234 33.0235 20.466 33.3489 20.7647C33.6742 21.0633 33.9222 21.4207 34.0929 21.8367C34.2689 22.2473 34.3569 22.7007 34.3569 23.1967C34.3569 23.6233 34.2955 24.018 34.1729 24.3807C34.0555 24.7433 33.8929 25.09 33.6849 25.4207C33.4769 25.746 33.2342 26.0633 32.9569 26.3727C32.6849 26.6767 32.3942 26.986 32.0849 27.3007L29.8049 29.6367C30.0982 29.5513 30.3862 29.4847 30.6689 29.4367C30.9569 29.3833 31.2262 29.3567 31.4769 29.3567H33.6529C33.9195 29.3567 34.1302 29.4313 34.2849 29.5807C34.4395 29.7247 34.5169 29.9167 34.5169 30.1567V31.5967H26.3249V30.7967C26.3249 30.642 26.3569 30.4767 26.4209 30.3007C26.4849 30.1247 26.5969 29.9647 26.7569 29.8207L30.1169 26.4367C30.4049 26.1487 30.6555 25.874 30.8689 25.6127C31.0822 25.3513 31.2582 25.0953 31.3969 24.8447C31.5355 24.5887 31.6395 24.3353 31.7089 24.0847C31.7782 23.8287 31.8129 23.5593 31.8129 23.2767C31.8129 22.8127 31.7009 22.458 31.4769 22.2127C31.2582 21.962 30.9222 21.8367 30.4689 21.8367C30.2822 21.8367 30.1115 21.8633 29.9569 21.9167C29.8022 21.97 29.6635 22.042 29.5409 22.1327C29.4182 22.2233 29.3115 22.33 29.2209 22.4527C29.1355 22.5753 29.0662 22.7087 29.0129 22.8527C28.9275 23.0927 28.8182 23.266 28.6849 23.3727C28.5569 23.4793 28.3809 23.5327 28.1569 23.5327C28.1035 23.5327 28.0449 23.53 27.9809 23.5247C27.9222 23.5193 27.8609 23.5113 27.7969 23.5007L26.4849 23.2687C26.5702 22.6873 26.7329 22.1807 26.9729 21.7487C27.2182 21.3167 27.5195 20.9567 27.8769 20.6687C28.2395 20.3807 28.6529 20.1673 29.1169 20.0287C29.5809 19.8847 30.0795 19.8127 30.6129 19.8127Z" fill="white"/>
</svg>
