<svg width="48" height="49" viewBox="0 0 48 49" fill="none" xmlns="http://www.w3.org/2000/svg">
<path d="M24 47.2856C11.4024 47.2856 1 36.9026 1 24.3377C1 11.7727 11.4024 1.38977 24 1.38977C36.5976 1.38977 47 11.7727 47 24.3377C47 36.9083 36.8006 47.2856 24 47.2856Z" fill="#000C28" stroke="#4DA6FF" stroke-width="2"/>
<path d="M25.464 25.7647C25.464 26.266 25.4107 26.7487 25.304 27.2127C25.2027 27.6713 25.0533 28.1033 24.856 28.5087C24.664 28.914 24.424 29.29 24.136 29.6367C23.8533 29.9833 23.5307 30.29 23.168 30.5567L26.12 33.7807H23.896C23.576 33.7807 23.2853 33.7407 23.024 33.6607C22.7627 33.586 22.5307 33.4313 22.328 33.1967L20.88 31.5727C20.6453 31.6207 20.4053 31.658 20.16 31.6847C19.92 31.7113 19.672 31.7247 19.416 31.7247C18.5093 31.7247 17.6827 31.5727 16.936 31.2687C16.1893 30.9647 15.5493 30.546 15.016 30.0127C14.488 29.474 14.0773 28.842 13.784 28.1167C13.496 27.3913 13.352 26.6073 13.352 25.7647C13.352 24.922 13.496 24.138 13.784 23.4127C14.0773 22.6873 14.488 22.058 15.016 21.5247C15.5493 20.9913 16.1893 20.5727 16.936 20.2687C17.6827 19.9647 18.5093 19.8127 19.416 19.8127C20.3227 19.8127 21.1467 19.9673 21.888 20.2767C22.6347 20.5807 23.272 20.9993 23.8 21.5327C24.328 22.066 24.736 22.6953 25.024 23.4207C25.3173 24.146 25.464 24.9273 25.464 25.7647ZM22.696 25.7647C22.696 25.1887 22.6213 24.6713 22.472 24.2127C22.3227 23.7487 22.1067 23.3567 21.824 23.0367C21.5467 22.7167 21.2053 22.4713 20.8 22.3007C20.3947 22.13 19.9333 22.0447 19.416 22.0447C18.8933 22.0447 18.4267 22.13 18.016 22.3007C17.6107 22.4713 17.2667 22.7167 16.984 23.0367C16.7067 23.3567 16.4933 23.7487 16.344 24.2127C16.1947 24.6713 16.12 25.1887 16.12 25.7647C16.12 26.346 16.1947 26.8687 16.344 27.3327C16.4933 27.7913 16.7067 28.1807 16.984 28.5007C17.2667 28.8207 17.6107 29.066 18.016 29.2367C18.4267 29.402 18.8933 29.4847 19.416 29.4847C19.9333 29.4847 20.3947 29.402 20.8 29.2367C21.2053 29.066 21.5467 28.8207 21.824 28.5007C22.1067 28.1807 22.3227 27.7913 22.472 27.3327C22.6213 26.8687 22.696 26.346 22.696 25.7647ZM30.8369 19.8127C31.4129 19.8127 31.9249 19.8953 32.3729 20.0607C32.8209 20.2207 33.1995 20.4393 33.5089 20.7167C33.8182 20.994 34.0529 21.3167 34.2129 21.6847C34.3729 22.0473 34.4529 22.4313 34.4529 22.8367C34.4529 23.2047 34.4155 23.53 34.3409 23.8127C34.2662 24.09 34.1542 24.3327 34.0049 24.5407C33.8609 24.7433 33.6795 24.9167 33.4609 25.0607C33.2475 25.2047 33.0022 25.3247 32.7249 25.4207C34.0155 25.8687 34.6609 26.746 34.6609 28.0527C34.6609 28.6713 34.5489 29.21 34.3249 29.6687C34.1009 30.1273 33.7995 30.5087 33.4209 30.8127C33.0475 31.1167 32.6129 31.346 32.1169 31.5007C31.6209 31.65 31.1035 31.7247 30.5649 31.7247C30.0102 31.7247 29.5169 31.666 29.0849 31.5487C28.6529 31.426 28.2689 31.2393 27.9329 30.9887C27.5969 30.7327 27.3009 30.4073 27.0449 30.0127C26.7942 29.618 26.5755 29.1487 26.3889 28.6047L27.4929 28.1567C27.5889 28.114 27.6822 28.0847 27.7729 28.0687C27.8689 28.0527 27.9622 28.0447 28.0529 28.0447C28.2235 28.0447 28.3755 28.0793 28.5089 28.1487C28.6475 28.2127 28.7515 28.3087 28.8209 28.4367C29.0609 28.8793 29.3142 29.202 29.5809 29.4047C29.8529 29.602 30.1702 29.7007 30.5329 29.7007C30.8102 29.7007 31.0502 29.6553 31.2529 29.5647C31.4609 29.4687 31.6315 29.3487 31.7649 29.2047C31.9035 29.0553 32.0075 28.8873 32.0769 28.7007C32.1462 28.514 32.1809 28.3247 32.1809 28.1327C32.1809 27.882 32.1622 27.658 32.1249 27.4607C32.0929 27.258 31.9969 27.0847 31.8369 26.9407C31.6769 26.7967 31.4342 26.6873 31.1089 26.6127C30.7889 26.5327 30.3409 26.4927 29.7649 26.4927V24.7807C30.2502 24.7807 30.6422 24.7433 30.9409 24.6687C31.2395 24.594 31.4689 24.4927 31.6289 24.3647C31.7942 24.2313 31.9035 24.0713 31.9569 23.8847C32.0102 23.698 32.0369 23.4927 32.0369 23.2687C32.0369 22.81 31.9249 22.458 31.7009 22.2127C31.4822 21.962 31.1462 21.8367 30.6929 21.8367C30.5062 21.8367 30.3355 21.8633 30.1809 21.9167C30.0262 21.97 29.8875 22.042 29.7649 22.1327C29.6422 22.2233 29.5355 22.33 29.4449 22.4527C29.3595 22.5753 29.2902 22.7087 29.2369 22.8527C29.1515 23.0927 29.0422 23.266 28.9089 23.3727C28.7809 23.4793 28.6049 23.5327 28.3809 23.5327C28.3275 23.5327 28.2689 23.53 28.2049 23.5247C28.1462 23.5193 28.0849 23.5113 28.0209 23.5007L26.7089 23.2687C26.7942 22.6873 26.9569 22.1807 27.1969 21.7487C27.4422 21.3167 27.7435 20.9567 28.1009 20.6687C28.4635 20.3807 28.8769 20.1673 29.3409 20.0287C29.8049 19.8847 30.3035 19.8127 30.8369 19.8127Z" fill="white"/>
</svg>
