<svg width="48" height="49" viewBox="0 0 48 49" fill="none" xmlns="http://www.w3.org/2000/svg">
<path d="M24 47.5135C11.4024 47.5135 1 37.1306 1 24.5656C1 12.0006 11.4024 1.61768 24 1.61768C36.5976 1.61768 47 12.0006 47 24.5656C47 37.1362 36.8006 47.5135 24 47.5135Z" fill="#000C28" stroke="#4DA6FF" stroke-width="2"/>
<path d="M25.464 25.7647C25.464 26.266 25.4107 26.7487 25.304 27.2127C25.2027 27.6714 25.0533 28.1034 24.856 28.5087C24.664 28.914 24.424 29.29 24.136 29.6367C23.8533 29.9834 23.5307 30.29 23.168 30.5567L26.12 33.7807H23.896C23.576 33.7807 23.2853 33.7407 23.024 33.6607C22.7627 33.586 22.5307 33.4314 22.328 33.1967L20.88 31.5727C20.6453 31.6207 20.4053 31.658 20.16 31.6847C19.92 31.7114 19.672 31.7247 19.416 31.7247C18.5093 31.7247 17.6827 31.5727 16.936 31.2687C16.1893 30.9647 15.5493 30.546 15.016 30.0127C14.488 29.474 14.0773 28.842 13.784 28.1167C13.496 27.3914 13.352 26.6074 13.352 25.7647C13.352 24.922 13.496 24.138 13.784 23.4127C14.0773 22.6874 14.488 22.058 15.016 21.5247C15.5493 20.9914 16.1893 20.5727 16.936 20.2687C17.6827 19.9647 18.5093 19.8127 19.416 19.8127C20.3227 19.8127 21.1467 19.9674 21.888 20.2767C22.6347 20.5807 23.272 20.9994 23.8 21.5327C24.328 22.066 24.736 22.6954 25.024 23.4207C25.3173 24.146 25.464 24.9274 25.464 25.7647ZM22.696 25.7647C22.696 25.1887 22.6213 24.6714 22.472 24.2127C22.3227 23.7487 22.1067 23.3567 21.824 23.0367C21.5467 22.7167 21.2053 22.4714 20.8 22.3007C20.3947 22.13 19.9333 22.0447 19.416 22.0447C18.8933 22.0447 18.4267 22.13 18.016 22.3007C17.6107 22.4714 17.2667 22.7167 16.984 23.0367C16.7067 23.3567 16.4933 23.7487 16.344 24.2127C16.1947 24.6714 16.12 25.1887 16.12 25.7647C16.12 26.346 16.1947 26.8687 16.344 27.3327C16.4933 27.7914 16.7067 28.1807 16.984 28.5007C17.2667 28.8207 17.6107 29.066 18.016 29.2367C18.4267 29.402 18.8933 29.4847 19.416 29.4847C19.9333 29.4847 20.3947 29.402 20.8 29.2367C21.2053 29.066 21.5467 28.8207 21.824 28.5007C22.1067 28.1807 22.3227 27.7914 22.472 27.3327C22.6213 26.8687 22.696 26.346 22.696 25.7647ZM33.6049 27.0687H34.8049V28.4607C34.8049 28.5834 34.7622 28.69 34.6769 28.7807C34.5969 28.8714 34.4795 28.9167 34.3249 28.9167H33.6049V31.5967H31.4449V28.9167H26.7569C26.6022 28.9167 26.4609 28.8687 26.3329 28.7727C26.2102 28.6767 26.1329 28.5567 26.1009 28.4127L25.8449 27.1887L31.2369 19.9407H33.6049V27.0687ZM31.4449 24.0287C31.4449 23.842 31.4502 23.642 31.4609 23.4287C31.4769 23.21 31.4982 22.986 31.5249 22.7567L28.4449 27.0687H31.4449V24.0287Z" fill="white"/>
</svg>
