<svg width="20" height="20" viewBox="0 0 20 20" fill="none" xmlns="http://www.w3.org/2000/svg">
<path d="M10 19.2312C4.92299 19.2312 0.769043 15.0773 0.769043 10.0002C0.769043 4.92315 4.92299 0.769202 10 0.769202C15.0771 0.769202 19.231 4.92315 19.231 10.0002C19.231 15.0773 15.0771 19.2312 10 19.2312Z" stroke="#398196" stroke-width="1.2308" stroke-miterlimit="10"/>
<path d="M10.0004 16.9236C6.15415 16.9236 3.07715 13.8466 3.07715 10.0003C3.07715 6.15408 6.15415 3.07708 10.0004 3.07708C13.8466 3.07708 16.9236 6.15408 16.9236 10.0003C16.9236 13.8466 13.8466 16.9236 10.0004 16.9236Z" fill="#000D21"/>
<path d="M6.92383 5.96658C7.09649 5.82192 7.28316 5.68658 7.48383 5.56058C7.68916 5.43458 7.90849 5.32492 8.14183 5.23158C8.37516 5.13358 8.62483 5.05892 8.89083 5.00758C9.16149 4.95158 9.45316 4.92358 9.76583 4.92358C10.2045 4.92358 10.5988 4.98192 10.9488 5.09858C11.3035 5.21525 11.6045 5.38325 11.8518 5.60258C12.0992 5.81725 12.2882 6.07858 12.4188 6.38658C12.5542 6.68992 12.6218 7.02825 12.6218 7.40158C12.6218 7.76092 12.5728 8.06892 12.4748 8.32558C12.3768 8.58225 12.2508 8.80625 12.0968 8.99758C11.9475 9.18892 11.7818 9.35458 11.5998 9.49458C11.4225 9.62992 11.2522 9.75825 11.0888 9.87958C10.9302 10.0009 10.7902 10.1199 10.6688 10.2366C10.5522 10.3533 10.4798 10.4839 10.4518 10.6286L10.2558 11.6086H8.77183L8.61783 10.4816C8.61316 10.4536 8.60849 10.4256 8.60383 10.3976C8.60383 10.3696 8.60383 10.3416 8.60383 10.3136C8.60383 10.1083 8.65283 9.92858 8.75083 9.77458C8.84883 9.62058 8.9725 9.48058 9.12183 9.35458C9.27116 9.22392 9.43216 9.10025 9.60483 8.98358C9.77749 8.86225 9.93849 8.73392 10.0878 8.59858C10.2372 8.45858 10.3608 8.30458 10.4588 8.13658C10.5568 7.96392 10.6058 7.76092 10.6058 7.52758C10.6058 7.24758 10.5125 7.02592 10.3258 6.86258C10.1438 6.69458 9.89183 6.61058 9.56983 6.61058C9.32249 6.61058 9.11483 6.63625 8.94683 6.68758C8.78349 6.73892 8.64116 6.79725 8.51983 6.86258C8.40316 6.92325 8.30049 6.97925 8.21183 7.03058C8.12316 7.08192 8.03449 7.10758 7.94583 7.10758C7.74516 7.10758 7.59583 7.02125 7.49783 6.84858L6.92383 5.96658ZM8.21183 14.1356C8.21183 13.9676 8.24216 13.8113 8.30283 13.6666C8.36816 13.5219 8.45449 13.3959 8.56183 13.2886C8.67383 13.1813 8.80449 13.0973 8.95383 13.0366C9.10316 12.9713 9.26649 12.9386 9.44383 12.9386C9.6165 12.9386 9.77749 12.9713 9.92683 13.0366C10.0762 13.0973 10.2068 13.1813 10.3188 13.2886C10.4308 13.3959 10.5172 13.5219 10.5778 13.6666C10.6432 13.8113 10.6758 13.9676 10.6758 14.1356C10.6758 14.3036 10.6432 14.4623 10.5778 14.6116C10.5172 14.7563 10.4308 14.8823 10.3188 14.9896C10.2068 15.0969 10.0762 15.1809 9.92683 15.2416C9.77749 15.3023 9.6165 15.3326 9.44383 15.3326C9.26649 15.3326 9.10316 15.3023 8.95383 15.2416C8.80449 15.1809 8.67383 15.0969 8.56183 14.9896C8.45449 14.8823 8.36816 14.7563 8.30283 14.6116C8.24216 14.4623 8.21183 14.3036 8.21183 14.1356Z" fill="#00D7FB"/>
</svg>
