<svg width="32" height="33" viewBox="0 0 32 33" fill="none" xmlns="http://www.w3.org/2000/svg">
<path d="M16 32.0593C24.8366 32.0593 32 24.8959 32 16.0593C32 7.22277 24.8366 0.0593262 16 0.0593262C7.16344 0.0593262 0 7.22277 0 16.0593C0 24.8959 7.16344 32.0593 16 32.0593Z" fill="#0F204E"/>
<path d="M26.7 16.0594C26.7 14.7594 25.7 13.7594 24.4 13.7594C23.8 13.7594 23.2 14.0594 22.8 14.4594C21.2 13.2594 19 12.5594 16.6 12.4594L17.7 7.45937L21.2 8.15938C21.2 9.05938 22 9.75937 22.9 9.75937C23.8 9.75937 24.6 9.05937 24.6 8.05937C24.6 7.05937 23.9 6.35938 22.9 6.35938C22.2 6.35938 21.7 6.75937 21.4 7.25937L17.5 6.45937C17.4 6.45937 17.3 6.45937 17.2 6.55937C17.1 6.65937 17 6.75938 17 6.85938L15.8 12.4594C13.3 12.5594 11.1 13.2594 9.49997 14.4594C9.09997 14.0594 8.49996 13.7594 7.89996 13.7594C6.59996 13.7594 5.59998 14.7594 5.59998 16.0594C5.59998 16.9594 6.19997 17.8594 6.99997 18.1594C6.99997 18.3594 6.89996 18.6594 6.89996 18.8594C6.89996 22.4594 11.1 25.3594 16.2 25.3594C21.3 25.3594 25.5 22.4594 25.5 18.8594C25.5 18.6594 25.5 18.3594 25.4 18.1594C26.1 17.8594 26.7 17.0594 26.7 16.0594ZM10.7 17.7594C10.7 16.8594 11.4 16.0594 12.4 16.0594C13.3 16.0594 14.1 16.7594 14.1 17.7594C14.1 18.6594 13.4 19.4594 12.4 19.4594C11.4 19.3594 10.7 18.6594 10.7 17.7594ZM20 22.1594C18.9 23.2594 16.7 23.3594 16 23.3594C15.4 23.3594 13.2 23.2594 12 22.1594C11.8 21.9594 11.8 21.7594 12 21.5594C12.2 21.3594 12.4 21.3594 12.6 21.5594C13.3 22.2594 14.9 22.5594 15.9 22.5594C17 22.5594 18.5 22.2594 19.2 21.5594C19.4 21.3594 19.6 21.3594 19.8 21.5594C20.2 21.6594 20.2 21.9594 20 22.1594ZM19.7 19.3594C18.8 19.3594 18 18.6594 18 17.6594C18 16.7594 18.7 15.9594 19.7 15.9594C20.6 15.9594 21.4 16.6594 21.4 17.6594C21.4 18.6594 20.6 19.3594 19.7 19.3594Z" fill="#00D7FB"/>
</svg>
