<svg width="21" height="24" viewBox="0 0 21 24" fill="none" xmlns="http://www.w3.org/2000/svg">
<g clip-path="url(#clip0_401_8889)">
<path d="M16.9766 0.923077V23.0769C16.9766 23.5846 17.3919 24 17.8996 24H19.7458C20.2535 24 20.6689 23.5846 20.6689 23.0769V0.923077C20.6689 0.415384 20.2535 0 19.7458 0H17.8996C17.3919 0 16.9766 0.415384 16.9766 0.923077Z" fill="#00D7FB"/>
<path d="M11.4385 11.0769V23.0769C11.4385 23.5846 11.8539 24 12.3616 24H14.2077C14.7154 24 15.1308 23.5846 15.1308 23.0769V11.0769C15.1308 10.5692 14.7154 10.1538 14.2077 10.1538H12.3616C11.8539 10.1538 11.4385 10.5692 11.4385 11.0769Z" fill="#00D7FB"/>
<path d="M5.8999 5.53846V23.0769C5.8999 23.5846 6.31529 24 6.82298 24H8.66913C9.17683 24 9.59221 23.5846 9.59221 23.0769V5.53846C9.59221 5.03077 9.17683 4.61539 8.66913 4.61539H6.82298C6.31529 4.61539 5.8999 5.03077 5.8999 5.53846Z" fill="#00D7FB"/>
<path d="M0.361328 14.7692V23.0769C0.361328 23.5846 0.776713 24 1.28441 24H3.13056C3.63825 24 4.05364 23.5846 4.05364 23.0769V14.7692C4.05364 14.2615 3.63825 13.8462 3.13056 13.8462H1.28441C0.776713 13.8462 0.361328 14.2615 0.361328 14.7692Z" fill="#00D7FB"/>
</g>
<defs>
<clipPath id="clip0_401_8889">
<rect width="20.3077" height="24" fill="white" transform="matrix(1 0 0 -1 0.361328 24)"/>
</clipPath>
</defs>
</svg>
