<svg width="36" height="37" viewBox="0 0 36 37" fill="none" xmlns="http://www.w3.org/2000/svg">
<g clip-path="url(#clip0_223_2594)">
<path d="M18 36.5967C27.9411 36.5967 36 28.5378 36 18.5967C36 8.65555 27.9411 0.59668 18 0.59668C8.05887 0.59668 0 8.65555 0 18.5967C0 28.5378 8.05887 36.5967 18 36.5967Z" fill="url(#paint0_radial_223_2594)"/>
<path d="M18 25.3467C21.7279 25.3467 24.75 22.3246 24.75 18.5967C24.75 14.8688 21.7279 11.8467 18 11.8467C14.2721 11.8467 11.25 14.8688 11.25 18.5967C11.25 22.3246 14.2721 25.3467 18 25.3467Z" fill="#00D7FB"/>
<path d="M18 12.5967C21.3 12.5967 24 15.2967 24 18.5967C24 21.8967 21.3 24.5967 18 24.5967C14.7 24.5967 12 21.8967 12 18.5967C12 15.2967 14.7 12.5967 18 12.5967ZM18 11.0967C13.875 11.0967 10.5 14.4717 10.5 18.5967C10.5 22.7217 13.875 26.0967 18 26.0967C22.125 26.0967 25.5 22.7217 25.5 18.5967C25.5 14.4717 22.125 11.0967 18 11.0967Z" fill="#000C28"/>
</g>
<defs>
<radialGradient id="paint0_radial_223_2594" cx="0" cy="0" r="1" gradientUnits="userSpaceOnUse" gradientTransform="translate(13.6345 10.1412) scale(20.3998)">
<stop stop-color="#00D7FB"/>
<stop offset="1" stop-color="#1A77FF"/>
</radialGradient>
<clipPath id="clip0_223_2594">
<rect width="36" height="36" fill="white" transform="translate(0 0.59668)"/>
</clipPath>
</defs>
</svg>
