<svg width="32" height="32" viewBox="0 0 32 32" fill="none" xmlns="http://www.w3.org/2000/svg">
<path d="M16 32C24.8366 32 32 24.8366 32 16C32 7.16344 24.8366 0 16 0C7.16344 0 0 7.16344 0 16C0 24.8366 7.16344 32 16 32Z" fill="#1A77FF"/>
<path d="M21.2412 8.43449V25.3172H23.9998V8.43449C23.9998 7.66207 23.3378 7 22.5653 7C21.7929 7 21.2412 7.66207 21.2412 8.43449Z" fill="#000C28"/>
<path d="M16.8276 15.8276V24.9862H19.5863V15.8276C19.5863 15.0551 18.9242 14.3931 18.1518 14.3931C17.4897 14.3931 16.8276 15.0551 16.8276 15.8276Z" fill="#000C28"/>
<path d="M12.4138 11.6344V24.9862H15.1724V11.6344C15.1724 10.862 14.5104 10.2 13.738 10.2C13.0759 10.2 12.4138 10.862 12.4138 11.6344Z" fill="#000C28"/>
<path d="M8 18.5861V24.8757H10.7586V18.5861C10.7586 17.8137 10.0966 17.1516 9.32414 17.1516C8.66207 17.262 8 17.8137 8 18.5861Z" fill="#000C28"/>
</svg>
