<svg width="22" height="20" viewBox="0 0 22 20" fill="none" xmlns="http://www.w3.org/2000/svg">
<path d="M21.7 10C21.7 8.70005 20.7 7.70005 19.4 7.70005C18.8 7.70005 18.2 8.00005 17.8 8.40005C16.2 7.20005 14 6.50005 11.6 6.40005L12.7 1.40005L16.2 2.10005C16.2 3.00005 17 3.70005 17.9 3.70005C18.8 3.70005 19.6 3.00005 19.6 2.00005C19.6 1.00005 18.9 0.300049 17.9 0.300049C17.2 0.300049 16.7 0.700048 16.4 1.20005L12.5 0.400049C12.4 0.400049 12.3 0.400049 12.2 0.500049C12.1 0.600049 12 0.700049 12 0.800049L10.8 6.40005C8.29996 6.50005 6.09997 7.20005 4.49997 8.40005C4.09997 8.00005 3.49996 7.70005 2.89996 7.70005C1.59996 7.70005 0.599976 8.70005 0.599976 10C0.599976 10.9 1.19997 11.8 1.99997 12.1C1.99997 12.3 1.89996 12.6 1.89996 12.8C1.89996 16.4 6.09998 19.3 11.2 19.3C16.3 19.3 20.5 16.4 20.5 12.8C20.5 12.6 20.5 12.3 20.4 12.1C21.1 11.8 21.7 11 21.7 10ZM5.69998 11.7C5.69998 10.8 6.39996 10 7.39996 10C8.29996 10 9.09998 10.7 9.09998 11.7C9.09998 12.6 8.39996 13.4 7.39996 13.4C6.39996 13.3 5.69998 12.6 5.69998 11.7ZM15 16.1C13.9 17.2 11.7 17.3 11 17.3C10.4 17.3 8.19997 17.2 6.99997 16.1C6.79997 15.9 6.79997 15.7 6.99997 15.5C7.19997 15.3 7.39998 15.3 7.59998 15.5C8.29998 16.2 9.89996 16.5 10.9 16.5C12 16.5 13.5 16.2 14.2 15.5C14.4 15.3 14.6 15.3 14.8 15.5C15.2 15.6 15.2 15.9 15 16.1ZM14.7 13.3C13.8 13.3 13 12.6 13 11.6C13 10.7 13.7 9.90005 14.7 9.90005C15.6 9.90005 16.4 10.6 16.4 11.6C16.4 12.6 15.6 13.3 14.7 13.3Z" fill="#000C28"/>
</svg>
