<svg width="20" height="20" viewBox="0 0 20 20" fill="none" xmlns="http://www.w3.org/2000/svg">
<path d="M10 19.231C4.92299 19.231 0.769043 15.077 0.769043 9.99999C0.769043 4.92294 4.92299 0.768988 10 0.768988C15.0771 0.768988 19.231 4.92294 19.231 9.99999C19.231 15.077 15.0771 19.231 10 19.231Z" stroke="#398196" stroke-width="1.2308" stroke-miterlimit="10"/>
<path d="M10.0004 16.9232C6.15415 16.9232 3.07715 13.8462 3.07715 10C3.07715 6.15375 6.15415 3.07675 10.0004 3.07675C13.8466 3.07675 16.9236 6.15375 16.9236 10C16.9236 13.8462 13.8466 16.9232 10.0004 16.9232Z" fill="#000D21"/>
<path d="M6.92383 5.96625C7.09649 5.82158 7.28316 5.68625 7.48383 5.56025C7.68916 5.43425 7.90849 5.32458 8.14183 5.23125C8.37516 5.13325 8.62483 5.05858 8.89083 5.00725C9.16149 4.95125 9.45316 4.92325 9.76583 4.92325C10.2045 4.92325 10.5988 4.98158 10.9488 5.09825C11.3035 5.21491 11.6045 5.38291 11.8518 5.60225C12.0992 5.81691 12.2882 6.07825 12.4188 6.38625C12.5542 6.68958 12.6218 7.02792 12.6218 7.40125C12.6218 7.76058 12.5728 8.06858 12.4748 8.32525C12.3768 8.58191 12.2508 8.80591 12.0968 8.99725C11.9475 9.18858 11.7818 9.35425 11.5998 9.49425C11.4225 9.62958 11.2522 9.75792 11.0888 9.87925C10.9302 10.0006 10.7902 10.1196 10.6688 10.2362C10.5522 10.3529 10.4798 10.4836 10.4518 10.6282L10.2558 11.6082H8.77183L8.61783 10.4812C8.61316 10.4532 8.60849 10.4252 8.60383 10.3972C8.60383 10.3692 8.60383 10.3412 8.60383 10.3132C8.60383 10.1079 8.65283 9.92825 8.75083 9.77425C8.84883 9.62025 8.9725 9.48025 9.12183 9.35425C9.27116 9.22358 9.43216 9.09992 9.60483 8.98325C9.77749 8.86192 9.93849 8.73358 10.0878 8.59825C10.2372 8.45825 10.3608 8.30425 10.4588 8.13625C10.5568 7.96358 10.6058 7.76058 10.6058 7.52725C10.6058 7.24725 10.5125 7.02558 10.3258 6.86225C10.1438 6.69425 9.89183 6.61025 9.56983 6.61025C9.32249 6.61025 9.11483 6.63591 8.94683 6.68725C8.78349 6.73858 8.64116 6.79691 8.51983 6.86225C8.40316 6.92291 8.30049 6.97891 8.21183 7.03025C8.12316 7.08158 8.03449 7.10725 7.94583 7.10725C7.74516 7.10725 7.59583 7.02092 7.49783 6.84825L6.92383 5.96625ZM8.21183 14.1352C8.21183 13.9672 8.24216 13.8109 8.30283 13.6662C8.36816 13.5216 8.45449 13.3956 8.56183 13.2882C8.67383 13.1809 8.80449 13.0969 8.95383 13.0362C9.10316 12.9709 9.26649 12.9382 9.44383 12.9382C9.6165 12.9382 9.77749 12.9709 9.92683 13.0362C10.0762 13.0969 10.2068 13.1809 10.3188 13.2882C10.4308 13.3956 10.5172 13.5216 10.5778 13.6662C10.6432 13.8109 10.6758 13.9672 10.6758 14.1352C10.6758 14.3032 10.6432 14.4619 10.5778 14.6112C10.5172 14.7559 10.4308 14.8819 10.3188 14.9892C10.2068 15.0966 10.0762 15.1806 9.92683 15.2412C9.77749 15.3019 9.6165 15.3322 9.44383 15.3322C9.26649 15.3322 9.10316 15.3019 8.95383 15.2412C8.80449 15.1806 8.67383 15.0966 8.56183 14.9892C8.45449 14.8819 8.36816 14.7559 8.30283 14.6112C8.24216 14.4619 8.21183 14.3032 8.21183 14.1352Z" fill="#00D7FB"/>
</svg>
