<svg width="376" height="52" viewBox="0 0 376 52" fill="none" xmlns="http://www.w3.org/2000/svg">
<path d="M0.895996 45.8852C0.895996 48.463 3.00511 50.5722 5.58291 50.5722H371.162C373.74 50.5722 375.849 48.463 375.849 45.8852V4.4998C375.849 4.4998 362.304 -0.0465092 338.354 0.000359915C319.559 0.000359915 296.734 6.51994 272.737 8.01975C248.74 9.51957 220.806 2.38338 196.34 3.46137C177.64 4.30502 164.704 11.2142 143.378 11.2142C130.817 11.2142 115.866 4.6404 94.2124 5.9996C71.7621 7.35881 50.9054 12.5613 34.5012 11.8114C17.4408 11.0146 0.895996 3.04685 0.895996 3.04685V45.8852Z" fill="#251E68"/>
<path d="M0.89599 45.8853C0.89599 48.4631 3.0051 50.5722 5.5829 50.5722H371.162C373.74 50.5722 375.849 48.4631 375.849 45.8853V17.4826C375.849 17.4826 362.773 21.4665 340.229 23.8568C305.311 27.6063 277.424 18.9824 248.365 16.4983C196.106 12.0458 158.658 22.4039 128.849 22.4039C112.023 22.4039 92.9001 17.5295 68.6688 18.7949C50.671 19.7323 35.2511 21.8883 18.6594 20.8572C6.1922 20.0604 0.849121 18.9355 0.849121 18.9355V45.8853H0.89599Z" fill="#1E0F57"/>
<path d="M0.849121 51.3125H375.802C375.802 44.2009 375.802 37.0893 375.802 29.9777C375.802 29.9777 360.663 27.9068 343.416 29.1589C320.028 30.8445 303.296 36.4792 280.189 37.5869C253.38 38.8391 238.804 30.0258 209.417 27.2807C176.046 24.1503 145.862 33.397 106.352 33.397C77.574 33.397 58.9669 29.4479 38.3445 26.7028C17.7221 23.9577 0.849188 26.1249 0.849188 26.1249C0.849188 34.5207 0.84938 42.9166 0.849121 51.3125Z" fill="#000C28"/>
</svg>
