<svg width="376" height="41" viewBox="0 0 376 41" fill="none" xmlns="http://www.w3.org/2000/svg">
<path d="M0.849137 40.0246H375.802C375.802 24.8744 375.802 23.5893 375.802 8.43907C375.802 8.43907 362.257 3.95412 338.307 4.00036C319.512 4.00036 296.687 10.432 272.69 11.9115C248.693 13.3911 220.759 6.35122 196.293 7.41466C177.593 8.24692 164.657 15.0628 143.331 15.0628C130.77 15.0628 115.819 8.57777 94.1656 9.91864C71.7153 11.2595 50.8585 16.3918 34.4543 15.652C17.3939 14.866 0.849137 7.00573 0.849137 7.00573V40.0246Z" fill="#251E68"/>
<path d="M0.895516 39.8458H375.849C375.849 28.9648 375.849 27.9489 375.849 17.0678C375.849 17.0678 362.773 20.998 340.228 23.356C305.311 27.0549 277.424 18.5474 248.365 16.0969C196.106 11.7044 158.658 21.9227 128.849 21.9227C112.023 21.9227 89.9874 18.3625 68.6687 18.3625C47.3501 18.3625 31.9302 21.4894 15.3385 20.4721C2.87131 19.6861 0.849121 15.5012 0.849121 15.5012C0.867461 25.9044 0.89789 29.4426 0.895516 39.8458Z" fill="#131E52"/>
<g opacity="0.3">
<path d="M375.802 5.43907C375.802 5.43907 362.257 0.954118 338.307 1.00036C319.512 1.00036 296.687 7.43195 272.69 8.91152C248.693 10.3911 220.759 3.35122 196.293 4.41466C177.593 5.24692 164.657 12.0628 143.331 12.0628C130.77 12.0628 115.819 5.57777 94.1656 6.91864C71.7153 8.2595 50.8585 13.3918 34.4543 12.652C17.3939 11.866 0.849121 4.00573 0.849121 4.00573" stroke="#1A77FF"/>
<path d="M0.895516 39.8458H375.849C375.849 28.9648 375.849 27.9489 375.849 17.0678C375.849 17.0678 362.773 20.998 340.228 23.356C305.311 27.0549 277.424 18.5474 248.365 16.0969C196.106 11.7044 158.658 21.9227 128.849 21.9227C112.023 21.9227 89.9874 18.3625 68.6687 18.3625C47.3501 18.3625 31.9302 21.4894 15.3385 20.4721C2.87131 19.6861 0.849121 15.5012 0.849121 15.5012C0.867461 25.9044 0.89789 29.4426 0.895516 39.8458Z" fill="#131E52"/>
<path d="M375.849 17.0678C375.849 17.0678 362.773 20.998 340.228 23.356C305.311 27.0549 277.424 18.5474 248.365 16.0969C196.106 11.7044 158.658 21.9227 128.849 21.9227C112.023 21.9227 89.9874 18.3625 68.6687 18.3625C47.3501 18.3625 31.9302 21.4894 15.3385 20.4721C2.87131 19.6861 0.849121 15.5012 0.849121 15.5012" stroke="#5E5AFF"/>
</g>
</svg>
