<svg width="32" height="32" viewBox="0 0 32 32" fill="none" xmlns="http://www.w3.org/2000/svg">
<g clip-path="url(#clip0_1870_2727)">
<path d="M15.9995 32C7.19951 32 -0.000488281 24.8 -0.000488281 16C-0.000488281 7.2 7.19951 0 15.9995 0C24.7995 0 31.9995 7.2 31.9995 16C31.9995 24.8 24.7995 32 15.9995 32Z" fill="white"/>
<path d="M22.3995 8.5H24.9995L19.5995 13.9C17.5995 15.8 14.4995 15.8 12.4995 13.9L6.99951 8.5H9.59951L13.6995 12.6C14.8995 13.8 16.8995 13.8 18.1995 12.6L22.3995 8.5Z" fill="#23292F"/>
<path d="M9.59951 23.5H6.99951L12.3995 18.1C14.3995 16.2 17.4995 16.2 19.4995 18.1L24.8995 23.5H22.2995L18.1995 19.4C16.9995 18.2 14.9995 18.2 13.6995 19.4L9.59951 23.5Z" fill="#23292F"/>
</g>
<defs>
<clipPath id="clip0_1870_2727">
<rect width="32" height="32" fill="white" transform="translate(-0.000488281)"/>
</clipPath>
</defs>
</svg>
