<svg width="140" height="26" viewBox="0 0 140 26" fill="none" xmlns="http://www.w3.org/2000/svg">
<g clip-path="url(#clip0_121_689)">
<path d="M43.7 0H39.5L39.6 0.3C39.7 0.5 48.1 20 48.6 21.3C49.1 22.5 49.7 23.9 50.1 25.4V25.6H51.4L51.5 25.5C51.5 25.5 52.8 22.4 52.9 21.9V21.8L43.8 0.2L43.7 0Z" fill="white"/>
<path d="M24.8 13.0001H35.4V11.5001H24.8V1.5001H36.1L36 0.100098H21V0.300098C21 1.1001 21 2.0001 21 2.0001V25.2001H36.8L37 23.7001H24.8V13.0001Z" fill="white"/>
<path d="M3.8 0.100098H0V25.2001H15.3L15.5 23.7001H3.8V0.100098Z" fill="white"/>
<path d="M87.1 11.3C88.8 10.6 91.3 9.3 91.3 5.7C91.3 4.2 90.8 2.9 89.9 2C87.9 0 84.5 0 84.3 0H75.5V25.1H76.6C77.6 25.1 78.6 25.1 79.7 25.2C80.6 25.3 81.4 25.3 82 25.3C91.8 25.3 92.8 20 92.8 17.8C92.8 13.2 88.9 11.7 87.1 11.3ZM79.2 1.5C79.5 1.4 80.1 1.4 81.3 1.4C85.4 1.4 87.4 3 87.4 6.3C87.4 11.1 83.8 11.5 80.2 11.5C79.8 11.5 79.4 11.5 79.2 11.5V1.5ZM82.5 24.1C80.3 24.1 79.3 23.9 79.3 18.9V12.8C79.6 12.8 80.2 12.7 81.1 12.7H81.3C81.4 12.7 81.5 12.7 81.6 12.7C82.9 12.7 85.7 12.8 87.4 14.5C88.3 15.4 88.7 16.6 88.7 18C88.7 23.5 84.3 24.1 82.5 24.1Z" fill="white"/>
<path d="M61.7 19.8L58.2 11.4L63.6 0H61.8L57.5 9.6L53.6 0H49.5L49.6 0.3C49.7 0.5 57.6 20 58.1 21.3C58.6 22.5 59.2 23.9 59.6 25.4V25.6H61L61.1 25.5C61.1 25.5 62.4 22.4 62.5 21.9L71.6 0H69.7L61.7 19.8Z" fill="white"/>
<path d="M138.4 0.100098V19.5001L122.5 0.100098H122.4H120.4V25.2001H122V5.5001L138.8 25.8001H138.9H140V0.100098H138.4Z" fill="white"/>
<path d="M102.4 13H113V11.5H102.4V1.5H113.7L113.6 0H98.6001V0.2C98.6001 1.1 98.6001 1.9 98.6001 1.9V25.1H114.4L114.6 23.6H102.4V13Z" fill="white"/>
</g>
<defs>
<clipPath id="clip0_121_689">
<rect width="140" height="25.8" fill="white"/>
</clipPath>
</defs>
</svg>
