<svg width="33" height="33" viewBox="0 0 33 33" fill="none" xmlns="http://www.w3.org/2000/svg">
<path d="M16.7998 32.8C7.9998 32.8 0.799805 25.6 0.799805 16.8C0.799805 8.00005 7.9998 0.800049 16.7998 0.800049C25.5998 0.800049 32.7998 8.00005 32.7998 16.8C32.7998 25.7 25.5998 32.8 16.7998 32.8Z" fill="#F7931A"/>
<path d="M25.8 14.5002C26.2 12.0002 24.3 10.6001 21.6 9.70015L22.5 6.30016L20.4 5.80016L19.6 9.10016C19.1 9.00016 18.5 8.80015 17.9 8.70015L18.7 5.40015L16.6 4.90015L15.7 8.30016C15.2 8.20016 14.8 8.10015 14.4 8.00015L11.5 7.30016L10.9 9.50015L12.4 9.90015C13.2 10.1001 13.4 10.7002 13.4 11.1002L12.4 15.0002C12.5 15.0002 12.5 15.0002 12.6 15.1002C12.5 15.1002 12.5 15.1002 12.4 15.0002L11 20.5002C10.9 20.8002 10.6 21.1002 10 21.0002L8.5 20.6002L7.5 23.0002L10.2 23.7001C10.7 23.8001 11.2 24.0002 11.7 24.1002L10.8 27.6002L12.9 28.1002L13.8 24.7001C14.4 24.9002 14.9 25.0002 15.5 25.1002L14.7 28.5002L16.8 29.0002L17.7 25.6002C21.2 26.3002 23.9 26.0002 25 22.8002C25.9 20.2002 25 18.7002 23.1 17.8002C24.5 17.2002 25.5 16.3002 25.8 14.5002ZM21.1 21.1002C20.5 23.7002 16.1 22.3001 14.7 21.9001L15.8 17.3002C17.2 17.8002 21.7 18.5002 21.1 21.1002ZM21.7 14.4001C21.1 16.7001 17.5 15.6002 16.3 15.3002L17.3 11.1002C18.5 11.5002 22.3 12.0001 21.7 14.4001Z" fill="white"/>
</svg>
