<svg width="32" height="32" viewBox="0 0 32 32" fill="none" xmlns="http://www.w3.org/2000/svg">
<path d="M32 16C32 24.8 24.8 32 16 32C7.2 32 0 24.8 0 16C0 7.2 7.2 0 16 0C16.3 0 16.7 0 17 0C25 0.5 31.5 6.9 32 15C32 15.3 32 15.7 32 16Z" fill="#00D7FB"/>
<g clip-path="url(#clip0_668_3940)">
<path d="M19.062 17.7802L24.0061 21.0002C24.5961 20.1602 25.064 19.2002 25.3489 18.1802L19.5707 16.6802L19.062 17.7802Z" fill="#000C28"/>
<path d="M16.0101 12.26C17.9633 12.26 19.5706 13.72 19.6724 15.58L25.6541 15.2C25.5727 13.82 25.0233 12.32 24.1892 10.86C22.5818 8.4 19.8148 6.72 16.6205 6.52C16.417 6.52 16.2136 6.5 16.0101 6.5C15.766 6.5 15.5218 6.52 15.2573 6.54L15.7253 12.28C15.827 12.26 15.9287 12.26 16.0101 12.26Z" fill="#000C28"/>
<path d="M12.3682 16.2998L6.32544 17.0198C6.48821 18.1398 6.85443 19.1998 7.38343 20.1598L12.714 17.3398L12.3682 16.2998Z" fill="#000C28"/>
<path d="M14.4028 12.6202L12.0426 7.22021C9.0111 8.52021 6.79339 11.2802 6.32544 14.5402L12.3682 15.2802C12.5513 14.1002 13.3244 13.1202 14.4028 12.6202Z" fill="#000C28"/>
<path d="M16.9662 19.5399C16.9662 19.5399 16.9459 19.5399 16.9256 19.5399C16.7831 19.5799 16.6611 19.5999 16.5186 19.6199H16.4779C16.3355 19.6399 16.1728 19.6399 16.0303 19.6399C15.8472 19.6399 15.6641 19.6399 15.481 19.5999C15.3996 19.5999 15.2979 19.5799 15.2165 19.5599C15.1555 19.5399 15.0741 19.5399 15.013 19.5199C14.8706 19.4799 14.7282 19.4399 14.6061 19.3799C14.5044 19.3399 14.4027 19.2999 14.3009 19.2399C13.8533 19.0199 13.4871 18.7199 13.1819 18.3799L8.52271 22.0999C9.31619 23.0399 10.3131 23.8199 11.4729 24.3999C11.7374 24.5399 12.0019 24.6599 12.2867 24.7799C12.4495 24.8399 12.5919 24.8999 12.7546 24.9599C12.8564 24.9999 12.9581 25.0199 13.0802 25.0599C13.2633 25.1199 13.4261 25.1599 13.6092 25.1999C13.8126 25.2399 14.0161 25.2999 14.2399 25.3399C14.4434 25.3799 14.6265 25.3999 14.8299 25.4199C15.2165 25.4599 15.6234 25.4999 16.0303 25.4999C16.6 25.4999 17.129 25.4599 17.658 25.3599C17.9225 25.3199 18.187 25.2599 18.4515 25.1999C18.4718 25.1999 18.5125 25.1799 18.5532 25.1799C19.8147 24.8599 20.954 24.2999 21.9713 23.5599L18.248 18.9199C17.8818 19.1999 17.4342 19.4199 16.9662 19.5399Z" fill="#000C28"/>
</g>
<defs>
<clipPath id="clip0_668_3940">
<rect width="20" height="20" fill="white" transform="translate(6 6)"/>
</clipPath>
</defs>
</svg>
