<svg width="24" height="25" viewBox="0 0 24 25" fill="none" xmlns="http://www.w3.org/2000/svg">
<rect x="0.5" y="0.96167" width="23" height="23" rx="3.5" fill="white" stroke="#300A6E"/>
<path d="M24 4.22169V7.98169H23.24C22.84 7.98169 22.48 7.66169 22.48 7.22169C22.48 6.82169 22.16 6.46169 21.72 6.46169H20.24C19.84 6.46169 19.48 6.78169 19.48 7.22169C19.48 7.62169 19.16 7.98169 18.72 7.98169H17.24C16.84 7.98169 16.48 7.66169 16.48 7.22169C16.48 6.82169 16.16 6.46169 15.72 6.46169H14.24C13.84 6.46169 13.48 6.78169 13.48 7.22169C13.48 7.62169 13.16 7.98169 12.72 7.98169H11.24C10.84 7.98169 10.48 7.66169 10.48 7.22169C10.48 6.82169 10.16 6.46169 9.72 6.46169H8.24C7.84 6.46169 7.48 6.78169 7.48 7.22169C7.48 7.62169 7.16 7.98169 6.72 7.98169H5.24C4.84 7.98169 4.48 7.66169 4.48 7.22169C4.48 6.82169 4.16 6.46169 3.72 6.46169H2.24C1.84 6.46169 1.48 6.78169 1.48 7.22169C1.48 7.62169 1.16 7.98169 0.72 7.98169H0V4.22169C0 2.14169 1.68 0.461689 3.76 0.461689H20.24C22.32 0.461689 24 2.14169 24 4.22169Z" fill="#300A6E"/>
<path d="M7.25 13.4602H5.75C5.3375 13.4602 5 13.1227 5 12.7102V11.2102C5 10.7977 5.3375 10.4602 5.75 10.4602H7.25C7.6625 10.4602 8 10.7977 8 11.2102V12.7102C8 13.1227 7.6625 13.4602 7.25 13.4602Z" fill="#300A6E"/>
<path d="M12.7212 13.4602H11.2212C10.8087 13.4602 10.4712 13.1227 10.4712 12.7102V11.2102C10.4712 10.7977 10.8087 10.4602 11.2212 10.4602H12.7212C13.1337 10.4602 13.4712 10.7977 13.4712 11.2102V12.7102C13.4712 13.1227 13.1337 13.4602 12.7212 13.4602Z" fill="#300A6E"/>
<path d="M18.7212 13.4602H17.2212C16.8087 13.4602 16.4712 13.1227 16.4712 12.7102V11.2102C16.4712 10.7977 16.8087 10.4602 17.2212 10.4602H18.7212C19.1337 10.4602 19.4712 10.7977 19.4712 11.2102V12.7102C19.4712 13.1227 19.1337 13.4602 18.7212 13.4602Z" fill="#300A6E"/>
<path d="M7.25 19.4602H5.75C5.3375 19.4602 5 19.1227 5 18.7102V17.2102C5 16.7977 5.3375 16.4602 5.75 16.4602H7.25C7.6625 16.4602 8 16.7977 8 17.2102V18.7102C8 19.1227 7.6625 19.4602 7.25 19.4602Z" fill="#300A6E"/>
<path d="M12.7212 19.4602H11.2212C10.8087 19.4602 10.4712 19.1227 10.4712 18.7102V17.2102C10.4712 16.7977 10.8087 16.4602 11.2212 16.4602H12.7212C13.1337 16.4602 13.4712 16.7977 13.4712 17.2102V18.7102C13.4712 19.1227 13.1337 19.4602 12.7212 19.4602Z" fill="#300A6E"/>
<path d="M18.7212 19.4602H17.2212C16.8087 19.4602 16.4712 19.1227 16.4712 18.7102V17.2102C16.4712 16.7977 16.8087 16.4602 17.2212 16.4602H18.7212C19.1337 16.4602 19.4712 16.7977 19.4712 17.2102V18.7102C19.4712 19.1227 19.1337 19.4602 18.7212 19.4602Z" fill="#300A6E"/>
</svg>
