<svg width="105" height="8" viewBox="0 0 105 8" fill="none" xmlns="http://www.w3.org/2000/svg">
<path d="M104.354 4.31516C104.549 4.1199 104.549 3.80332 104.354 3.60806L101.172 0.426075C100.976 0.230813 100.66 0.230813 100.465 0.426075C100.269 0.621337 100.269 0.93792 100.465 1.13318L103.293 3.96161L100.465 6.79004C100.269 6.9853 100.269 7.30188 100.465 7.49714C100.66 7.6924 100.976 7.6924 101.172 7.49714L104.354 4.31516ZM0.346642 3.60806C0.15138 3.80332 0.15138 4.1199 0.346642 4.31516L3.52862 7.49714C3.72388 7.6924 4.04047 7.6924 4.23573 7.49714C4.43099 7.30188 4.43099 6.9853 4.23573 6.79004L1.4073 3.96161L4.23573 1.13318C4.43099 0.93792 4.43099 0.621337 4.23573 0.426075C4.04047 0.230813 3.72388 0.230813 3.52862 0.426075L0.346642 3.60806ZM0.700195 4.46161H1.69346V3.46161H0.700195V4.46161ZM3.68 4.46161H5.66654V3.46161H3.68V4.46161ZM7.65308 4.46161H9.63962V3.46161H7.65308V4.46161ZM11.6262 4.46161H13.6127V3.46161H11.6262V4.46161ZM15.5992 4.46161H17.5858V3.46161H15.5992V4.46161ZM19.5723 4.46161H21.5588V3.46161H19.5723V4.46161ZM23.5454 4.46161H25.5319V3.46161H23.5454V4.46161ZM27.5185 4.46161H29.505V3.46161H27.5185V4.46161ZM31.4915 4.46161H33.4781V3.46161H31.4915V4.46161ZM35.4646 4.46161H37.4511V3.46161H35.4646V4.46161ZM39.4377 4.46161H41.4242V3.46161H39.4377V4.46161ZM43.4108 4.46161H45.3973V3.46161H43.4108V4.46161ZM47.3838 4.46161H49.3704V3.46161H47.3838V4.46161ZM51.3569 4.46161H53.3434V3.46161H51.3569V4.46161ZM55.33 4.46161H57.3165V3.46161H55.33V4.46161ZM59.3031 4.46161H61.2896V3.46161H59.3031V4.46161ZM63.2761 4.46161H65.2627V3.46161H63.2761V4.46161ZM67.2492 4.46161H69.2358V3.46161H67.2492V4.46161ZM71.2223 4.46161H73.2088V3.46161H71.2223V4.46161ZM75.1954 4.46161H77.1819V3.46161H75.1954V4.46161ZM79.1685 4.46161H81.155V3.46161H79.1685V4.46161ZM83.1416 4.46161H85.1281V3.46161H83.1416V4.46161ZM87.1146 4.46161H89.1012V3.46161H87.1146V4.46161ZM91.0877 4.46161H93.0743V3.46161H91.0877V4.46161ZM95.0608 4.46161H97.0473V3.46161H95.0608V4.46161ZM99.0339 4.46161H101.02V3.46161H99.0339V4.46161ZM103.007 4.46161H104V3.46161H103.007V4.46161Z" fill="#4171B9"/>
</svg>
