<svg width="160" height="47" viewBox="0 0 160 47" fill="none" xmlns="http://www.w3.org/2000/svg">
<path d="M118.3 17.9C117.1 17.9 116.2 16.9 116.2 15.8C116.2 15.2 116.4 14.7 116.8 14.3C117.2 13.9 117.7 13.7 118.3 13.7C118.9 13.7 119.4 13.9 119.8 14.3C120.2 14.7 120.4 15.2 120.4 15.8C120.4 16.4 120.2 16.9 119.8 17.3C119.4 17.7 118.9 18 118.3 17.9Z" fill="white"/>
<path d="M91.3 19.1001H94.8V32.5001H91.3V31.0001C90.4 32.3001 88.9 33.0001 87.3 32.9001C85.9 32.9001 84.6 32.4001 83.7 31.4001C82.7 30.3001 82.2 28.8001 82.2 27.3001V19.1001H85.7V26.9001C85.7 27.7001 85.9 28.4001 86.4 29.0001C86.9 29.5001 87.6 29.7001 88.3 29.7001C89.1 29.7001 89.9 29.4001 90.4 28.9001C91 28.2001 91.3 27.3001 91.2 26.4001V19.1001H91.3Z" fill="white"/>
<path d="M116.6 32.9001V19.6001H120V32.9001H116.6Z" fill="white"/>
<path d="M58.0999 32.9C56.3999 33 54.8 32.5 53.4 31.7C52.2 30.9 51.2 29.7 50.7 28.3L53.9 26.4C54.5 28.2 56.3 29.4 58.2 29.3C59 29.4 59.8 29.2 60.5 28.7C61 28.4 61.2 27.8 61.2 27.3C61.2 26.7 60.9 26.1 60.2999 25.8C59.2999 25.3 58.1999 24.9 57.0999 24.6C56.3999 24.4 55.7 24.1 55 23.8C54.4 23.5 53.7999 23.2 53.2999 22.8C52.6999 22.4 52.3 21.8 52 21.2C51.7 20.5 51.5 19.7 51.5 19C51.4 17.4 52.0999 15.9 53.2999 14.9C54.4999 13.9 56.1 13.3 57.7 13.4C59.1 13.4 60.5 13.8 61.7 14.5C62.9 15.3 63.8 16.3 64.5 17.6L61.4 19.4C60.8 17.9 59.4 17 57.7999 17C57.0999 16.9 56.5 17.1 55.9 17.5C55.5 17.8 55.2 18.3 55.2 18.9C55.2 19.5 55.5 20 55.9 20.3C56.8 20.8 57.7 21.2 58.7 21.5L60 21.9C60.3 22 60.7 22.1 61.2 22.4C61.6 22.6 62 22.7 62.4 23C62.7 23.2 63.1 23.5 63.4 23.7C63.7 24 63.9999 24.3 64.1999 24.6C64.3999 24.9 64.5999 25.3 64.6999 25.7C64.7999 26.2 64.9 26.7 64.9 27.2C65 28.8 64.3 30.3 63 31.3C61.6 32.4 59.8999 32.9 58.0999 32.9Z" fill="white"/>
<path d="M114.5 33C113.1 33 111.8 32.5 110.9 31.5C109.9 30.4 109.4 28.9 109.5 27.4V22.8H107.2V19.5H109.5V16.8L113 15.8V19.6H114.6V22.9H113V27.1C112.9 27.9 113.2 28.6 113.7 29.1C113.9 29.3 114.2 29.5 114.6 29.6L114.5 33Z" fill="white"/>
<path d="M145.6 20.5999C143.6 20.4999 141.9 22.0999 141.8 24.0999C141.8 24.2999 141.8 24.4999 141.8 24.6999V32.9999H140.4V24.6999C140.2 21.9999 142.2 19.5999 144.9 19.3999C145.1 19.3999 145.4 19.3999 145.6 19.3999V20.5999Z" fill="white"/>
<path d="M153 18.8999C149.1 18.8999 146 21.9999 146 25.8999C146 29.7999 149.1 32.8999 153 32.8999C156.9 32.8999 160 29.7999 160 25.8999C160 21.9999 156.9 18.8999 153 18.8999ZM153 31.5999C149.8 31.5999 147.3 29.0999 147.2 25.9999C147.2 22.7999 149.7 20.2999 152.8 20.1999C156 20.1999 158.5 22.6999 158.6 25.7999C158.6 25.7999 158.6 25.7999 158.6 25.8999C158.7 28.9999 156.2 31.4999 153 31.5999Z" fill="white"/>
<path d="M133.2 14.1001H126.8V33.0001H128.2V25.8001H133.2C136.3 25.9001 138.9 23.5001 139 20.3001C139 20.2001 139 20.1001 139 20.0001C139.1 16.9001 136.7 14.2001 133.5 14.1001C133.4 14.1001 133.3 14.1001 133.2 14.1001ZM133.2 24.4001H128.2V15.5001H133.2C135.6 15.4001 137.6 17.3001 137.6 19.6001C137.6 19.7001 137.6 19.8001 137.6 19.9001C137.7 22.3001 135.9 24.3001 133.5 24.4001C133.4 24.5001 133.3 24.5001 133.2 24.4001Z" fill="white"/>
<path d="M105.1 17.0999C103.2 16.9999 102.3 17.6999 102.3 19.3999V19.4999H105.1V22.7999H102.3V32.9999H98.8V22.8999H96.9V19.5999H98.8V19.4999C98.7 17.8999 99.3 16.2999 100.4 15.1999C101.7 14.0999 103.4 13.6999 105.1 13.8999V17.0999Z" fill="white"/>
<path d="M74.6 18.8C76 18.8 77.3 19.3 78.2 20.3C79.2 21.4 79.7 22.9 79.6 24.4V32.6H76.1V24.8C76.2 24 75.9 23.3 75.4 22.7C75 22.2 74.3 22 73.6 22C72.8 22 72 22.3 71.5 22.8C70.9 23.5 70.6 24.4 70.7 25.3V32.5H67.2V13.8H70.7V20.7C71.6 19.4 73.1 18.7 74.6 18.8Z" fill="white"/>
<path d="M23 4.3C33.3 4.3 41.7 12.7 41.7 23C41.7 33.3 33.3 41.7 23 41.7V46C10.3 46 0 35.7 0 23C0 10.3 10.3 0 23 0V4.3ZM31.6 14.4C26.8 9.6 19.1 9.6 14.3 14.4C9.5 19.2 9.5 26.9 14.3 31.7C19.1 36.5 26.8 36.5 31.6 31.7C33.9 29.4 35.2 26.3 35.2 23C35.2 19.8 33.9 16.7 31.6 14.4Z" fill="white"/>
</svg>
