<svg width="24" height="24" viewBox="0 0 24 24" fill="none" xmlns="http://www.w3.org/2000/svg">
<path d="M12 24C18.6274 24 24 18.6274 24 12C24 5.37258 18.6274 0 12 0C5.37258 0 0 5.37258 0 12C0 18.6274 5.37258 24 12 24Z" fill="#000A19"/>
<path d="M11.0999 20.4001C10.9499 19.9126 10.5749 19.5001 10.0874 19.3501C8.77491 19.0126 7.61241 18.3376 6.63741 17.3626C5.66241 16.3876 4.98741 15.1876 4.64991 13.9126C4.53741 13.4251 4.12491 13.0126 3.59991 12.9001L3.44991 12.8626C2.39991 12.5626 1.38741 13.5376 1.64991 14.6251C2.09991 16.4626 3.07491 18.1876 4.46241 19.5751C5.84991 20.9626 7.53741 21.9001 9.41241 22.3876C10.4999 22.6501 11.4374 21.6751 11.1749 20.5876L11.0999 20.4001Z" fill="#00D7FB"/>
<path d="M5.17504 7.01255C5.70004 7.16255 6.22504 6.97505 6.60004 6.60005C8.58754 4.61255 11.4 3.93755 13.95 4.61255C14.475 4.76255 15 4.61255 15.375 4.23755L15.4875 4.12505C16.275 3.33755 15.9375 2.02505 14.8875 1.72505C11.25 0.675048 7.23754 1.61255 4.42504 4.46255C4.38754 4.50005 4.35004 4.53755 4.31254 4.57505C3.56254 5.36255 3.93754 6.67505 4.98754 6.97505L5.17504 7.01255Z" fill="#00D7FB"/>
<path d="M19.7251 8.58748C19.3501 8.96248 19.2376 9.52498 19.3501 10.0125C20.0626 12.5625 19.3501 15.375 17.3626 17.3625C16.9876 17.7375 16.8376 18.2625 16.9501 18.7875L16.9876 18.9375C17.2876 19.9875 18.6001 20.3625 19.3876 19.6125C19.4251 19.575 19.4626 19.5375 19.5001 19.5C22.3126 16.6875 23.2876 12.675 22.2376 9.03748C21.9376 7.98748 20.5876 7.64998 19.8376 8.43748L19.7251 8.58748Z" fill="#00D7FB"/>
<path d="M12 15.375C13.864 15.375 15.375 13.864 15.375 12C15.375 10.136 13.864 8.625 12 8.625C10.136 8.625 8.625 10.136 8.625 12C8.625 13.864 10.136 15.375 12 15.375Z" fill="#00D7FB"/>
</svg>
