<svg width="41" height="36" viewBox="0 0 41 36" fill="none" xmlns="http://www.w3.org/2000/svg">
<g clip-path="url(#clip0_143_8213)">
<path d="M37.4766 35.9771H3.17576C1.3972 35.9771 -0.000244141 34.5796 -0.000244141 32.8011V8.66345C-0.000244141 6.88489 1.3972 5.48745 3.17576 5.48745H37.4766C39.2551 5.48745 40.6526 6.88489 40.6526 8.66345V32.8011C40.6526 34.5796 39.2551 35.9771 37.4766 35.9771Z" fill="#00D7FB"/>
<path d="M37.4766 35.9771H3.17576C1.3972 35.9771 -0.000244141 34.5796 -0.000244141 32.8011V8.66345C-0.000244141 6.88489 1.3972 5.48745 3.17576 5.48745H37.4766C39.2551 5.48745 40.6526 6.88489 40.6526 8.66345V32.8011C40.6526 34.5796 39.2551 35.9771 37.4766 35.9771Z" fill="#00D7FB"/>
<path opacity="0.2" d="M40.3985 7.39305L38.1118 9.42569V32.1659C38.1118 32.8646 37.5401 33.4363 36.8414 33.4363H3.81096C3.11224 33.4363 2.54056 32.8646 2.54056 32.1659V9.36217L0.253836 7.39305C0.0632756 7.77417 -0.000244141 8.21881 -0.000244141 8.66345V32.8011C-0.000244141 34.5796 1.3972 35.9771 3.17576 35.9771H37.4766C39.2551 35.9771 40.6526 34.5796 40.6526 32.8011V8.66345C40.6526 8.21881 40.589 7.83769 40.3985 7.39305Z" fill="#274F8A"/>
<path opacity="0.4" d="M40.3985 7.39302L27.8851 18.382L24.2644 21.558L23.1846 22.4473C22.7399 22.8284 22.1683 23.146 21.5966 23.3365C21.1519 23.4636 20.7708 23.5271 20.3262 23.5271C19.6275 23.5271 18.9923 23.3365 18.3571 23.0189C17.9759 22.8284 17.7219 22.6378 17.4043 22.3837L13.2755 18.7631L8.89258 14.9519L7.55866 13.745L0.317383 7.39302C0.825543 6.24966 1.90538 5.48742 3.2393 5.48742H37.5401C38.8105 5.48742 39.8903 6.31318 40.3985 7.39302Z" fill="white"/>
<path d="M36.5873 7.32946L31.1881 12.0299L29.2189 13.745L26.17 16.4763L24.4549 18.0008C24.1373 18.0008 23.8833 17.9373 23.5657 17.8738C23.1845 17.8103 22.8034 17.6832 22.4858 17.4927C22.2317 17.3656 22.0412 17.2386 21.8506 17.048C21.533 17.2386 21.2789 17.4291 20.9613 17.5562C20.2626 17.8103 19.5004 18.0008 18.6746 18.0008C19.5004 18.3184 20.4532 18.4455 21.406 18.4455C21.7871 18.4455 22.1682 18.4455 22.4858 18.3819L24.2009 18.2549L22.5493 19.6523C22.2317 19.6523 21.7871 19.6523 21.406 19.6523C20.2626 19.6523 19.1828 19.4618 18.1665 19.1442C17.7218 19.0171 17.2772 18.7631 16.8961 18.5725L16.8325 18.509L17.3407 17.8103C17.1501 17.7467 16.9596 17.6832 16.769 17.6197C16.1973 17.3656 15.6892 16.9845 15.3716 16.6034L15.054 16.921L14.9905 16.8575L10.6076 13.0463L9.27366 11.8394L4.12854 7.39298H36.5873V7.32946Z" fill="#274F8A"/>
<path d="M31.0611 7.32953C31.0611 7.26601 31.0611 7.26601 31.0611 7.20249C30.9976 6.88489 30.8705 6.56729 30.7435 6.24969C30.5529 5.74153 30.2989 5.23337 29.9813 4.78873L29.9177 4.66169C29.4096 3.89945 28.8379 3.20073 28.1392 2.62905C27.504 2.05737 26.7417 1.54921 25.916 1.16809C25.1537 0.786966 24.2645 0.469368 23.4387 0.278809C22.6129 0.0882492 21.6601 -0.0387917 20.7073 -0.0387917C19.6275 -0.0387917 18.5477 0.0882473 17.5313 0.405846C16.515 0.659925 15.6257 1.10457 14.7365 1.61273C13.9107 2.12089 13.0849 2.75609 12.3862 3.45481C12.0051 3.83593 11.6875 4.21705 11.3064 4.72521C11.0523 5.04281 10.7982 5.42393 10.6077 5.74153C10.5441 5.86857 10.4806 5.99561 10.3536 6.12265C10.163 6.50377 9.97245 6.88489 9.78189 7.26601C9.65485 7.64713 9.46429 8.02825 9.40077 8.47289C9.14669 9.42569 9.01965 10.442 9.01965 11.3948C9.01965 11.5218 9.01965 11.6489 9.01965 11.7124L10.3536 12.9193L14.7365 16.7305L14.8 16.794L19.0558 20.4782C19.1829 20.6052 19.3099 20.6687 19.4369 20.7322C19.7545 20.9228 20.0086 20.9863 20.3262 20.9863C20.5168 20.9863 20.7073 20.9863 20.8979 20.9228C21.152 20.7958 21.4061 20.6687 21.5966 20.4782L22.6129 19.5889L26.2336 16.4129L29.3461 13.6815L31.3152 11.9665C31.4422 11.3313 31.5057 10.6961 31.5057 10.0609C31.4422 9.17161 31.3152 8.21881 31.0611 7.32953Z" fill="#274F8A"/>
<path d="M29.7906 7.58354C29.7906 7.52003 29.7271 7.39299 29.7271 7.32946C29.6636 7.13891 29.6001 6.94834 29.5366 6.75778C29.346 6.31314 29.1554 5.8685 28.9014 5.48738C28.9014 5.48738 28.9014 5.42387 28.8378 5.42387C28.3932 4.78866 27.885 4.15346 27.3134 3.6453C26.7417 3.13714 26.1065 2.6925 25.4078 2.31138C24.709 1.93026 23.9468 1.67618 23.1846 1.48562C22.4223 1.29506 21.5966 1.23154 20.7708 1.23154C19.818 1.23154 18.8652 1.35859 17.9759 1.61267C17.0866 1.86674 16.2609 2.24786 15.4986 2.6925C14.7364 3.13714 14.0377 3.70882 13.4025 4.34402C13.0849 4.72514 12.7673 5.10626 12.4497 5.48738C12.1956 5.80498 12.005 6.12258 11.8145 6.44018C11.751 6.56722 11.6874 6.63074 11.6239 6.75778C11.4969 6.94834 11.4334 7.13891 11.3063 7.32946C11.0522 7.83763 10.9252 8.34579 10.7346 8.85394C10.4806 9.67971 10.3535 10.569 10.3535 11.4583C10.3535 11.9664 10.3535 12.4746 10.417 12.9827L14.7999 16.7939C14.4188 16.2858 14.0377 15.6506 13.7836 15.0154C13.339 13.9991 13.1484 12.7922 13.1484 11.4583C13.1484 10.3784 13.339 9.3621 13.7201 8.4093C13.8471 8.02818 14.0377 7.64707 14.2282 7.32946C14.3553 7.13891 14.4823 6.94834 14.6094 6.75778C14.7999 6.5037 14.9905 6.1861 15.2446 5.99554C15.3716 5.80499 15.5622 5.67794 15.7527 5.48738C16.3244 4.97922 16.8961 4.5981 17.5948 4.2805C18.4841 3.89938 19.5004 3.6453 20.5802 3.6453C21.5966 3.6453 22.4858 3.77234 23.3116 4.08994C24.1374 4.34402 24.8361 4.78866 25.4078 5.29682L25.5348 5.42387C25.9159 5.80499 26.2335 6.1861 26.4241 6.69427C26.5511 6.88482 26.6146 7.07539 26.6782 7.26595C26.9958 8.09171 27.1228 8.98098 27.1228 10.0608C27.1228 10.696 27.0593 11.2042 26.9322 11.7759C26.8052 12.284 26.6782 12.7287 26.4876 13.1098C26.5511 13.5544 26.297 13.872 26.043 14.0626C25.7889 14.3167 25.4713 14.3802 25.2172 14.3802C24.8996 14.3802 24.6455 14.3167 24.455 14.1261C24.2009 13.9991 24.1374 13.6815 24.1374 13.3003C24.1374 12.9827 24.2009 12.6016 24.3279 12.0935L25.5348 7.39298V7.32946C25.2807 7.20243 25.0266 7.1389 24.8361 7.07538C24.582 7.01186 24.3279 6.94834 24.0738 6.88482C24.0103 6.88482 23.9468 6.88482 23.9468 6.88482C23.7562 6.8213 23.5022 6.8213 23.2481 6.75778C22.9305 6.75778 22.6129 6.69427 22.2318 6.69427C21.6601 6.69427 21.1519 6.75778 20.6438 6.8213C20.4532 6.8213 20.2626 6.88482 20.0721 6.94835C19.6274 7.07539 19.1828 7.20242 18.8017 7.39298C18.6111 7.4565 18.4841 7.58355 18.2935 7.64707C17.7854 7.96467 17.3407 8.28226 16.9596 8.7269C16.5785 9.10802 16.2609 9.55266 16.0068 10.0608C15.7527 10.5055 15.5622 11.0136 15.4351 11.5218C15.4351 11.9029 15.3716 12.4111 15.3716 12.9192C15.3716 13.4909 15.4351 13.9991 15.5622 14.4437C15.6892 14.8883 15.8798 15.333 16.1974 15.6506C16.4514 15.9682 16.8326 16.2223 17.2137 16.4128C17.6583 16.6034 18.103 16.7304 18.6746 16.7304C19.3098 16.7304 19.8815 16.6034 20.4532 16.3493C21.0249 16.0952 21.533 15.7141 22.0412 15.1424C22.1682 15.46 22.2953 15.7141 22.4858 15.9047C22.6764 16.0952 22.867 16.2858 23.121 16.4128C23.3116 16.5399 23.5657 16.6034 23.8198 16.6669C24.0738 16.7304 24.3279 16.7304 24.582 16.7304C25.1537 16.7304 25.6618 16.6669 26.17 16.4763L29.2825 13.745C29.473 13.4274 29.6001 13.0463 29.7271 12.6651C29.9812 11.8394 30.1718 11.0136 30.1718 10.1243C30.1718 9.23506 30.0447 8.4093 29.7906 7.58354ZM21.279 12.4746C21.2154 12.8557 21.0884 13.1098 20.9614 13.3639C20.8343 13.5544 20.7073 13.745 20.5167 13.9355C20.3897 14.0626 20.1991 14.1261 20.0086 14.1896C19.818 14.2531 19.6274 14.2531 19.4369 14.2531C19.1193 14.2531 18.8017 14.1261 18.6111 13.872C18.4206 13.6179 18.2935 13.2368 18.2935 12.7287C18.2935 12.2205 18.357 11.7123 18.5476 11.2677C18.7382 10.8231 18.9287 10.3784 19.2463 10.0608C19.5639 9.74322 19.8815 9.42563 20.2626 9.23507C20.7708 9.10803 21.1519 8.98099 21.5966 8.98099C21.7871 8.98099 21.9777 8.98098 22.2318 9.0445L21.279 12.4746Z" fill="white"/>
</g>
<defs>
<clipPath id="clip0_143_8213">
<rect width="40.6528" height="36.0158" fill="white" transform="matrix(1 0 0 -1 -0.000244141 35.9771)"/>
</clipPath>
</defs>
</svg>
