<svg width="120" height="84" viewBox="0 0 120 84" fill="none" xmlns="http://www.w3.org/2000/svg">
<g clip-path="url(#clip0_149_5138)">
<path d="M25.3834 9.7981L4.88753 45.9889C3.11535 49.1288 4.44247 53.1199 7.84886 54.5329C14.482 57.2256 26.4565 61.8756 44.6526 67.5211C62.2752 72.9639 75.0199 76.125 82.4523 77.7402C87.0462 78.7533 91.7845 76.6441 94.2227 72.6061L115.472 36.7512C117.51 33.2521 115.563 28.7455 111.659 27.854C97.1066 24.5772 65.3666 16.8482 34.9526 6.2052C31.3146 4.95446 27.2887 6.47854 25.3834 9.7981Z" fill="url(#paint0_linear_149_5138)" fill-opacity="0.2" stroke="#FFAC1A" stroke-width="2" stroke-miterlimit="10"/>
<path d="M67.1191 38.5827L85.771 72.7405L65.4161 39.6025L67.1191 38.5827Z" fill="#FFAC1A"/>
<path d="M50.0128 39.4251L7.41961 51.2079L49.439 37.4962L50.0128 39.4251Z" fill="#FFAC1A"/>
<path opacity="0.5" d="M33.2273 13.1105L48.9764 42.9994C50.7205 46.3532 54.8163 47.8877 58.3323 46.3753L67.0096 43.2344L69.1823 46.4607L103.37 33.3988L58.4474 41.1154C54.7749 41.7878 51.0093 40.1084 48.9176 36.998L33.2273 13.1105Z" fill="#000A19"/>
<path d="M31.9004 10.8457C36.1822 17.084 40.3655 23.3049 44.5314 29.6243L47.6602 34.3393C48.1295 35.1328 48.6973 35.9438 49.2014 36.5404C49.6881 37.2354 50.4065 37.7683 51.0264 38.2837C52.382 39.2336 54.0041 39.8242 55.713 39.9225C56.107 39.9919 56.5182 39.9629 56.9295 39.9339L57.5551 39.8411L58.2792 39.7657L61.0945 39.3482L83.4023 36.0722C90.8112 34.9415 98.3012 33.9267 105.809 32.8135C98.4461 34.2569 90.9851 35.683 83.6399 37.0279L61.3728 41.2251L58.6387 41.7584L57.9146 41.8338L57.1905 41.9092C56.6807 41.9209 56.1709 41.9325 55.6612 41.9442C53.541 41.875 51.525 41.2149 49.8275 39.9001C49.028 39.2514 48.2459 38.5043 47.5796 37.676C46.9133 36.8477 46.5598 35.973 46.0905 35.1795L43.1934 30.3023C39.3402 23.9365 35.6203 17.3911 31.9004 10.8457Z" fill="#FFAC1A"/>
</g>
<defs>
<linearGradient id="paint0_linear_149_5138" x1="62.3892" y1="17.034" x2="39.7458" y2="64.8282" gradientUnits="userSpaceOnUse">
<stop stop-color="white"/>
<stop offset="1" stop-color="#FFA300"/>
</linearGradient>
<clipPath id="clip0_149_5138">
<rect width="110" height="64.2" fill="white" transform="translate(11.4097 0.937012) rotate(10)"/>
</clipPath>
</defs>
</svg>
