<svg width="111" height="97" viewBox="0 0 111 97" fill="none" xmlns="http://www.w3.org/2000/svg">
<g opacity="0.5">
<path d="M95.831 72.2456L93.8706 75.8772C92.6739 77.9957 90.4266 79.1997 87.9661 78.9426L18.0989 71.4977C13.7162 70.9667 10.4708 67.0186 11.036 62.5419L15.7977 23.7299C16.1783 17.7141 22.2616 16.2036 26.6443 16.7346" stroke="#5773DD" stroke-miterlimit="10" stroke-linejoin="round"/>
<path d="M19.0186 23.9445L14.8128 60.9369C14.2818 65.3196 17.493 69.3617 21.9099 69.7987L87.5823 76.7811C92.0932 77.2523 96.0755 73.913 96.4185 69.4619L99.1288 33.947C99.4974 29.718 96.4057 25.9323 92.2452 25.3758L27.9744 16.8816C23.5917 16.3506 19.4898 19.4336 19.0186 23.9445Z" fill="url(#paint0_linear_149_5116)" fill-opacity="0.1" stroke="#5773DD" stroke-miterlimit="10"/>
<path d="M67.9063 47.804L92.026 72.7584L66.5389 49.2218L67.9063 47.804Z" fill="#5773DD"/>
<path d="M20.9368 66.0392L50.7513 45.8168L51.8102 47.5857L20.9368 66.0392Z" fill="#5773DD"/>
<path opacity="0.5" d="M53.5504 56.8389L47.7257 50.0365L45.7603 51.3431L25.6052 24.8521L59.6176 52.4493L53.5504 56.8389Z" fill="#000A19"/>
<path d="M23.8116 23.3479C29.4833 27.6469 35.0866 32.134 40.5959 36.5868C43.3804 38.8773 46.071 41.1336 48.8555 43.4241L57.0211 50.2272C58.1999 51.0819 59.806 51.3472 61.2415 50.9119C61.9421 50.7413 62.5232 50.3143 63.3264 49.8617L65.5482 48.4356C68.4792 46.5227 71.5384 44.55 74.5633 42.6713C80.6133 38.9139 86.6633 35.1565 92.867 31.5615C87.15 35.8658 81.2794 40.0077 75.4429 44.0556C72.4777 46.0625 69.5125 48.0693 66.5473 50.0762L64.2913 51.5963C63.5821 52.0831 62.7104 52.7236 61.6595 52.9796C59.6516 53.5258 57.4133 53.2432 55.7391 51.9953C55.5853 51.833 55.3376 51.6364 55.1497 51.568L54.6543 51.1748L53.7661 50.1066L51.7589 48.3119L47.7102 44.8164C45.0539 42.4661 42.3035 40.0816 39.6472 37.7314C34.3345 33.0308 29.0559 28.2363 23.8116 23.3479Z" fill="#5773DD"/>
</g>
<defs>
<linearGradient id="paint0_linear_149_5116" x1="55.9476" y1="21.0152" x2="49.2264" y2="70.1815" gradientUnits="userSpaceOnUse">
<stop stop-color="#5773DD"/>
<stop offset="1" stop-color="#000C28"/>
</linearGradient>
</defs>
</svg>
