<svg width="33" height="33" viewBox="0 0 33 33" fill="none" xmlns="http://www.w3.org/2000/svg">
<path d="M16.7998 32.8C7.9998 32.8 0.799805 25.6 0.799805 16.8C0.799805 8.00005 7.9998 0.800049 16.7998 0.800049C25.5998 0.800049 32.7998 8.00005 32.7998 16.8C32.7998 25.7 25.5998 32.8 16.7998 32.8Z" fill="white"/>
<path d="M16.9997 10C19.3745 10 21.2997 8.88071 21.2997 7.5C21.2997 6.11929 19.3745 5 16.9997 5C14.6249 5 12.6997 6.11929 12.6997 7.5C12.6997 8.88071 14.6249 10 16.9997 10Z" fill="#E6007A"/>
<path d="M16.9997 29C19.3745 29 21.2997 27.8807 21.2997 26.5C21.2997 25.1193 19.3745 24 16.9997 24C14.6249 24 12.6997 25.1193 12.6997 26.5C12.6997 27.8807 14.6249 29 16.9997 29Z" fill="#E6007A"/>
<path d="M10.9937 13.5189C12.1811 11.4623 12.1744 9.23543 10.9787 8.54508C9.78298 7.85472 7.85108 8.96228 6.66367 11.0189C5.47626 13.0755 5.48298 15.3023 6.67867 15.9927C7.87437 16.683 9.80626 15.5755 10.9937 13.5189Z" fill="#E6007A"/>
<path d="M27.3345 22.9818C28.5219 20.9252 28.5152 18.6983 27.3195 18.008C26.1238 17.3176 24.1919 18.4252 23.0045 20.4818C21.8171 22.5384 21.8238 24.7652 23.0195 25.4556C24.2152 26.1459 26.1471 25.0384 27.3345 22.9818Z" fill="#E6007A"/>
<path d="M10.9274 25.4232C12.1231 24.7328 12.1298 22.506 10.9424 20.4494C9.75499 18.3928 7.8231 17.2852 6.6274 17.9756C5.43171 18.6659 5.42499 20.8928 6.6124 22.9494C7.79982 25.006 9.73171 26.1135 10.9274 25.4232Z" fill="#E6007A"/>
<path d="M27.3713 16.025C28.5669 15.3346 28.5737 13.1078 27.3863 11.0512C26.1988 8.99459 24.2669 7.88704 23.0712 8.57739C21.8756 9.26775 21.8688 11.4946 23.0563 13.5512C24.2437 15.6078 26.1756 16.7153 27.3713 16.025Z" fill="#E6007A"/>
</svg>
