<svg width="32" height="32" viewBox="0 0 32 32" fill="none" xmlns="http://www.w3.org/2000/svg">
<path d="M16 32C7.2 32 0 24.8 0 16C0 7.2 7.2 0 16 0C24.8 0 32 7.2 32 16C32 24.8 24.8 32 16 32Z" fill="white"/>
<path d="M22.2 11.9001C21.8 11.6001 21.2 11.6001 20.7 11.9001L17.2 14.0001L14.8 15.3001L11.4 17.4001C11 17.7001 10.4 17.7001 9.9 17.4001L7.2 15.8001C6.8 15.5001 6.4 15.0001 6.4 14.5001V11.4001C6.4 10.9001 6.7 10.4001 7.2 10.1001L9.9 8.5001C10.3 8.2001 10.9 8.2001 11.4 8.5001L14 10.0001C14.4 10.3001 14.8 10.8001 14.8 11.3001V13.4001L17.2 12.0001V9.9001C17.2 9.4001 16.9 8.9001 16.4 8.6001L11.4 5.7001C11 5.4001 10.4 5.4001 9.9 5.7001L4.8 8.7001C4.3 8.9001 4 9.4001 4 9.9001V15.8001C4 16.3001 4.3 16.8001 4.8 17.1001L9.8 20.0001C10.2 20.3001 10.8 20.3001 11.3 20.0001L14.7 18.0001L17.1 16.6001L20.5 14.6001C20.9 14.3001 21.5 14.3001 22 14.6001L24.7 16.2001C25.1 16.5001 25.5 17.0001 25.5 17.5001V20.6001C25.5 21.1001 25.2 21.6001 24.7 21.9001L22.1 23.5001C21.7 23.8001 21.1 23.8001 20.6 23.5001L18 22.0001C17.6 21.7001 17.2 21.2001 17.2 20.7001V18.7001L14.8 20.0001V22.1001C14.8 22.6001 15.1 23.1001 15.6 23.4001L20.7 26.3001C21.1 26.6001 21.7 26.6001 22.2 26.3001L27.3 23.4001C27.7 23.1001 28.1 22.6001 28.1 22.1001V16.1001C28.1 15.6001 27.8 15.1001 27.3 14.8001L22.2 11.9001Z" fill="#8247E5"/>
</svg>
