<svg width="216" height="140" viewBox="0 0 216 140" fill="none" xmlns="http://www.w3.org/2000/svg">
<g opacity="0.2" filter="url(#filter0_d_757_1895)">
<path d="M21.7835 15.571L16.0094 81.5689C15.5083 87.297 19.7126 92.3075 25.4407 92.8087L63.1716 96.1097L55.0994 127.226L79.4843 97.5369L193.3 107.494C199.028 107.996 204.038 103.791 204.539 98.0631L210.313 32.0652C210.814 26.3371 206.61 21.3266 200.882 20.8255L33.0233 6.13971C27.2951 5.63857 22.2846 9.84287 21.7835 15.571Z" fill="#4DA6FF"/>
</g>
<g filter="url(#filter1_d_757_1895)">
<path d="M55.7502 92.25V91.75H55.2502H15.3752C9.90139 91.75 5.50024 87.3489 5.50024 81.875V15.625C5.50024 10.1511 9.90139 5.75 15.3752 5.75H188.875C194.349 5.75 198.75 10.1511 198.75 15.625V81.875C198.75 87.3489 194.349 91.75 188.875 91.75H71.6252H71.3062L71.1718 92.0394L55.7502 125.237V92.25Z" fill="#000C28" stroke="#4DA6FF"/>
</g>
<path d="M89.0002 66.5C91.2094 66.5 93.0002 64.7091 93.0002 62.5C93.0002 60.2909 91.2094 58.5 89.0002 58.5C86.7911 58.5 85.0002 60.2909 85.0002 62.5C85.0002 64.7091 86.7911 66.5 89.0002 66.5Z" stroke="#4DA6FF" stroke-miterlimit="10"/>
<path d="M101.8 66.5C104.009 66.5 105.8 64.7091 105.8 62.5C105.8 60.2909 104.009 58.5 101.8 58.5C99.5912 58.5 97.8003 60.2909 97.8003 62.5C97.8003 64.7091 99.5912 66.5 101.8 66.5Z" stroke="#4DA6FF" stroke-miterlimit="10"/>
<path d="M114.6 66.5C116.809 66.5 118.6 64.7091 118.6 62.5C118.6 60.2909 116.809 58.5 114.6 58.5C112.391 58.5 110.6 60.2909 110.6 62.5C110.6 64.7091 112.391 66.5 114.6 66.5Z" stroke="#4DA6FF" stroke-miterlimit="10"/>
<path d="M59.3441 40H57.6801C57.4934 40 57.3387 39.9547 57.2161 39.864C57.0987 39.768 57.0134 39.6507 56.9601 39.512L56.0961 37.152H51.3041L50.4401 39.512C50.3974 39.6347 50.3121 39.7467 50.1841 39.848C50.0614 39.9493 49.9094 40 49.7281 40H48.0561L52.6001 28.432H54.8001L59.3441 40ZM51.8561 35.632H55.5441L54.1361 31.784C54.0721 31.6133 54.0001 31.4133 53.9201 31.184C53.8454 30.9493 53.7707 30.696 53.6961 30.424C53.6214 30.696 53.5467 30.9493 53.4721 31.184C53.4027 31.4187 53.3334 31.624 53.2641 31.8L51.8561 35.632ZM60.4234 40V31.792H61.6314C61.8874 31.792 62.0554 31.912 62.1354 32.152L62.2714 32.8C62.4368 32.6293 62.6101 32.4747 62.7914 32.336C62.9781 32.1973 63.1728 32.0773 63.3754 31.976C63.5834 31.8747 63.8048 31.7973 64.0394 31.744C64.2741 31.6907 64.5301 31.664 64.8074 31.664C65.2554 31.664 65.6528 31.7413 65.9994 31.896C66.3461 32.0453 66.6341 32.2587 66.8634 32.536C67.0981 32.808 67.2741 33.136 67.3914 33.52C67.5141 33.8987 67.5754 34.3173 67.5754 34.776V40H65.5994V34.776C65.5994 34.2747 65.4821 33.888 65.2474 33.616C65.0181 33.3387 64.6714 33.2 64.2074 33.2C63.8661 33.2 63.5461 33.2773 63.2474 33.432C62.9488 33.5867 62.6661 33.7973 62.3994 34.064V40H60.4234ZM72.1479 42.256C72.0893 42.3947 72.0119 42.4987 71.9159 42.568C71.8253 42.6427 71.6839 42.68 71.4919 42.68H70.0199L71.5559 39.392L68.2359 31.792H69.9639C70.1239 31.792 70.2466 31.8293 70.3319 31.904C70.4173 31.9787 70.4813 32.064 70.5239 32.16L72.2759 36.416C72.3346 36.5547 72.3853 36.6987 72.4279 36.848C72.4706 36.9973 72.5079 37.1467 72.5399 37.296C72.5826 37.1413 72.6279 36.992 72.6759 36.848C72.7293 36.704 72.7853 36.5573 72.8439 36.408L74.4919 32.16C74.5346 32.0533 74.6039 31.9653 74.6999 31.896C74.8013 31.8267 74.9133 31.792 75.0359 31.792H76.6199L72.1479 42.256ZM87.8449 31.792V42.68H85.8689V38.968C85.7036 39.144 85.5276 39.304 85.3409 39.448C85.1596 39.5867 84.9649 39.7067 84.7569 39.808C84.5489 39.904 84.3276 39.9787 84.0929 40.032C83.8583 40.0907 83.6049 40.12 83.3329 40.12C82.8849 40.12 82.4743 40.0267 82.1009 39.84C81.7276 39.6533 81.4049 39.384 81.1329 39.032C80.8663 38.6747 80.6583 38.2347 80.5089 37.712C80.3649 37.1893 80.2929 36.592 80.2929 35.92C80.2929 35.312 80.3756 34.7467 80.5409 34.224C80.7063 33.7013 80.9436 33.248 81.2529 32.864C81.5623 32.48 81.9329 32.1813 82.3649 31.968C82.7969 31.7493 83.2823 31.64 83.8209 31.64C84.0769 31.64 84.3089 31.664 84.5169 31.712C84.7303 31.7547 84.9249 31.8187 85.1009 31.904C85.2823 31.9893 85.4476 32.0907 85.5969 32.208C85.7463 32.3253 85.8903 32.4587 86.0289 32.608L86.1329 32.152C86.1596 32.0293 86.2183 31.9387 86.3089 31.88C86.3996 31.8213 86.5089 31.792 86.6369 31.792H87.8449ZM84.0049 38.552C84.4156 38.552 84.7649 38.4667 85.0529 38.296C85.3409 38.1253 85.6129 37.8827 85.8689 37.568V33.888C85.6449 33.616 85.3996 33.424 85.1329 33.312C84.8716 33.2 84.5889 33.144 84.2849 33.144C83.9863 33.144 83.7143 33.2 83.4689 33.312C83.2289 33.424 83.0236 33.5947 82.8529 33.824C82.6876 34.048 82.5596 34.336 82.4689 34.688C82.3783 35.0347 82.3329 35.4453 82.3329 35.92C82.3329 36.4 82.3703 36.808 82.4449 37.144C82.5249 37.4747 82.6369 37.7467 82.7809 37.96C82.9249 38.168 83.1009 38.32 83.3089 38.416C83.5169 38.5067 83.7489 38.552 84.0049 38.552ZM91.7939 31.792V37.008C91.7939 37.5093 91.9086 37.8987 92.1379 38.176C92.3726 38.448 92.7219 38.584 93.1859 38.584C93.5273 38.584 93.8473 38.5093 94.1459 38.36C94.4446 38.2053 94.7273 37.9947 94.9939 37.728V31.792H96.9699V40H95.7619C95.5059 40 95.3379 39.88 95.2579 39.64L95.1219 38.984C94.9513 39.1547 94.7753 39.312 94.5939 39.456C94.4126 39.5947 94.2179 39.7147 94.0099 39.816C93.8073 39.912 93.5859 39.9867 93.3459 40.04C93.1113 40.0987 92.8579 40.128 92.5859 40.128C92.1379 40.128 91.7406 40.0533 91.3939 39.904C91.0526 39.7493 90.7646 39.5333 90.5299 39.256C90.2953 38.9787 90.1166 38.6507 89.9939 38.272C89.8766 37.888 89.8179 37.4667 89.8179 37.008V31.792H91.7939ZM102.472 31.664C102.989 31.664 103.464 31.7467 103.896 31.912C104.333 32.0773 104.709 32.32 105.024 32.64C105.338 32.9547 105.584 33.344 105.76 33.808C105.936 34.2667 106.024 34.792 106.024 35.384C106.024 35.5333 106.016 35.6587 106 35.76C105.989 35.856 105.965 35.9333 105.928 35.992C105.896 36.0453 105.85 36.0853 105.792 36.112C105.733 36.1333 105.658 36.144 105.568 36.144H100.496C100.554 36.9867 100.781 37.6053 101.176 38C101.57 38.3947 102.093 38.592 102.744 38.592C103.064 38.592 103.338 38.5547 103.568 38.48C103.802 38.4053 104.005 38.3227 104.176 38.232C104.352 38.1413 104.504 38.0587 104.632 37.984C104.765 37.9093 104.893 37.872 105.016 37.872C105.096 37.872 105.165 37.888 105.224 37.92C105.282 37.952 105.333 37.9973 105.376 38.056L105.952 38.776C105.733 39.032 105.488 39.248 105.216 39.424C104.944 39.5947 104.658 39.7333 104.36 39.84C104.066 39.9413 103.765 40.0133 103.456 40.056C103.152 40.0987 102.856 40.12 102.568 40.12C101.997 40.12 101.466 40.0267 100.976 39.84C100.485 39.648 100.058 39.368 99.6957 39C99.333 38.6267 99.0477 38.168 98.8397 37.624C98.6317 37.0747 98.5277 36.44 98.5277 35.72C98.5277 35.16 98.6183 34.6347 98.7997 34.144C98.981 33.648 99.2397 33.2187 99.5757 32.856C99.917 32.488 100.33 32.1973 100.816 31.984C101.306 31.7707 101.858 31.664 102.472 31.664ZM102.512 33.08C101.936 33.08 101.485 33.2427 101.16 33.568C100.834 33.8933 100.626 34.3547 100.536 34.952H104.248C104.248 34.696 104.213 34.456 104.144 34.232C104.074 34.0027 103.968 33.8027 103.824 33.632C103.68 33.4613 103.498 33.328 103.28 33.232C103.061 33.1307 102.805 33.08 102.512 33.08ZM112.499 33.392C112.445 33.4773 112.389 33.5387 112.331 33.576C112.272 33.608 112.197 33.624 112.107 33.624C112.011 33.624 111.907 33.5973 111.795 33.544C111.688 33.4907 111.563 33.432 111.419 33.368C111.275 33.2987 111.109 33.2373 110.923 33.184C110.741 33.1307 110.525 33.104 110.275 33.104C109.885 33.104 109.579 33.1867 109.355 33.352C109.131 33.5173 109.019 33.7333 109.019 34C109.019 34.176 109.075 34.3253 109.187 34.448C109.304 34.5653 109.456 34.6693 109.643 34.76C109.835 34.8507 110.051 34.9333 110.291 35.008C110.531 35.0773 110.776 35.1547 111.027 35.24C111.277 35.3253 111.523 35.424 111.763 35.536C112.003 35.6427 112.216 35.7813 112.403 35.952C112.595 36.1173 112.747 36.3173 112.859 36.552C112.976 36.7867 113.035 37.0693 113.035 37.4C113.035 37.7947 112.963 38.16 112.819 38.496C112.675 38.8267 112.464 39.1147 112.187 39.36C111.909 39.6 111.565 39.7893 111.155 39.928C110.749 40.0613 110.283 40.128 109.755 40.128C109.472 40.128 109.195 40.1013 108.923 40.048C108.656 40 108.397 39.9307 108.147 39.84C107.901 39.7493 107.672 39.6427 107.459 39.52C107.251 39.3973 107.067 39.264 106.907 39.12L107.363 38.368C107.421 38.2773 107.491 38.208 107.571 38.16C107.651 38.112 107.752 38.088 107.875 38.088C107.997 38.088 108.112 38.1227 108.219 38.192C108.331 38.2613 108.459 38.336 108.603 38.416C108.747 38.496 108.915 38.5707 109.107 38.64C109.304 38.7093 109.552 38.744 109.851 38.744C110.085 38.744 110.285 38.7173 110.451 38.664C110.621 38.6053 110.76 38.5307 110.867 38.44C110.979 38.3493 111.059 38.2453 111.107 38.128C111.16 38.0053 111.187 37.88 111.187 37.752C111.187 37.56 111.128 37.4027 111.011 37.28C110.899 37.1573 110.747 37.0507 110.555 36.96C110.368 36.8693 110.152 36.7893 109.907 36.72C109.667 36.6453 109.419 36.5653 109.163 36.48C108.912 36.3947 108.664 36.296 108.419 36.184C108.179 36.0667 107.963 35.92 107.771 35.744C107.584 35.568 107.432 35.352 107.315 35.096C107.203 34.84 107.147 34.5307 107.147 34.168C107.147 33.832 107.213 33.512 107.347 33.208C107.48 32.904 107.675 32.64 107.931 32.416C108.192 32.1867 108.515 32.0053 108.899 31.872C109.288 31.7333 109.736 31.664 110.243 31.664C110.808 31.664 111.323 31.7573 111.787 31.944C112.251 32.1307 112.637 32.376 112.947 32.68L112.499 33.392ZM117.307 40.128C116.598 40.128 116.051 39.928 115.667 39.528C115.283 39.1227 115.091 38.5653 115.091 37.856V33.272H114.259C114.152 33.272 114.059 33.2373 113.979 33.168C113.904 33.0987 113.867 32.9947 113.867 32.856V32.072L115.187 31.856L115.603 29.616C115.624 29.5093 115.672 29.4267 115.747 29.368C115.827 29.3093 115.926 29.28 116.043 29.28H117.067V31.864H119.227V33.272H117.067V37.72C117.067 37.976 117.131 38.176 117.259 38.32C117.387 38.464 117.558 38.536 117.771 38.536C117.894 38.536 117.995 38.5227 118.075 38.496C118.16 38.464 118.232 38.432 118.291 38.4C118.355 38.368 118.411 38.3387 118.459 38.312C118.507 38.28 118.555 38.264 118.603 38.264C118.662 38.264 118.71 38.28 118.747 38.312C118.784 38.3387 118.824 38.3813 118.867 38.44L119.459 39.4C119.171 39.64 118.84 39.8213 118.467 39.944C118.094 40.0667 117.707 40.128 117.307 40.128ZM122.902 31.792V40H120.926V31.792H122.902ZM123.198 29.4C123.198 29.5707 123.164 29.7307 123.094 29.88C123.025 30.0293 122.932 30.16 122.814 30.272C122.702 30.384 122.569 30.4747 122.414 30.544C122.26 30.608 122.094 30.64 121.918 30.64C121.748 30.64 121.585 30.608 121.43 30.544C121.281 30.4747 121.15 30.384 121.038 30.272C120.926 30.16 120.836 30.0293 120.766 29.88C120.702 29.7307 120.67 29.5707 120.67 29.4C120.67 29.224 120.702 29.0587 120.766 28.904C120.836 28.7493 120.926 28.616 121.038 28.504C121.15 28.392 121.281 28.304 121.43 28.24C121.585 28.1707 121.748 28.136 121.918 28.136C122.094 28.136 122.26 28.1707 122.414 28.24C122.569 28.304 122.702 28.392 122.814 28.504C122.932 28.616 123.025 28.7493 123.094 28.904C123.164 29.0587 123.198 29.224 123.198 29.4ZM128.646 31.664C129.26 31.664 129.814 31.7627 130.31 31.96C130.812 32.1573 131.238 32.4373 131.59 32.8C131.942 33.1627 132.214 33.6053 132.406 34.128C132.598 34.6507 132.694 35.2347 132.694 35.88C132.694 36.5307 132.598 37.1173 132.406 37.64C132.214 38.1627 131.942 38.608 131.59 38.976C131.238 39.344 130.812 39.6267 130.31 39.824C129.814 40.0213 129.26 40.12 128.646 40.12C128.033 40.12 127.476 40.0213 126.974 39.824C126.473 39.6267 126.044 39.344 125.686 38.976C125.334 38.608 125.06 38.1627 124.862 37.64C124.67 37.1173 124.574 36.5307 124.574 35.88C124.574 35.2347 124.67 34.6507 124.862 34.128C125.06 33.6053 125.334 33.1627 125.686 32.8C126.044 32.4373 126.473 32.1573 126.974 31.96C127.476 31.7627 128.033 31.664 128.646 31.664ZM128.646 38.6C129.329 38.6 129.833 38.3707 130.158 37.912C130.489 37.4533 130.654 36.7813 130.654 35.896C130.654 35.0107 130.489 34.336 130.158 33.872C129.833 33.408 129.329 33.176 128.646 33.176C127.953 33.176 127.441 33.4107 127.11 33.88C126.78 34.344 126.614 35.016 126.614 35.896C126.614 36.776 126.78 37.448 127.11 37.912C127.441 38.3707 127.953 38.6 128.646 38.6ZM134.236 40V31.792H135.444C135.7 31.792 135.868 31.912 135.948 32.152L136.084 32.8C136.249 32.6293 136.423 32.4747 136.604 32.336C136.791 32.1973 136.985 32.0773 137.188 31.976C137.396 31.8747 137.617 31.7973 137.852 31.744C138.087 31.6907 138.343 31.664 138.62 31.664C139.068 31.664 139.465 31.7413 139.812 31.896C140.159 32.0453 140.447 32.2587 140.676 32.536C140.911 32.808 141.087 33.136 141.204 33.52C141.327 33.8987 141.388 34.3173 141.388 34.776V40H139.412V34.776C139.412 34.2747 139.295 33.888 139.06 33.616C138.831 33.3387 138.484 33.2 138.02 33.2C137.679 33.2 137.359 33.2773 137.06 33.432C136.761 33.5867 136.479 33.7973 136.212 34.064V40H134.236ZM148.202 33.392C148.148 33.4773 148.092 33.5387 148.034 33.576C147.975 33.608 147.9 33.624 147.81 33.624C147.714 33.624 147.61 33.5973 147.498 33.544C147.391 33.4907 147.266 33.432 147.122 33.368C146.978 33.2987 146.812 33.2373 146.626 33.184C146.444 33.1307 146.228 33.104 145.978 33.104C145.588 33.104 145.282 33.1867 145.058 33.352C144.834 33.5173 144.722 33.7333 144.722 34C144.722 34.176 144.778 34.3253 144.89 34.448C145.007 34.5653 145.159 34.6693 145.346 34.76C145.538 34.8507 145.754 34.9333 145.994 35.008C146.234 35.0773 146.479 35.1547 146.73 35.24C146.98 35.3253 147.226 35.424 147.466 35.536C147.706 35.6427 147.919 35.7813 148.106 35.952C148.298 36.1173 148.45 36.3173 148.562 36.552C148.679 36.7867 148.738 37.0693 148.738 37.4C148.738 37.7947 148.666 38.16 148.522 38.496C148.378 38.8267 148.167 39.1147 147.89 39.36C147.612 39.6 147.268 39.7893 146.858 39.928C146.452 40.0613 145.986 40.128 145.458 40.128C145.175 40.128 144.898 40.1013 144.626 40.048C144.359 40 144.1 39.9307 143.85 39.84C143.604 39.7493 143.375 39.6427 143.162 39.52C142.954 39.3973 142.77 39.264 142.61 39.12L143.066 38.368C143.124 38.2773 143.194 38.208 143.274 38.16C143.354 38.112 143.455 38.088 143.578 38.088C143.7 38.088 143.815 38.1227 143.922 38.192C144.034 38.2613 144.162 38.336 144.306 38.416C144.45 38.496 144.618 38.5707 144.81 38.64C145.007 38.7093 145.255 38.744 145.554 38.744C145.788 38.744 145.988 38.7173 146.154 38.664C146.324 38.6053 146.463 38.5307 146.57 38.44C146.682 38.3493 146.762 38.2453 146.81 38.128C146.863 38.0053 146.89 37.88 146.89 37.752C146.89 37.56 146.831 37.4027 146.714 37.28C146.602 37.1573 146.45 37.0507 146.258 36.96C146.071 36.8693 145.855 36.7893 145.61 36.72C145.37 36.6453 145.122 36.5653 144.866 36.48C144.615 36.3947 144.367 36.296 144.122 36.184C143.882 36.0667 143.666 35.92 143.474 35.744C143.287 35.568 143.135 35.352 143.018 35.096C142.906 34.84 142.85 34.5307 142.85 34.168C142.85 33.832 142.916 33.512 143.05 33.208C143.183 32.904 143.378 32.64 143.634 32.416C143.895 32.1867 144.218 32.0053 144.602 31.872C144.991 31.7333 145.439 31.664 145.946 31.664C146.511 31.664 147.026 31.7573 147.49 31.944C147.954 32.1307 148.34 32.376 148.65 32.68L148.202 33.392ZM149.554 29.48C149.735 29.32 149.933 29.168 150.146 29.024C150.365 28.88 150.599 28.7547 150.85 28.648C151.101 28.5413 151.373 28.4587 151.666 28.4C151.959 28.336 152.277 28.304 152.618 28.304C153.082 28.304 153.503 28.368 153.882 28.496C154.266 28.624 154.594 28.808 154.866 29.048C155.138 29.2827 155.349 29.568 155.498 29.904C155.647 30.24 155.722 30.616 155.722 31.032C155.722 31.4373 155.663 31.7893 155.546 32.088C155.429 32.3813 155.279 32.6373 155.098 32.856C154.922 33.0747 154.73 33.264 154.522 33.424C154.314 33.584 154.117 33.736 153.93 33.88C153.743 34.0187 153.581 34.1573 153.442 34.296C153.309 34.4293 153.229 34.5813 153.202 34.752L153.018 35.92H151.666L151.53 34.616C151.525 34.5893 151.522 34.568 151.522 34.552C151.522 34.5307 151.522 34.5067 151.522 34.48C151.522 34.2453 151.581 34.0427 151.698 33.872C151.815 33.696 151.962 33.5333 152.138 33.384C152.314 33.2293 152.503 33.08 152.706 32.936C152.909 32.792 153.098 32.6373 153.274 32.472C153.45 32.3013 153.597 32.1093 153.714 31.896C153.831 31.6827 153.89 31.432 153.89 31.144C153.89 30.952 153.853 30.7813 153.778 30.632C153.709 30.4773 153.61 30.3467 153.482 30.24C153.354 30.128 153.199 30.0427 153.018 29.984C152.842 29.9253 152.65 29.896 152.442 29.896C152.138 29.896 151.879 29.9307 151.666 30C151.458 30.064 151.279 30.1387 151.13 30.224C150.986 30.304 150.863 30.3787 150.762 30.448C150.661 30.512 150.57 30.544 150.49 30.544C150.298 30.544 150.159 30.464 150.074 30.304L149.554 29.48ZM151.066 38.912C151.066 38.7467 151.095 38.5893 151.154 38.44C151.218 38.2907 151.303 38.1627 151.41 38.056C151.522 37.9493 151.653 37.864 151.802 37.8C151.951 37.736 152.111 37.704 152.282 37.704C152.447 37.704 152.605 37.736 152.754 37.8C152.903 37.864 153.031 37.9493 153.138 38.056C153.245 38.1627 153.33 38.2907 153.394 38.44C153.458 38.5893 153.49 38.7467 153.49 38.912C153.49 39.0827 153.458 39.2427 153.394 39.392C153.33 39.536 153.245 39.6613 153.138 39.768C153.031 39.8747 152.903 39.9573 152.754 40.016C152.605 40.08 152.447 40.112 152.282 40.112C152.111 40.112 151.951 40.08 151.802 40.016C151.653 39.9573 151.522 39.8747 151.41 39.768C151.303 39.6613 151.218 39.536 151.154 39.392C151.095 39.2427 151.066 39.0827 151.066 38.912Z" fill="white"/>
<defs>
<filter id="filter0_d_757_1895" x="10.969" y="1.09924" width="204.385" height="131.126" filterUnits="userSpaceOnUse" color-interpolation-filters="sRGB">
<feFlood flood-opacity="0" result="BackgroundImageFix"/>
<feColorMatrix in="SourceAlpha" type="matrix" values="0 0 0 0 0 0 0 0 0 0 0 0 0 0 0 0 0 0 127 0" result="hardAlpha"/>
<feOffset/>
<feGaussianBlur stdDeviation="2.5"/>
<feComposite in2="hardAlpha" operator="out"/>
<feColorMatrix type="matrix" values="0 0 0 0 0 0 0 0 0 0 0 0 0 0 0 0 0 0 0.2 0"/>
<feBlend mode="normal" in2="BackgroundImageFix" result="effect1_dropShadow_757_1895"/>
<feBlend mode="normal" in="SourceGraphic" in2="effect1_dropShadow_757_1895" result="shape"/>
</filter>
<filter id="filter1_d_757_1895" x="0.000244141" y="0.25" width="204.25" height="132.25" filterUnits="userSpaceOnUse" color-interpolation-filters="sRGB">
<feFlood flood-opacity="0" result="BackgroundImageFix"/>
<feColorMatrix in="SourceAlpha" type="matrix" values="0 0 0 0 0 0 0 0 0 0 0 0 0 0 0 0 0 0 127 0" result="hardAlpha"/>
<feOffset/>
<feGaussianBlur stdDeviation="2.5"/>
<feComposite in2="hardAlpha" operator="out"/>
<feColorMatrix type="matrix" values="0 0 0 0 0 0 0 0 0 0 0 0 0 0 0 0 0 0 0.2 0"/>
<feBlend mode="normal" in2="BackgroundImageFix" result="effect1_dropShadow_757_1895"/>
<feBlend mode="normal" in="SourceGraphic" in2="effect1_dropShadow_757_1895" result="shape"/>
</filter>
</defs>
</svg>
