<svg width="20" height="20" viewBox="0 0 20 20" fill="none" xmlns="http://www.w3.org/2000/svg">
<path d="M10.0003 19.2312C4.92324 19.2312 0.769287 15.0773 0.769287 10.0002C0.769287 4.92315 4.92324 0.769202 10.0003 0.769202C15.0773 0.769202 19.2313 4.92315 19.2313 10.0002C19.2313 15.0773 15.0773 19.2312 10.0003 19.2312Z" stroke="#00D7FB" stroke-width="1.2308" stroke-miterlimit="10"/>
<path d="M10.0003 16.9236C6.15403 16.9236 3.07703 13.8466 3.07703 10.0003C3.07703 6.15408 6.15403 3.07708 10.0003 3.07708C13.8465 3.07708 16.9235 6.15408 16.9235 10.0003C16.9235 13.8466 13.8465 16.9236 10.0003 16.9236Z" fill="#00D7FB"/>
<path d="M7.00024 6.04324C7.17291 5.89858 7.35958 5.76324 7.56024 5.63724C7.76558 5.51124 7.98491 5.40158 8.21824 5.30824C8.45158 5.21024 8.70124 5.13558 8.96724 5.08424C9.23791 5.02824 9.52958 5.00024 9.84224 5.00024C10.2809 5.00024 10.6752 5.05858 11.0252 5.17524C11.3799 5.29191 11.6809 5.45991 11.9282 5.67924C12.1756 5.89391 12.3646 6.15524 12.4952 6.46324C12.6306 6.76658 12.6982 7.10491 12.6982 7.47824C12.6982 7.83758 12.6492 8.14558 12.5512 8.40224C12.4532 8.65891 12.3272 8.88291 12.1732 9.07424C12.0239 9.26558 11.8582 9.43124 11.6762 9.57124C11.4989 9.70658 11.3286 9.83491 11.1652 9.95624C11.0066 10.0776 10.8666 10.1966 10.7452 10.3132C10.6286 10.4299 10.5562 10.5606 10.5282 10.7052L10.3322 11.6852H8.84824L8.69424 10.5582C8.68958 10.5302 8.68491 10.5022 8.68024 10.4742C8.68024 10.4462 8.68024 10.4182 8.68024 10.3902C8.68024 10.1849 8.72924 10.0052 8.82724 9.85124C8.92524 9.69724 9.04891 9.55724 9.19824 9.43124C9.34758 9.30058 9.50858 9.17691 9.68124 9.06024C9.85391 8.93891 10.0149 8.81058 10.1642 8.67524C10.3136 8.53524 10.4372 8.38124 10.5352 8.21324C10.6332 8.04058 10.6822 7.83758 10.6822 7.60424C10.6822 7.32424 10.5889 7.10258 10.4022 6.93924C10.2202 6.77124 9.96824 6.68724 9.64624 6.68724C9.39891 6.68724 9.19124 6.71291 9.02324 6.76424C8.85991 6.81558 8.71758 6.87391 8.59624 6.93924C8.47958 6.99991 8.37691 7.05591 8.28824 7.10724C8.19958 7.15858 8.11091 7.18424 8.02224 7.18424C7.82158 7.18424 7.67224 7.09791 7.57424 6.92524L7.00024 6.04324ZM8.28824 14.2122C8.28824 14.0442 8.31858 13.8879 8.37924 13.7432C8.44458 13.5986 8.53091 13.4726 8.63824 13.3652C8.75024 13.2579 8.88091 13.1739 9.03024 13.1132C9.17958 13.0479 9.34291 13.0152 9.52024 13.0152C9.69291 13.0152 9.85391 13.0479 10.0032 13.1132C10.1526 13.1739 10.2832 13.2579 10.3952 13.3652C10.5072 13.4726 10.5936 13.5986 10.6542 13.7432C10.7196 13.8879 10.7522 14.0442 10.7522 14.2122C10.7522 14.3802 10.7196 14.5389 10.6542 14.6882C10.5936 14.8329 10.5072 14.9589 10.3952 15.0662C10.2832 15.1736 10.1526 15.2576 10.0032 15.3182C9.85391 15.3789 9.69291 15.4092 9.52024 15.4092C9.34291 15.4092 9.17958 15.3789 9.03024 15.3182C8.88091 15.2576 8.75024 15.1736 8.63824 15.0662C8.53091 14.9589 8.44458 14.8329 8.37924 14.6882C8.31858 14.5389 8.28824 14.3802 8.28824 14.2122Z" fill="#000C28"/>
</svg>
