<svg width="32" height="32" viewBox="0 0 32 32" fill="none" xmlns="http://www.w3.org/2000/svg">
<path d="M16 32C24.8366 32 32 24.8366 32 16C32 7.16344 24.8366 0 16 0C7.16344 0 0 7.16344 0 16C0 24.8366 7.16344 32 16 32Z" fill="#00D7FB"/>
<path d="M24.3 12.4001C23.9 11.9001 23.3001 11.6001 22.7001 11.6001H12.7001C12.0001 11.6001 11.5 11.9001 11 12.4001C10.6 12.9001 10.3 13.6001 10.3 14.3001V20.4001H12.1V14.3001C12.1 13.6433 12.7108 13.6001 12.7108 13.6001H16.2001C16.4762 13.6001 16.7001 13.824 16.7001 14.1001V20.3001H18.5V14.1001C18.5 13.824 18.7239 13.6001 19 13.6001H22.6C23 13.6001 23.1 13.882 23.1 14.2001V20.3001H25V14.2001C25 13.6001 24.8 12.9001 24.3 12.4001Z" fill="#000C28"/>
<path d="M7.5 11.6001C7.22386 11.6001 7 11.824 7 12.1001V19.9001C7 20.1762 7.22386 20.4001 7.5 20.4001H8.8C9.07614 20.4001 9.3 20.1762 9.3 19.9001V12.1001C9.3 11.824 9.07614 11.6001 8.8 11.6001H7.5Z" fill="#000C28"/>
</svg>
