<svg width="32" height="32" viewBox="0 0 32 32" fill="none" xmlns="http://www.w3.org/2000/svg">
<g clip-path="url(#clip0_1870_2806)">
<path d="M15.9995 32C7.19951 32 -0.000488281 24.8 -0.000488281 16C-0.000488281 7.2 7.19951 0 15.9995 0C24.7995 0 31.9995 7.2 31.9995 16C31.9995 24.8 24.7995 32 15.9995 32Z" fill="#F00500"/>
<path d="M24.6515 15.6971C24.6515 15.7971 24.4515 15.9971 24.1515 16.1971C23.4515 16.6971 22.2515 17.1971 21.0515 17.3971C20.3515 17.4971 19.6515 17.4971 19.4515 17.3971C19.3515 17.2971 19.2515 17.2971 19.3515 17.0971C19.4515 16.6971 19.7515 16.2971 20.3515 15.8971C20.6515 15.6971 21.6515 15.0971 22.1515 14.7971C22.9515 14.2971 23.6515 14.0971 24.1515 13.9971C24.2515 13.9971 24.4515 13.9971 24.5515 13.9971C24.6515 13.9971 24.7514 14.2971 24.7514 14.5971C24.6514 14.7971 24.6515 15.4971 24.6515 15.6971Z" fill="black"/>
<path d="M13.0514 17.2972C13.0514 17.3972 12.8513 17.3972 12.7513 17.3972C12.5513 17.3972 12.0513 17.3972 11.7513 17.3972C10.7513 17.2972 9.55134 16.8972 8.75134 16.4972C8.25134 16.2972 7.95134 16.0972 7.75134 15.7972L7.65137 15.6972V15.4972C7.65137 15.1972 7.65137 14.6972 7.65137 14.4972C7.65137 14.2972 7.75138 14.1972 7.85138 14.0972C7.85138 14.0972 7.85139 14.0972 8.05139 14.0972C8.25139 14.0972 8.45134 14.0972 8.75134 14.1972C9.35134 14.3972 10.2514 14.7972 11.3514 15.4972C12.2514 15.9972 12.5514 16.2972 12.8514 16.6972C12.9514 16.8972 13.0514 17.1972 13.0514 17.2972Z" fill="black"/>
<path d="M20.0512 24.1972C20.0512 24.1972 19.9512 24.4972 19.9512 24.6972C19.8512 24.9972 19.8512 25.1972 19.8512 25.1972C19.7512 25.1972 19.7512 25.1972 19.6512 25.1972H19.4512L19.2512 25.6972C19.1512 25.9972 19.0512 26.1971 19.0512 26.2971V26.3972L18.9512 26.1972L18.8512 25.9972V24.5972C18.7512 24.5972 18.1512 24.6972 17.9512 24.6972C16.8512 24.7972 15.7512 24.7972 14.7512 24.5972C14.5512 24.5972 14.4512 24.5972 14.4512 24.5972C14.4512 24.5972 14.4512 24.8971 14.4512 25.2971V25.9972L14.3512 26.0972C14.3512 26.1972 14.2512 26.1972 14.2512 26.1972C14.2512 26.1972 14.1512 26.0972 14.0512 25.8972C13.9512 25.6972 13.8512 25.3972 13.7512 25.1972V25.0972H13.5512H13.3512V24.8972C13.3512 24.7972 13.3512 24.5972 13.2512 24.5972V24.3972L13.1512 24.2971C13.0512 24.1971 13.0512 24.1972 12.9512 24.1972V24.0972V23.9972H13.5512H14.1512V24.0972V24.1972H14.3512C14.4512 24.1972 14.8512 24.1972 15.1512 24.1972H15.7512L15.9512 23.9972L16.1512 23.7972H16.3512V23.2972V22.7972L16.0512 22.6972C15.1512 22.2972 14.6512 21.8972 14.4512 21.2972C14.4512 21.1972 14.4512 21.1972 14.4512 20.6972C14.4512 20.1972 14.4512 20.1972 14.4512 20.0972C14.5512 19.8972 14.7512 19.6972 14.9512 19.5972C15.0512 19.5972 15.2512 19.5972 16.4512 19.5972H17.8512L18.0512 19.6972C18.2512 19.7972 18.3512 19.8972 18.4512 19.9972C18.5512 20.1972 18.6512 20.2972 18.6512 20.5972C18.6512 20.9972 18.6512 21.3972 18.5512 21.4972C18.4512 21.6972 18.3512 21.8972 18.2512 22.0972C18.0512 22.3972 17.5512 22.6972 17.1512 22.8972H17.0512V23.3972V23.8972H17.1512H17.2512L17.3512 24.0972L17.4512 24.2971H18.1512C18.5512 24.2971 18.8512 24.2971 18.8512 24.2971C18.8512 24.2971 18.9512 24.2972 18.9512 24.1972L19.0512 24.0972H19.6512C19.8512 24.0972 20.0512 24.1972 20.0512 24.1972Z" fill="black"/>
<path d="M17.4512 25.5972C17.3512 25.6972 17.2512 25.6972 17.2512 25.6972C17.2512 25.6972 17.1513 25.5972 17.0513 25.5972L16.9512 25.4972L16.8513 25.5972C16.5513 25.8972 16.5512 25.8972 16.4512 25.8972C16.3512 25.8972 16.2512 25.8972 16.1512 25.5972C16.0512 25.4972 15.9512 25.3972 15.9512 25.3972H15.8513H15.7512L15.6512 25.4972L15.5513 25.5972H15.4512C15.3512 25.5972 15.2512 25.4972 15.1512 25.4972L15.0513 25.3972V25.0972H16.3513H17.6512V25.1972C17.6512 25.4972 17.6512 25.4972 17.4512 25.5972Z" fill="black"/>
<path d="M29.7515 19.5969V19.4969C28.5515 19.3969 25.1516 19.2969 22.0516 21.8969C22.0516 21.8969 21.0516 17.2969 16.3516 17.2969C11.6516 17.2969 9.85156 21.8969 9.85156 21.8969C7.15156 18.9969 3.65156 19.2969 2.35156 19.3969V19.4969C2.35156 20.1969 2.35154 20.5969 2.45154 20.9969C2.85154 22.3969 3.95153 23.9969 5.75153 25.4969C8.65153 27.9969 12.6516 29.7969 15.6516 29.9969C18.7516 30.1969 23.4515 28.3969 26.4515 25.6969C26.9515 25.2969 27.3516 24.7969 27.8516 24.2969C28.1516 23.8969 28.6516 23.2969 28.5516 23.2969C28.5516 23.2969 28.5515 23.1969 28.6516 23.1969C28.7516 23.0969 29.0516 22.5969 29.0516 22.4969C29.3516 21.8969 29.5516 21.2969 29.5516 20.6969C29.7516 20.1969 29.7515 19.6969 29.7515 19.5969ZM17.4515 25.5969C17.3515 25.6969 17.2515 25.6969 17.2515 25.6969C17.2515 25.6969 17.1516 25.5969 17.0516 25.5969L16.9515 25.4969L16.8516 25.5969C16.5516 25.8969 16.5515 25.8969 16.4515 25.8969C16.3515 25.8969 16.2516 25.8969 16.1516 25.5969C16.0515 25.4969 15.9515 25.3969 15.9515 25.3969H15.8516H15.7515L15.6516 25.4969L15.5516 25.5969H15.4515C15.3515 25.5969 15.2516 25.4969 15.1516 25.4969L15.0516 25.3969V25.0969H16.3516H17.6516V25.1969C17.6516 25.4969 17.6515 25.4969 17.4515 25.5969ZM19.8516 24.6969C19.7516 24.9969 19.7515 25.1969 19.7515 25.1969C19.6515 25.1969 19.6516 25.1969 19.5516 25.1969H19.3516L19.1516 25.6969C19.0515 25.9969 18.9515 26.1969 18.9515 26.2969V26.3969L18.8516 26.1969L18.7515 25.9969V24.5969C18.6515 24.5969 18.0516 24.6969 17.8516 24.6969C16.7516 24.7969 15.6516 24.7969 14.6516 24.5969C14.4516 24.5969 14.3516 24.5969 14.3516 24.5969C14.3516 24.5969 14.3516 24.8969 14.3516 25.2969V25.9969L14.2515 26.0969C14.2515 26.1969 14.1516 26.1969 14.1516 26.1969C14.1516 26.1969 14.0515 26.0969 13.9515 25.8969C13.8515 25.6969 13.7516 25.3969 13.6516 25.1969V25.0969H13.4515H13.2515V24.8969C13.2515 24.7969 13.2516 24.5969 13.1516 24.5969V24.3969L13.0516 24.2969C12.9516 24.1969 12.9516 24.1969 12.8516 24.1969V24.0969V23.9969H13.4515H14.0516V24.0969V24.1969H14.2515C14.3515 24.1969 14.7516 24.1969 15.0516 24.1969H15.6516L15.8516 23.9969L16.0516 23.7969H16.2515V23.2969V22.7969L15.9515 22.6969C15.0515 22.2969 14.5516 21.8969 14.3516 21.2969C14.3516 21.1969 14.3516 21.1969 14.3516 20.6969C14.3516 20.1969 14.3516 20.1969 14.3516 20.0969C14.4516 19.8969 14.6516 19.6969 14.8516 19.5969C14.9516 19.5969 15.1516 19.5969 16.3516 19.5969H17.7515L17.9515 19.6969C18.1515 19.7969 18.2516 19.8969 18.3516 19.9969C18.4516 20.1969 18.5516 20.2969 18.5516 20.5969C18.5516 20.9969 18.5515 21.3969 18.4515 21.4969C18.3515 21.6969 18.2516 21.8969 18.1516 22.0969C17.9516 22.3969 17.4516 22.6969 17.0516 22.8969H16.9515V23.3969V23.8969H17.0516H17.1516L17.2515 24.0969L17.3516 24.2969H18.0516C18.4516 24.2969 18.7515 24.2969 18.7515 24.2969C18.7515 24.2969 18.8516 24.2969 18.8516 24.1969L18.9515 24.0969H19.5516C19.9516 24.0969 20.1516 24.0969 20.1516 24.0969C20.0515 24.1969 19.9516 24.3969 19.8516 24.6969Z" fill="white"/>
<path d="M29.7517 19.097C29.7517 18.897 29.7517 18.597 29.7517 18.397C29.5517 16.197 28.9517 14.297 27.8517 12.397C27.8517 12.297 27.7517 12.297 27.7517 12.197C27.9517 11.697 28.5518 9.79701 29.0518 7.59701C29.7518 4.59701 30.1517 1.09701 28.8517 0.0970069C28.8517 0.0970069 26.5518 -0.103005 23.5518 2.89699C22.7518 3.69699 21.9517 4.59701 21.3517 5.59701L21.1517 5.497C19.9517 5.097 18.6517 4.897 17.3517 4.797C16.9517 4.797 15.5518 4.797 15.0518 4.797C13.6518 4.897 12.5517 5.097 11.3517 5.497H11.2517C10.5517 4.597 9.75172 3.69699 8.95172 2.89699C5.75172 -0.103005 3.45172 0.0970069 3.45172 0.0970069C2.05172 1.19701 2.55171 4.79699 3.25171 7.89699C3.75171 9.89699 4.35176 11.697 4.55176 12.397C4.55176 12.397 4.55172 12.497 4.45172 12.497C3.35172 14.797 2.65176 17.097 2.55176 19.497C3.85176 19.297 7.35176 19.097 10.0518 21.997C10.0518 21.997 11.8518 17.397 16.5518 17.397C21.2518 17.397 22.2517 21.997 22.2517 21.997C25.3517 19.397 28.7517 19.497 29.9517 19.597C29.7517 19.397 29.7517 19.197 29.7517 19.097ZM5.25171 10.497C5.25171 10.497 3.45175 5.897 3.85175 3.297C3.95175 2.897 4.05175 2.497 4.35175 2.197C4.35175 2.197 6.45175 2.397 9.85175 6.197C9.85175 6.197 9.25175 6.497 8.35175 7.197C7.35175 7.697 6.15171 8.897 5.25171 10.497ZM13.0518 17.297C13.0518 17.397 12.8517 17.397 12.7517 17.397C12.5517 17.397 12.0517 17.397 11.7517 17.397C10.7517 17.297 9.55171 16.897 8.75171 16.497C8.25171 16.297 7.95171 16.097 7.75171 15.797L7.65173 15.697V15.497C7.65173 15.197 7.65173 14.697 7.65173 14.497C7.65173 14.297 7.75175 14.197 7.85175 14.097C7.85175 14.097 7.85176 14.097 8.05176 14.097C8.25176 14.097 8.45171 14.097 8.75171 14.197C9.35171 14.397 10.2517 14.797 11.3517 15.497C12.2517 15.997 12.5517 16.297 12.8517 16.697C12.9517 16.897 13.0518 17.197 13.0518 17.297ZM24.6517 15.697C24.6517 15.797 24.4517 15.997 24.1517 16.197C23.4517 16.697 22.2518 17.197 21.0518 17.397C20.3518 17.497 19.6517 17.497 19.4517 17.397C19.3517 17.297 19.2517 17.297 19.3517 17.097C19.4517 16.697 19.7517 16.297 20.3517 15.897C20.6517 15.697 21.6517 15.097 22.1517 14.797C22.9517 14.297 23.6517 14.097 24.1517 13.997C24.2517 13.997 24.4518 13.997 24.5518 13.997C24.6518 13.997 24.7517 14.297 24.7517 14.597C24.6517 14.797 24.6517 15.497 24.6517 15.697ZM23.8517 6.997C23.0517 6.297 22.3517 5.997 22.3517 5.997C25.6517 2.297 27.6517 1.997 27.6517 1.997C27.8517 2.297 28.0518 2.69701 28.0518 3.09701C28.5518 5.69701 26.7517 10.297 26.7517 10.297C26.0517 9.097 25.0517 7.997 23.8517 6.997Z" fill="#FFA409"/>
<path d="M28.1517 3.19707C27.7517 3.19707 25.9517 3.09707 23.8517 6.99707C23.0517 6.29707 22.4517 5.99707 22.4517 5.99707C25.7517 2.29707 27.7516 1.99707 27.7516 1.99707C27.8516 2.39707 28.0517 2.79707 28.1517 3.19707Z" fill="#FF9300"/>
<path d="M26.7515 10.4972C26.0515 9.19718 25.0516 7.99719 23.8516 7.09719C25.9516 3.19719 27.7516 3.19718 28.1516 3.29718C28.5516 5.89718 26.7515 10.4972 26.7515 10.4972Z" fill="#FF8300"/>
<path d="M9.75153 5.99692C9.75153 5.99692 9.15153 6.29692 8.25153 6.99692C6.15153 3.09692 4.25156 3.09691 3.85156 3.19691C3.95156 2.79691 4.05156 2.39692 4.35156 2.09692C4.35156 2.09692 6.35153 2.29692 9.75153 5.99692Z" fill="#FF9300"/>
<path d="M8.25142 6.99702C7.35142 7.69702 6.15142 8.79702 5.25142 10.397C5.25142 10.397 3.45146 5.79702 3.85146 3.19702C4.25146 3.19702 6.15142 3.19702 8.25142 6.99702Z" fill="#FF8300"/>
<path d="M21.7517 12.9969C21.7517 12.9969 20.1518 13.0969 20.3518 11.8969C20.5518 10.6969 21.7518 10.4969 22.1518 10.5969C22.4518 10.5969 23.8518 11.0969 23.6518 12.1969C23.4518 13.1969 23.0518 12.9969 22.8518 13.0969C22.6518 13.1969 21.7517 12.9969 21.7517 12.9969Z" fill="white"/>
<path d="M10.1517 12.9969C10.1517 12.9969 8.55168 13.0969 8.75168 11.8969C8.95168 10.6969 10.1517 10.4969 10.5517 10.5969C10.8517 10.5969 12.2517 11.0969 12.0517 12.1969C11.8517 13.1969 11.4517 12.9969 11.2517 13.0969C11.0517 13.1969 10.1517 12.9969 10.1517 12.9969Z" fill="white"/>
</g>
<defs>
<clipPath id="clip0_1870_2806">
<rect width="32" height="32" fill="white" transform="translate(-0.000488281)"/>
</clipPath>
</defs>
</svg>
