<svg width="32" height="32" viewBox="0 0 32 32" fill="none" xmlns="http://www.w3.org/2000/svg">
<path d="M16 32C24.8366 32 32 24.8366 32 16C32 7.16344 24.8366 0 16 0C7.16344 0 0 7.16344 0 16C0 24.8366 7.16344 32 16 32Z" fill="#1A77FF"/>
<path d="M20.7001 13.1001C17.4001 13.1001 14.8 15.8001 14.8 19.0001C14.8 22.3001 17.5001 24.9001 20.7001 24.9001C24.0001 24.9001 26.6 22.2001 26.6 19.0001C26.7 15.7001 24.0001 13.1001 20.7001 13.1001ZM20.7001 22.6001C18.7001 22.6001 17.1 21.0001 17.1 19.0001C17.1 17.0001 18.7001 15.4001 20.7001 15.4001C22.7001 15.4001 24.3 17.0001 24.3 19.0001C24.3 21.0001 22.7001 22.6001 20.7001 22.6001Z" fill="#000C28"/>
<path d="M20.7002 16.5C19.3002 16.5 18.2002 17.6 18.2002 19C18.2002 20.4 19.3002 21.5 20.7002 21.5C22.1002 21.5 23.2002 20.4 23.2002 19C23.2002 17.6 22.1002 16.5 20.7002 16.5Z" fill="#000C28"/>
<path d="M11.3 22.5999C9.30005 22.5999 7.70005 20.9999 7.70005 18.9999C7.70005 17.4999 8.70005 16.1999 10 15.6999C9.70005 14.9999 9.50005 14.1999 9.40005 13.3999C7.00005 14.1999 5.30005 16.3999 5.30005 18.9999C5.30005 22.2999 8.00005 24.8999 11.2001 24.8999C12.9001 24.8999 14.4 24.1999 15.5 22.9999C15 22.2999 14.5 21.4999 14.3 20.5999C13.8 21.7999 12.6 22.5999 11.3 22.5999Z" fill="#000C28"/>
<path d="M10.5002 16.6001C9.50019 16.9001 8.7002 17.9001 8.7002 19.0001C8.7002 20.4001 9.8002 21.5001 11.2002 21.5001C12.5002 21.5001 13.6002 20.5001 13.7002 19.1001C12.4002 18.7001 11.3002 17.8001 10.5002 16.6001Z" fill="#000C28"/>
<path d="M14.2 18.6C14.2 17.8 14.4 17 14.8 16.3C13.5 15.8 12.5 14.5 12.5 13C12.5 11 14.1 9.4 16.1 9.4C17.9 9.4 19.4 10.8 19.6 12.5C20 12.4 20.4 12.4 20.8 12.4C21.2 12.4 21.6 12.4 22 12.5C21.8 9.4 19.2 7 16.1 7C12.8 7 10.2 9.7 10.2 12.9C10.1 15.6 11.8 17.9 14.2 18.6Z" fill="#000C28"/>
<path d="M16 10.5C14.6 10.5 13.5 11.6 13.5 13C13.5 14.1 14.2 15.1 15.3 15.4C16.1 14.2 17.2 13.3 18.6 12.8C18.4 11.5 17.3 10.5 16 10.5Z" fill="#000C28"/>
</svg>
