<svg width="1600" height="191" viewBox="0 0 1600 191" fill="none" xmlns="http://www.w3.org/2000/svg">
<path d="M0 12.8327V190.909H1599.94V19.2491C1599.94 19.2491 1542.02 -0.0834351 1439.94 -9.15527e-05C1359.7 0.0832367 1262.37 25.7489 1159.95 32.1653C1057.54 38.5817 938.296 18.0825 833.967 22.6657C754.303 26.1655 699.055 37.6651 607.976 37.6651C554.394 37.6651 490.647 19.7491 398.151 25.4156C302.405 31.2487 213.408 53.4978 143.411 50.2479C70.4972 46.998 0 12.8327 0 12.8327Z" fill="#1B2759"/>
<path d="M0 81.2467V190.909H1599.94V74.8302C1599.94 74.8302 1544.1 91.8296 1447.94 102.079C1299.03 117.995 1180.04 81.4133 1055.96 70.7471C833.05 51.6645 673.223 95.9961 546.061 95.9961C474.148 95.9961 392.568 75.2469 289.322 80.6633C212.492 84.6632 146.827 93.9128 75.997 89.4963C22.7491 86.1631 0 81.2467 0 81.2467Z" fill="#151A49"/>
<path d="M0 111.245V190.909H1599.94V127.245C1599.94 127.245 1535.27 118.578 1461.77 123.828C1361.95 130.911 1290.7 154.244 1191.95 158.827C1077.54 164.16 1015.46 127.495 889.964 116.079C747.553 103.079 618.809 141.494 450.232 141.494C327.404 141.494 247.99 125.078 159.994 113.579C71.9971 102.079 0 111.245 0 111.245Z" fill="url(#paint0_linear_1172_2077)"/>
<defs>
<linearGradient id="paint0_linear_1172_2077" x1="799.968" y1="190.948" x2="799.968" y2="107.829" gradientUnits="userSpaceOnUse">
<stop stop-color="#000C28"/>
<stop offset="1" stop-color="#0F0E3A"/>
</linearGradient>
</defs>
</svg>
