<svg width="610" height="83" viewBox="0 0 610 83" fill="none" xmlns="http://www.w3.org/2000/svg">
<path d="M0.0761719 74.64C0.0761719 78.8332 3.50699 82.264 7.70022 82.264H602.376C606.569 82.264 610 78.8332 610 74.64V7.31967C610 7.31967 587.966 -0.075655 549.008 0.000585462C518.435 0.000585462 481.306 10.6058 442.271 13.0455C403.236 15.4852 357.796 3.87697 317.999 5.6305C287.579 7.00283 266.537 18.2417 231.847 18.2417C211.415 18.2417 187.094 7.54838 151.871 9.75936C115.352 11.9703 81.4248 20.433 54.7406 19.2132C26.9891 17.9171 0.0761719 4.95622 0.0761719 4.95622V74.64Z" fill="#251E68"/>
<path d="M0.0762408 74.64C0.0762408 78.8332 3.50706 82.264 7.70029 82.264H602.376C606.569 82.264 610 78.8332 610 74.64V28.4383C610 28.4383 588.729 34.9187 552.057 38.807C495.258 44.9062 449.895 30.878 402.626 26.8372C317.618 19.5944 256.702 36.4435 208.213 36.4435C180.842 36.4435 149.736 28.5145 110.32 30.573C81.0436 32.0978 55.9605 35.6049 28.9714 33.9276C8.69141 32.6315 0 30.8017 0 30.8017V74.64H0.0762408Z" fill="#1E0F57"/>
<path d="M0.0761719 72.2607C0.0761719 77.7836 4.55333 82.264 10.0762 82.264H600C605.523 82.264 610 77.7845 610 72.2616C610 64.3836 610 60.6793 610 48.4895C610 48.4895 585.374 45.2112 557.318 47.1934C519.274 49.8618 492.056 58.782 454.469 60.5355C410.86 62.5178 387.149 48.5658 339.346 44.22C285.063 39.2644 235.964 53.9026 171.693 53.9026C124.882 53.9026 94.6143 47.6509 61.0685 43.3052C27.5227 38.9594 0.0761719 42.3903 0.0761719 42.3903C0.0761719 56.8313 0.0761719 61.8527 0.0761719 72.2607Z" fill="#0F0E3A"/>
</svg>
